%TF.GenerationSoftware,KiCad,Pcbnew,9.0.2*%
%TF.CreationDate,2025-07-07T21:27:42-04:00*%
%TF.ProjectId,CVISS_IMU_Tracker_Board,43564953-535f-4494-9d55-5f547261636b,rev?*%
%TF.SameCoordinates,Original*%
%TF.FileFunction,Copper,L2,Bot*%
%TF.FilePolarity,Positive*%
%FSLAX46Y46*%
G04 Gerber Fmt 4.6, Leading zero omitted, Abs format (unit mm)*
G04 Created by KiCad (PCBNEW 9.0.2) date 2025-07-07 21:27:42*
%MOMM*%
%LPD*%
G01*
G04 APERTURE LIST*
G04 Aperture macros list*
%AMRoundRect*
0 Rectangle with rounded corners*
0 $1 Rounding radius*
0 $2 $3 $4 $5 $6 $7 $8 $9 X,Y pos of 4 corners*
0 Add a 4 corners polygon primitive as box body*
4,1,4,$2,$3,$4,$5,$6,$7,$8,$9,$2,$3,0*
0 Add four circle primitives for the rounded corners*
1,1,$1+$1,$2,$3*
1,1,$1+$1,$4,$5*
1,1,$1+$1,$6,$7*
1,1,$1+$1,$8,$9*
0 Add four rect primitives between the rounded corners*
20,1,$1+$1,$2,$3,$4,$5,0*
20,1,$1+$1,$4,$5,$6,$7,0*
20,1,$1+$1,$6,$7,$8,$9,0*
20,1,$1+$1,$8,$9,$2,$3,0*%
G04 Aperture macros list end*
%TA.AperFunction,ComponentPad*%
%ADD10RoundRect,0.249999X-0.850001X0.850001X-0.850001X-0.850001X0.850001X-0.850001X0.850001X0.850001X0*%
%TD*%
%TA.AperFunction,ComponentPad*%
%ADD11C,2.200000*%
%TD*%
%TA.AperFunction,ComponentPad*%
%ADD12C,1.600000*%
%TD*%
%TA.AperFunction,ComponentPad*%
%ADD13R,2.000000X2.000000*%
%TD*%
%TA.AperFunction,ComponentPad*%
%ADD14O,2.000000X1.600000*%
%TD*%
%TA.AperFunction,ComponentPad*%
%ADD15C,1.530000*%
%TD*%
%TA.AperFunction,ComponentPad*%
%ADD16R,1.800000X1.800000*%
%TD*%
%TA.AperFunction,ComponentPad*%
%ADD17C,1.800000*%
%TD*%
%TA.AperFunction,ComponentPad*%
%ADD18RoundRect,0.249999X0.850001X-0.850001X0.850001X0.850001X-0.850001X0.850001X-0.850001X-0.850001X0*%
%TD*%
%TA.AperFunction,ComponentPad*%
%ADD19O,1.500000X2.500000*%
%TD*%
%TA.AperFunction,ViaPad*%
%ADD20C,1.200000*%
%TD*%
%TA.AperFunction,ViaPad*%
%ADD21C,0.650000*%
%TD*%
%TA.AperFunction,Conductor*%
%ADD22C,0.600000*%
%TD*%
%TA.AperFunction,Conductor*%
%ADD23C,0.250000*%
%TD*%
G04 APERTURE END LIST*
D10*
%TO.P,D3,1,K*%
%TO.N,+5V*%
X128250000Y-109320000D03*
D11*
%TO.P,D3,2,A*%
%TO.N,/OUT+*%
X128250000Y-119480000D03*
%TD*%
D12*
%TO.P,R2,1*%
%TO.N,Net-(U1-D0)*%
X165310000Y-85790000D03*
%TO.P,R2,2*%
%TO.N,Net-(D1-A)*%
X157690000Y-85790000D03*
%TD*%
D13*
%TO.P,U1,1,~{RST}*%
%TO.N,unconnected-(U1-~{RST}-Pad1)*%
X131905000Y-96570000D03*
D14*
%TO.P,U1,2,A0*%
%TO.N,Net-(U1-A0)*%
X131905000Y-99110000D03*
%TO.P,U1,3,D0*%
%TO.N,Net-(U1-D0)*%
X131905000Y-101650000D03*
%TO.P,U1,4,SCK/D5*%
%TO.N,/INT*%
X131905000Y-104190000D03*
%TO.P,U1,5,MISO/D6*%
%TO.N,unconnected-(U1-MISO{slash}D6-Pad5)*%
X131905000Y-106730000D03*
%TO.P,U1,6,MOSI/D7*%
%TO.N,unconnected-(U1-MOSI{slash}D7-Pad6)*%
X131905000Y-109270000D03*
%TO.P,U1,7,CS/D8*%
%TO.N,unconnected-(U1-CS{slash}D8-Pad7)*%
X131905000Y-111810000D03*
%TO.P,U1,8,3V3*%
%TO.N,+3.3V*%
X131905000Y-114350000D03*
%TO.P,U1,9,5V*%
%TO.N,/5V_SW*%
X154765000Y-114350000D03*
%TO.P,U1,10,GND*%
%TO.N,GND*%
X154765000Y-111810000D03*
%TO.P,U1,11,D4*%
%TO.N,unconnected-(U1-D4-Pad11)*%
X154765000Y-109270000D03*
%TO.P,U1,12,D3*%
%TO.N,unconnected-(U1-D3-Pad12)*%
X154765000Y-106730000D03*
%TO.P,U1,13,SDA/D2*%
%TO.N,/SCL*%
X154765000Y-104190000D03*
%TO.P,U1,14,SCL/D1*%
%TO.N,/SDA*%
X154765000Y-101650000D03*
%TO.P,U1,15,RX*%
%TO.N,unconnected-(U1-RX-Pad15)*%
X154765000Y-99110000D03*
%TO.P,U1,16,TX*%
%TO.N,unconnected-(U1-TX-Pad16)*%
X154765000Y-96570000D03*
%TD*%
D15*
%TO.P,U2,1,VCC*%
%TO.N,+3.3V*%
X158110000Y-103860000D03*
%TO.P,U2,2,GND*%
%TO.N,GND*%
X160650000Y-103860000D03*
%TO.P,U2,3,SCL*%
%TO.N,/SCL*%
X163190000Y-103860000D03*
%TO.P,U2,4,SDA*%
%TO.N,/SDA*%
X165730000Y-103860000D03*
%TO.P,U2,5,ADO*%
%TO.N,GND*%
X168270000Y-103860000D03*
%TO.P,U2,6,CS*%
%TO.N,unconnected-(U2-CS-Pad6)*%
X170810000Y-103860000D03*
%TO.P,U2,7,INT*%
%TO.N,/INT*%
X173350000Y-103860000D03*
%TO.P,U2,8,RST*%
%TO.N,unconnected-(U2-RST-Pad8)*%
X175890000Y-103860000D03*
%TO.P,U2,9,PS1*%
%TO.N,unconnected-(U2-PS1-Pad9)*%
X178430000Y-103860000D03*
%TO.P,U2,10,PS0*%
%TO.N,unconnected-(U2-PS0-Pad10)*%
X180970000Y-103860000D03*
%TD*%
D16*
%TO.P,D5,1,K*%
%TO.N,GND*%
X126590000Y-104835000D03*
D17*
%TO.P,D5,2,A*%
%TO.N,/GP_LED*%
X126590000Y-102295000D03*
%TD*%
D18*
%TO.P,D1,1,K*%
%TO.N,/GP_LED*%
X124950000Y-97790000D03*
D11*
%TO.P,D1,2,A*%
%TO.N,Net-(D1-A)*%
X124950000Y-87630000D03*
%TD*%
D10*
%TO.P,D2,1,K*%
%TO.N,+5V*%
X125000000Y-109320000D03*
D11*
%TO.P,D2,2,A*%
%TO.N,/IN+*%
X125000000Y-119480000D03*
%TD*%
D12*
%TO.P,R1,1*%
%TO.N,Net-(U1-A0)*%
X184010000Y-101590000D03*
%TO.P,R1,2*%
%TO.N,/B+*%
X184010000Y-93970000D03*
%TD*%
%TO.P,R3,1*%
%TO.N,/IN+*%
X159330000Y-117890000D03*
%TO.P,R3,2*%
%TO.N,/PWR_LED*%
X159330000Y-110270000D03*
%TD*%
D18*
%TO.P,D4,1,K*%
%TO.N,/GP_LED*%
X128200000Y-97790000D03*
D11*
%TO.P,D4,2,A*%
%TO.N,/PWR_LED*%
X128200000Y-87630000D03*
%TD*%
D15*
%TO.P,SW1,1,A*%
%TO.N,+5V*%
X172780000Y-86760000D03*
%TO.P,SW1,2*%
%TO.N,N/C*%
X170780000Y-86760000D03*
D19*
%TO.P,SW1,3*%
X168630000Y-86760000D03*
D15*
%TO.P,SW1,4,B*%
%TO.N,/5V_SW*%
X174780000Y-86760000D03*
D19*
%TO.P,SW1,5*%
%TO.N,N/C*%
X176930000Y-86760000D03*
%TD*%
D20*
%TO.N,GND*%
X183990000Y-91040000D03*
X162590000Y-110460000D03*
X162590000Y-107260000D03*
X185290000Y-107260000D03*
%TO.N,/IN+*%
X185290000Y-120960000D03*
D21*
%TO.N,/B+*%
X186490000Y-91040000D03*
%TO.N,Net-(U1-D0)*%
X165260000Y-100270000D03*
%TD*%
D22*
%TO.N,+3.3V*%
X131905000Y-116765000D02*
X133020000Y-117880000D01*
X155380000Y-117880000D02*
X158030000Y-115230000D01*
X158030000Y-115230000D02*
X158030000Y-104040000D01*
X131905000Y-114350000D02*
X131905000Y-116765000D01*
X133020000Y-117880000D02*
X155380000Y-117880000D01*
D23*
%TO.N,Net-(D1-A)*%
X156770000Y-85030000D02*
X127000000Y-85030000D01*
X157690000Y-85790000D02*
X157530000Y-85790000D01*
X157530000Y-85790000D02*
X156770000Y-85030000D01*
X127000000Y-85030000D02*
X124960000Y-87070000D01*
D22*
%TO.N,/IN+*%
X159250000Y-121100000D02*
X126670000Y-121100000D01*
X185290000Y-120960000D02*
X185290000Y-121020000D01*
D23*
X159330000Y-118230000D02*
X159330000Y-121020000D01*
X159330000Y-121020000D02*
X159250000Y-121100000D01*
D22*
X126670000Y-121100000D02*
X125050000Y-119480000D01*
X185210000Y-121100000D02*
X159250000Y-121100000D01*
X185290000Y-121020000D02*
X185210000Y-121100000D01*
D23*
X159220000Y-118120000D02*
X159330000Y-118230000D01*
%TO.N,/GP_LED*%
X124960000Y-100400000D02*
X126600000Y-102040000D01*
X124960000Y-97670000D02*
X124960000Y-100400000D01*
%TO.N,/B+*%
X186490000Y-91410000D02*
X183940000Y-93960000D01*
X186490000Y-91040000D02*
X186490000Y-91410000D01*
%TO.N,/5V_SW*%
X154765000Y-114350000D02*
X154700000Y-114350000D01*
%TO.N,/PWR_LED*%
X156110001Y-85970001D02*
X159370000Y-89230000D01*
X128210000Y-87070000D02*
X129309999Y-85970001D01*
X159370000Y-89230000D02*
X159370000Y-110350000D01*
X159370000Y-110350000D02*
X159330000Y-110390000D01*
X129309999Y-85970001D02*
X156110001Y-85970001D01*
%TO.N,Net-(U1-D0)*%
X165310000Y-100220000D02*
X165260000Y-100270000D01*
X165310000Y-85790000D02*
X165310000Y-100220000D01*
X165260000Y-100270000D02*
X165150000Y-100380000D01*
%TD*%
%TA.AperFunction,Conductor*%
%TO.N,GND*%
G36*
X164397992Y-84650185D02*
G01*
X164443747Y-84702989D01*
X164453691Y-84772147D01*
X164424666Y-84835703D01*
X164418634Y-84842181D01*
X164318032Y-84942782D01*
X164318028Y-84942786D01*
X164197715Y-85108386D01*
X164104781Y-85290776D01*
X164041522Y-85485465D01*
X164009500Y-85687648D01*
X164009500Y-85892351D01*
X164041522Y-86094534D01*
X164104781Y-86289223D01*
X164197715Y-86471613D01*
X164318028Y-86637213D01*
X164318034Y-86637219D01*
X164462781Y-86781966D01*
X164628390Y-86902287D01*
X164628394Y-86902289D01*
X164632332Y-86905150D01*
X164631111Y-86906829D01*
X164672155Y-86952177D01*
X164684500Y-87006114D01*
X164684500Y-99626704D01*
X164664815Y-99693743D01*
X164648181Y-99714385D01*
X164618794Y-99743771D01*
X164618788Y-99743779D01*
X164528452Y-99878976D01*
X164528450Y-99878980D01*
X164466225Y-100029206D01*
X164466222Y-100029216D01*
X164434500Y-100188692D01*
X164434500Y-100188695D01*
X164434500Y-100351305D01*
X164434500Y-100351307D01*
X164434499Y-100351307D01*
X164466222Y-100510783D01*
X164466225Y-100510793D01*
X164528450Y-100661019D01*
X164528452Y-100661023D01*
X164618788Y-100796220D01*
X164618794Y-100796228D01*
X164733771Y-100911205D01*
X164733779Y-100911211D01*
X164868976Y-101001547D01*
X164868980Y-101001549D01*
X165019206Y-101063774D01*
X165019211Y-101063776D01*
X165019215Y-101063776D01*
X165019216Y-101063777D01*
X165178692Y-101095500D01*
X165178695Y-101095500D01*
X165341307Y-101095500D01*
X165448598Y-101074157D01*
X165500789Y-101063776D01*
X165651021Y-101001548D01*
X165651023Y-101001547D01*
X165718169Y-100956680D01*
X165786225Y-100911208D01*
X165901208Y-100796225D01*
X165991548Y-100661021D01*
X166053776Y-100510789D01*
X166078841Y-100384781D01*
X166085500Y-100351307D01*
X166085500Y-100188692D01*
X166053777Y-100029216D01*
X166053776Y-100029215D01*
X166053776Y-100029211D01*
X165991548Y-99878979D01*
X165956397Y-99826371D01*
X165935520Y-99759693D01*
X165935500Y-99757481D01*
X165935500Y-87006114D01*
X165955185Y-86939075D01*
X165988575Y-86906398D01*
X165987668Y-86905150D01*
X165991605Y-86902289D01*
X165991610Y-86902287D01*
X166157219Y-86781966D01*
X166301966Y-86637219D01*
X166301968Y-86637215D01*
X166301971Y-86637213D01*
X166364608Y-86550999D01*
X166422287Y-86471610D01*
X166515220Y-86289219D01*
X166556693Y-86161577D01*
X167379500Y-86161577D01*
X167379500Y-87358422D01*
X167410290Y-87552826D01*
X167471117Y-87740029D01*
X167523254Y-87842353D01*
X167560476Y-87915405D01*
X167676172Y-88074646D01*
X167815354Y-88213828D01*
X167974595Y-88329524D01*
X168054034Y-88370000D01*
X168149970Y-88418882D01*
X168149972Y-88418882D01*
X168149975Y-88418884D01*
X168250317Y-88451487D01*
X168337173Y-88479709D01*
X168531578Y-88510500D01*
X168531583Y-88510500D01*
X168728422Y-88510500D01*
X168922826Y-88479709D01*
X169110025Y-88418884D01*
X169285405Y-88329524D01*
X169444646Y-88213828D01*
X169583828Y-88074646D01*
X169699524Y-87915405D01*
X169773496Y-87770226D01*
X169821470Y-87719429D01*
X169889291Y-87702634D01*
X169955426Y-87725171D01*
X169956811Y-87726162D01*
X170116734Y-87842353D01*
X170260103Y-87915403D01*
X170294219Y-87932786D01*
X170483657Y-87994338D01*
X170483658Y-87994338D01*
X170483661Y-87994339D01*
X170680403Y-88025500D01*
X170680404Y-88025500D01*
X170879596Y-88025500D01*
X170879597Y-88025500D01*
X171076339Y-87994339D01*
X171076342Y-87994338D01*
X171076343Y-87994338D01*
X171265780Y-87932786D01*
X171265780Y-87932785D01*
X171265783Y-87932785D01*
X171443266Y-87842353D01*
X171604418Y-87725269D01*
X171692319Y-87637368D01*
X171753642Y-87603883D01*
X171823334Y-87608867D01*
X171867681Y-87637368D01*
X171955582Y-87725269D01*
X172116734Y-87842353D01*
X172260103Y-87915403D01*
X172294219Y-87932786D01*
X172483657Y-87994338D01*
X172483658Y-87994338D01*
X172483661Y-87994339D01*
X172680403Y-88025500D01*
X172680404Y-88025500D01*
X172879596Y-88025500D01*
X172879597Y-88025500D01*
X173076339Y-87994339D01*
X173076342Y-87994338D01*
X173076343Y-87994338D01*
X173265780Y-87932786D01*
X173265780Y-87932785D01*
X173265783Y-87932785D01*
X173443266Y-87842353D01*
X173604418Y-87725269D01*
X173692319Y-87637368D01*
X173753642Y-87603883D01*
X173823334Y-87608867D01*
X173867681Y-87637368D01*
X173955582Y-87725269D01*
X174116734Y-87842353D01*
X174260103Y-87915403D01*
X174294219Y-87932786D01*
X174483657Y-87994338D01*
X174483658Y-87994338D01*
X174483661Y-87994339D01*
X174680403Y-88025500D01*
X174680404Y-88025500D01*
X174879596Y-88025500D01*
X174879597Y-88025500D01*
X175076339Y-87994339D01*
X175076342Y-87994338D01*
X175076343Y-87994338D01*
X175265780Y-87932786D01*
X175265780Y-87932785D01*
X175265783Y-87932785D01*
X175443266Y-87842353D01*
X175603135Y-87726200D01*
X175668938Y-87702722D01*
X175736992Y-87718547D01*
X175785687Y-87768653D01*
X175786503Y-87770225D01*
X175786504Y-87770226D01*
X175860476Y-87915405D01*
X175976172Y-88074646D01*
X176115354Y-88213828D01*
X176274595Y-88329524D01*
X176354034Y-88370000D01*
X176449970Y-88418882D01*
X176449972Y-88418882D01*
X176449975Y-88418884D01*
X176550317Y-88451487D01*
X176637173Y-88479709D01*
X176831578Y-88510500D01*
X176831583Y-88510500D01*
X177028422Y-88510500D01*
X177222826Y-88479709D01*
X177410025Y-88418884D01*
X177585405Y-88329524D01*
X177744646Y-88213828D01*
X177883828Y-88074646D01*
X177999524Y-87915405D01*
X178088884Y-87740025D01*
X178149709Y-87552826D01*
X178157436Y-87504038D01*
X178180500Y-87358422D01*
X178180500Y-86161577D01*
X178149709Y-85967173D01*
X178095862Y-85801451D01*
X178088884Y-85779975D01*
X178088882Y-85779972D01*
X178088882Y-85779970D01*
X178035491Y-85675185D01*
X177999524Y-85604595D01*
X177883828Y-85445354D01*
X177744646Y-85306172D01*
X177585405Y-85190476D01*
X177539254Y-85166961D01*
X177410029Y-85101117D01*
X177222826Y-85040290D01*
X177028422Y-85009500D01*
X177028417Y-85009500D01*
X176831583Y-85009500D01*
X176831578Y-85009500D01*
X176637173Y-85040290D01*
X176449970Y-85101117D01*
X176274594Y-85190476D01*
X176183741Y-85256485D01*
X176115354Y-85306172D01*
X176115352Y-85306174D01*
X176115351Y-85306174D01*
X175976174Y-85445351D01*
X175976174Y-85445352D01*
X175976172Y-85445354D01*
X175947029Y-85485466D01*
X175860476Y-85604594D01*
X175786503Y-85749774D01*
X175738528Y-85800570D01*
X175670707Y-85817365D01*
X175604572Y-85794827D01*
X175603132Y-85793797D01*
X175544703Y-85751346D01*
X175443266Y-85677647D01*
X175399800Y-85655500D01*
X175265780Y-85587213D01*
X175076342Y-85525661D01*
X174928782Y-85502290D01*
X174879597Y-85494500D01*
X174680403Y-85494500D01*
X174614822Y-85504887D01*
X174483659Y-85525661D01*
X174483656Y-85525661D01*
X174294219Y-85587213D01*
X174116733Y-85677647D01*
X174078824Y-85705190D01*
X173955582Y-85794731D01*
X173955580Y-85794733D01*
X173955579Y-85794733D01*
X173867681Y-85882632D01*
X173806358Y-85916117D01*
X173736666Y-85911133D01*
X173692319Y-85882632D01*
X173604420Y-85794733D01*
X173604418Y-85794731D01*
X173443266Y-85677647D01*
X173399800Y-85655500D01*
X173265780Y-85587213D01*
X173076342Y-85525661D01*
X172928782Y-85502290D01*
X172879597Y-85494500D01*
X172680403Y-85494500D01*
X172614822Y-85504887D01*
X172483659Y-85525661D01*
X172483656Y-85525661D01*
X172294219Y-85587213D01*
X172116733Y-85677647D01*
X172078824Y-85705190D01*
X171955582Y-85794731D01*
X171955580Y-85794733D01*
X171955579Y-85794733D01*
X171867681Y-85882632D01*
X171806358Y-85916117D01*
X171736666Y-85911133D01*
X171692319Y-85882632D01*
X171604420Y-85794733D01*
X171604418Y-85794731D01*
X171443266Y-85677647D01*
X171399800Y-85655500D01*
X171265780Y-85587213D01*
X171076342Y-85525661D01*
X170928782Y-85502290D01*
X170879597Y-85494500D01*
X170680403Y-85494500D01*
X170614822Y-85504887D01*
X170483659Y-85525661D01*
X170483656Y-85525661D01*
X170294219Y-85587213D01*
X170116730Y-85677649D01*
X169956866Y-85793797D01*
X169891060Y-85817277D01*
X169823006Y-85801451D01*
X169774311Y-85751346D01*
X169773496Y-85749774D01*
X169744017Y-85691918D01*
X169699524Y-85604595D01*
X169583828Y-85445354D01*
X169444646Y-85306172D01*
X169285405Y-85190476D01*
X169239254Y-85166961D01*
X169110029Y-85101117D01*
X168922826Y-85040290D01*
X168728422Y-85009500D01*
X168728417Y-85009500D01*
X168531583Y-85009500D01*
X168531578Y-85009500D01*
X168337173Y-85040290D01*
X168149970Y-85101117D01*
X167974594Y-85190476D01*
X167883741Y-85256485D01*
X167815354Y-85306172D01*
X167815352Y-85306174D01*
X167815351Y-85306174D01*
X167676174Y-85445351D01*
X167676174Y-85445352D01*
X167676172Y-85445354D01*
X167647029Y-85485466D01*
X167560476Y-85604594D01*
X167471117Y-85779970D01*
X167410290Y-85967173D01*
X167379500Y-86161577D01*
X166556693Y-86161577D01*
X166578477Y-86094534D01*
X166610500Y-85892352D01*
X166610500Y-85687648D01*
X166605408Y-85655500D01*
X166578477Y-85485465D01*
X166515218Y-85290776D01*
X166452130Y-85166961D01*
X166422287Y-85108390D01*
X166384269Y-85056062D01*
X166301971Y-84942786D01*
X166201366Y-84842181D01*
X166167881Y-84780858D01*
X166172865Y-84711166D01*
X166214737Y-84655233D01*
X166280201Y-84630816D01*
X166289047Y-84630500D01*
X181694108Y-84630500D01*
X181753039Y-84630500D01*
X181766922Y-84631279D01*
X181863940Y-84642211D01*
X181891009Y-84648390D01*
X181976555Y-84678324D01*
X182001571Y-84690371D01*
X182078309Y-84738588D01*
X182100019Y-84755901D01*
X182164098Y-84819980D01*
X182181411Y-84841690D01*
X182229628Y-84918428D01*
X182241675Y-84943444D01*
X182271609Y-85028990D01*
X182277788Y-85056060D01*
X182288720Y-85153076D01*
X182289500Y-85166961D01*
X182289500Y-88209462D01*
X182320655Y-88426157D01*
X182320658Y-88426167D01*
X182336380Y-88479709D01*
X182382336Y-88636221D01*
X182398975Y-88672656D01*
X182473280Y-88835363D01*
X182473283Y-88835368D01*
X182591641Y-89019536D01*
X182735008Y-89184991D01*
X182900463Y-89328358D01*
X183084636Y-89446719D01*
X183283779Y-89537664D01*
X183493838Y-89599343D01*
X183493839Y-89599343D01*
X183493842Y-89599344D01*
X183558457Y-89608633D01*
X183710537Y-89630500D01*
X183754108Y-89630500D01*
X186694108Y-89630500D01*
X186753039Y-89630500D01*
X186766922Y-89631279D01*
X186863940Y-89642211D01*
X186891009Y-89648390D01*
X186976555Y-89678324D01*
X187001571Y-89690371D01*
X187078309Y-89738588D01*
X187100019Y-89755901D01*
X187164098Y-89819980D01*
X187181411Y-89841690D01*
X187229628Y-89918428D01*
X187241675Y-89943444D01*
X187271609Y-90028990D01*
X187277788Y-90056060D01*
X187288720Y-90153076D01*
X187289500Y-90166961D01*
X187289500Y-90372704D01*
X187269815Y-90439743D01*
X187217011Y-90485498D01*
X187147853Y-90495442D01*
X187084297Y-90466417D01*
X187077819Y-90460385D01*
X187016228Y-90398794D01*
X187016220Y-90398788D01*
X186881023Y-90308452D01*
X186881019Y-90308450D01*
X186730793Y-90246225D01*
X186730783Y-90246222D01*
X186571307Y-90214500D01*
X186571305Y-90214500D01*
X186408695Y-90214500D01*
X186408693Y-90214500D01*
X186249216Y-90246222D01*
X186249206Y-90246225D01*
X186098980Y-90308450D01*
X186098976Y-90308452D01*
X185963779Y-90398788D01*
X185963771Y-90398794D01*
X185848794Y-90513771D01*
X185848788Y-90513779D01*
X185758452Y-90648976D01*
X185758450Y-90648980D01*
X185696225Y-90799206D01*
X185696222Y-90799216D01*
X185664500Y-90958692D01*
X185664500Y-90958695D01*
X185664500Y-91121305D01*
X185664500Y-91121307D01*
X185664499Y-91121307D01*
X185689663Y-91247807D01*
X185683436Y-91317399D01*
X185655727Y-91359680D01*
X184358650Y-92656758D01*
X184297327Y-92690243D01*
X184251571Y-92691550D01*
X184181461Y-92680445D01*
X184112352Y-92669500D01*
X183907648Y-92669500D01*
X183883329Y-92673351D01*
X183705465Y-92701522D01*
X183510776Y-92764781D01*
X183328386Y-92857715D01*
X183162786Y-92978028D01*
X183018028Y-93122786D01*
X182897715Y-93288386D01*
X182804781Y-93470776D01*
X182741522Y-93665465D01*
X182709500Y-93867648D01*
X182709500Y-94072351D01*
X182741522Y-94274534D01*
X182804781Y-94469223D01*
X182897715Y-94651613D01*
X183018028Y-94817213D01*
X183162786Y-94961971D01*
X183317749Y-95074556D01*
X183328390Y-95082287D01*
X183444607Y-95141503D01*
X183510776Y-95175218D01*
X183510778Y-95175218D01*
X183510781Y-95175220D01*
X183555300Y-95189685D01*
X183705465Y-95238477D01*
X183730796Y-95242489D01*
X183907648Y-95270500D01*
X183907649Y-95270500D01*
X184112351Y-95270500D01*
X184112352Y-95270500D01*
X184314534Y-95238477D01*
X184509219Y-95175220D01*
X184691610Y-95082287D01*
X184784590Y-95014732D01*
X184857213Y-94961971D01*
X184857215Y-94961968D01*
X184857219Y-94961966D01*
X185001966Y-94817219D01*
X185001968Y-94817215D01*
X185001971Y-94817213D01*
X185054732Y-94744590D01*
X185122287Y-94651610D01*
X185215220Y-94469219D01*
X185278477Y-94274534D01*
X185310500Y-94072352D01*
X185310500Y-93867648D01*
X185278477Y-93665466D01*
X185262877Y-93617457D01*
X185260883Y-93547618D01*
X185293126Y-93491462D01*
X186975858Y-91808733D01*
X187044312Y-91706285D01*
X187050938Y-91690286D01*
X187094778Y-91635883D01*
X187161071Y-91613816D01*
X187228771Y-91631094D01*
X187276383Y-91682230D01*
X187289500Y-91737737D01*
X187289500Y-121943038D01*
X187288720Y-121956921D01*
X187288720Y-121956923D01*
X187277788Y-122053939D01*
X187271609Y-122081009D01*
X187241675Y-122166555D01*
X187229628Y-122191571D01*
X187181411Y-122268309D01*
X187164098Y-122290019D01*
X187100019Y-122354098D01*
X187078309Y-122371411D01*
X187001571Y-122419628D01*
X186976555Y-122431675D01*
X186891009Y-122461609D01*
X186863939Y-122467788D01*
X186787566Y-122476393D01*
X186766921Y-122478720D01*
X186753039Y-122479500D01*
X124076961Y-122479500D01*
X124063078Y-122478720D01*
X124038941Y-122476000D01*
X123966060Y-122467788D01*
X123938990Y-122461609D01*
X123853444Y-122431675D01*
X123828428Y-122419628D01*
X123751690Y-122371411D01*
X123729980Y-122354098D01*
X123665901Y-122290019D01*
X123648588Y-122268309D01*
X123600371Y-122191571D01*
X123588324Y-122166555D01*
X123558390Y-122081009D01*
X123552211Y-122053937D01*
X123541280Y-121956921D01*
X123540500Y-121943038D01*
X123540500Y-120575737D01*
X123560185Y-120508698D01*
X123612989Y-120462943D01*
X123682147Y-120452999D01*
X123745703Y-120482024D01*
X123764819Y-120502853D01*
X123779203Y-120522652D01*
X123957345Y-120700794D01*
X123957350Y-120700798D01*
X124135117Y-120829952D01*
X124161155Y-120848870D01*
X124304184Y-120921747D01*
X124385616Y-120963239D01*
X124385618Y-120963239D01*
X124385621Y-120963241D01*
X124625215Y-121041090D01*
X124874038Y-121080500D01*
X124874039Y-121080500D01*
X125125961Y-121080500D01*
X125125962Y-121080500D01*
X125374785Y-121041090D01*
X125381174Y-121039013D01*
X125451013Y-121037012D01*
X125507182Y-121069260D01*
X126159707Y-121721786D01*
X126159711Y-121721789D01*
X126290814Y-121809390D01*
X126290827Y-121809397D01*
X126436498Y-121869735D01*
X126436503Y-121869737D01*
X126591153Y-121900499D01*
X126591156Y-121900500D01*
X126591158Y-121900500D01*
X126748842Y-121900500D01*
X159171158Y-121900500D01*
X184682006Y-121900500D01*
X184738299Y-121914014D01*
X184867555Y-121979873D01*
X185032299Y-122033402D01*
X185203389Y-122060500D01*
X185203390Y-122060500D01*
X185376610Y-122060500D01*
X185376611Y-122060500D01*
X185547701Y-122033402D01*
X185712445Y-121979873D01*
X185866788Y-121901232D01*
X186006928Y-121799414D01*
X186129414Y-121676928D01*
X186231232Y-121536788D01*
X186309873Y-121382445D01*
X186363402Y-121217701D01*
X186390500Y-121046611D01*
X186390500Y-120873389D01*
X186363402Y-120702299D01*
X186309873Y-120537555D01*
X186231232Y-120383212D01*
X186129414Y-120243072D01*
X186006928Y-120120586D01*
X185866788Y-120018768D01*
X185712445Y-119940127D01*
X185547701Y-119886598D01*
X185547699Y-119886597D01*
X185547698Y-119886597D01*
X185416271Y-119865781D01*
X185376611Y-119859500D01*
X185203389Y-119859500D01*
X185163728Y-119865781D01*
X185032302Y-119886597D01*
X184867552Y-119940128D01*
X184713211Y-120018768D01*
X184669692Y-120050387D01*
X184573072Y-120120586D01*
X184573070Y-120120588D01*
X184573069Y-120120588D01*
X184450582Y-120243075D01*
X184446726Y-120248384D01*
X184391396Y-120291051D01*
X184346407Y-120299500D01*
X160079500Y-120299500D01*
X160012461Y-120279815D01*
X159966706Y-120227011D01*
X159955500Y-120175500D01*
X159955500Y-119106114D01*
X159975185Y-119039075D01*
X160008575Y-119006398D01*
X160007668Y-119005150D01*
X160011605Y-119002289D01*
X160011610Y-119002287D01*
X160177219Y-118881966D01*
X160321966Y-118737219D01*
X160321968Y-118737215D01*
X160321971Y-118737213D01*
X160391763Y-118641151D01*
X160442287Y-118571610D01*
X160535220Y-118389219D01*
X160598477Y-118194534D01*
X160630500Y-117992352D01*
X160630500Y-117787648D01*
X160598477Y-117585466D01*
X160535220Y-117390781D01*
X160535218Y-117390778D01*
X160535218Y-117390776D01*
X160476375Y-117275292D01*
X160442287Y-117208390D01*
X160395640Y-117144185D01*
X160321971Y-117042786D01*
X160177213Y-116898028D01*
X160011613Y-116777715D01*
X160011612Y-116777714D01*
X160011610Y-116777713D01*
X159954653Y-116748691D01*
X159829223Y-116684781D01*
X159634534Y-116621522D01*
X159459995Y-116593878D01*
X159432352Y-116589500D01*
X159227648Y-116589500D01*
X159203329Y-116593351D01*
X159025465Y-116621522D01*
X158830776Y-116684781D01*
X158648386Y-116777715D01*
X158482786Y-116898028D01*
X158338028Y-117042786D01*
X158217715Y-117208386D01*
X158124781Y-117390776D01*
X158061522Y-117585465D01*
X158029500Y-117787648D01*
X158029500Y-117992351D01*
X158061522Y-118194534D01*
X158124781Y-118389223D01*
X158217715Y-118571613D01*
X158338028Y-118737213D01*
X158338034Y-118737219D01*
X158482781Y-118881966D01*
X158648390Y-119002287D01*
X158648394Y-119002289D01*
X158652332Y-119005150D01*
X158651111Y-119006829D01*
X158692155Y-119052177D01*
X158704500Y-119106114D01*
X158704500Y-120175500D01*
X158684815Y-120242539D01*
X158632011Y-120288294D01*
X158580500Y-120299500D01*
X129831077Y-120299500D01*
X129764038Y-120279815D01*
X129718283Y-120227011D01*
X129708339Y-120157853D01*
X129720592Y-120119206D01*
X129733238Y-120094386D01*
X129733238Y-120094382D01*
X129733241Y-120094379D01*
X129811090Y-119854785D01*
X129850500Y-119605962D01*
X129850500Y-119354038D01*
X129811090Y-119105215D01*
X129733241Y-118865621D01*
X129733239Y-118865618D01*
X129733239Y-118865616D01*
X129638917Y-118680500D01*
X129618870Y-118641155D01*
X129568343Y-118571610D01*
X129470798Y-118437350D01*
X129470794Y-118437345D01*
X129292654Y-118259205D01*
X129292649Y-118259201D01*
X129088848Y-118111132D01*
X129088847Y-118111131D01*
X129088845Y-118111130D01*
X129018747Y-118075413D01*
X128864383Y-117996760D01*
X128624785Y-117918910D01*
X128375962Y-117879500D01*
X128124038Y-117879500D01*
X127999626Y-117899205D01*
X127875214Y-117918910D01*
X127635616Y-117996760D01*
X127411151Y-118111132D01*
X127207350Y-118259201D01*
X127207345Y-118259205D01*
X127029205Y-118437345D01*
X127029201Y-118437350D01*
X126881132Y-118641151D01*
X126766760Y-118865616D01*
X126742931Y-118938956D01*
X126703493Y-118996631D01*
X126639134Y-119023829D01*
X126570288Y-119011914D01*
X126518812Y-118964669D01*
X126507069Y-118938956D01*
X126488552Y-118881966D01*
X126483241Y-118865621D01*
X126483239Y-118865618D01*
X126483239Y-118865616D01*
X126388917Y-118680500D01*
X126368870Y-118641155D01*
X126318343Y-118571610D01*
X126220798Y-118437350D01*
X126220794Y-118437345D01*
X126042654Y-118259205D01*
X126042649Y-118259201D01*
X125838848Y-118111132D01*
X125838847Y-118111131D01*
X125838845Y-118111130D01*
X125768747Y-118075413D01*
X125614383Y-117996760D01*
X125374785Y-117918910D01*
X125125962Y-117879500D01*
X124874038Y-117879500D01*
X124749626Y-117899205D01*
X124625214Y-117918910D01*
X124385616Y-117996760D01*
X124161151Y-118111132D01*
X123957350Y-118259201D01*
X123957345Y-118259205D01*
X123779205Y-118437345D01*
X123764818Y-118457148D01*
X123709487Y-118499813D01*
X123639874Y-118505792D01*
X123578079Y-118473186D01*
X123543722Y-118412347D01*
X123540500Y-118384262D01*
X123540500Y-110898013D01*
X123560185Y-110830974D01*
X123612989Y-110785219D01*
X123682147Y-110775275D01*
X123729594Y-110792472D01*
X123830665Y-110854814D01*
X123997202Y-110909999D01*
X124099990Y-110920500D01*
X124099995Y-110920500D01*
X125900005Y-110920500D01*
X125900010Y-110920500D01*
X126002798Y-110909999D01*
X126169335Y-110854814D01*
X126318656Y-110762712D01*
X126442712Y-110638656D01*
X126519462Y-110514223D01*
X126571409Y-110467501D01*
X126640372Y-110456278D01*
X126704454Y-110484122D01*
X126730536Y-110514222D01*
X126807288Y-110638656D01*
X126931344Y-110762712D01*
X127080665Y-110854814D01*
X127247202Y-110909999D01*
X127349990Y-110920500D01*
X127349995Y-110920500D01*
X129150005Y-110920500D01*
X129150010Y-110920500D01*
X129252798Y-110909999D01*
X129419335Y-110854814D01*
X129568656Y-110762712D01*
X129692712Y-110638656D01*
X129784814Y-110489335D01*
X129839999Y-110322798D01*
X129850500Y-110220010D01*
X129850500Y-108419990D01*
X129839999Y-108317202D01*
X129784814Y-108150665D01*
X129692712Y-108001344D01*
X129568656Y-107877288D01*
X129475890Y-107820070D01*
X129419337Y-107785187D01*
X129419332Y-107785185D01*
X129417863Y-107784698D01*
X129252798Y-107730001D01*
X129252796Y-107730000D01*
X129150017Y-107719500D01*
X129150010Y-107719500D01*
X127349990Y-107719500D01*
X127349982Y-107719500D01*
X127247203Y-107730000D01*
X127247202Y-107730001D01*
X127211034Y-107741986D01*
X127080667Y-107785185D01*
X127080662Y-107785187D01*
X126931342Y-107877289D01*
X126807289Y-108001342D01*
X126730539Y-108125774D01*
X126678591Y-108172499D01*
X126609628Y-108183720D01*
X126545546Y-108155877D01*
X126519461Y-108125774D01*
X126485951Y-108071446D01*
X126442712Y-108001344D01*
X126318656Y-107877288D01*
X126225890Y-107820070D01*
X126169337Y-107785187D01*
X126169332Y-107785185D01*
X126167863Y-107784698D01*
X126002798Y-107730001D01*
X126002796Y-107730000D01*
X125900017Y-107719500D01*
X125900010Y-107719500D01*
X124099990Y-107719500D01*
X124099982Y-107719500D01*
X123997203Y-107730000D01*
X123997202Y-107730001D01*
X123961034Y-107741986D01*
X123830667Y-107785185D01*
X123830658Y-107785189D01*
X123729596Y-107847525D01*
X123662204Y-107865965D01*
X123595540Y-107845042D01*
X123550771Y-107791400D01*
X123540500Y-107741986D01*
X123540500Y-99398853D01*
X123560185Y-99331814D01*
X123612989Y-99286059D01*
X123682147Y-99276115D01*
X123729597Y-99293315D01*
X123780656Y-99324809D01*
X123780659Y-99324810D01*
X123780665Y-99324814D01*
X123947202Y-99379999D01*
X124049990Y-99390500D01*
X124210500Y-99390500D01*
X124277539Y-99410185D01*
X124323294Y-99462989D01*
X124334500Y-99514500D01*
X124334500Y-100461610D01*
X124358535Y-100582444D01*
X124358537Y-100582452D01*
X124372347Y-100615792D01*
X124405688Y-100696286D01*
X124432243Y-100736027D01*
X124436466Y-100742347D01*
X124436468Y-100742351D01*
X124474141Y-100798733D01*
X124565586Y-100890178D01*
X124565608Y-100890198D01*
X125275892Y-101600482D01*
X125309377Y-101661805D01*
X125304393Y-101731497D01*
X125298697Y-101744455D01*
X125292104Y-101757393D01*
X125292104Y-101757394D01*
X125223985Y-101967047D01*
X125189500Y-102184778D01*
X125189500Y-102405221D01*
X125223985Y-102622952D01*
X125292103Y-102832603D01*
X125292104Y-102832606D01*
X125392187Y-103029025D01*
X125521752Y-103207358D01*
X125521756Y-103207363D01*
X125572316Y-103257923D01*
X125605801Y-103319246D01*
X125600817Y-103388938D01*
X125558945Y-103444871D01*
X125527969Y-103461785D01*
X125447918Y-103491643D01*
X125447906Y-103491649D01*
X125332812Y-103577809D01*
X125332809Y-103577812D01*
X125246649Y-103692906D01*
X125246645Y-103692913D01*
X125196403Y-103827620D01*
X125196401Y-103827627D01*
X125190000Y-103887155D01*
X125190000Y-104585000D01*
X126214722Y-104585000D01*
X126170667Y-104661306D01*
X126140000Y-104775756D01*
X126140000Y-104894244D01*
X126170667Y-105008694D01*
X126214722Y-105085000D01*
X125190000Y-105085000D01*
X125190000Y-105782844D01*
X125196401Y-105842372D01*
X125196403Y-105842379D01*
X125246645Y-105977086D01*
X125246649Y-105977093D01*
X125332809Y-106092187D01*
X125332812Y-106092190D01*
X125447906Y-106178350D01*
X125447913Y-106178354D01*
X125582620Y-106228596D01*
X125582627Y-106228598D01*
X125642155Y-106234999D01*
X125642172Y-106235000D01*
X126340000Y-106235000D01*
X126340000Y-105210277D01*
X126416306Y-105254333D01*
X126530756Y-105285000D01*
X126649244Y-105285000D01*
X126763694Y-105254333D01*
X126840000Y-105210277D01*
X126840000Y-106235000D01*
X127537828Y-106235000D01*
X127537844Y-106234999D01*
X127597372Y-106228598D01*
X127597379Y-106228596D01*
X127732086Y-106178354D01*
X127732093Y-106178350D01*
X127847187Y-106092190D01*
X127847190Y-106092187D01*
X127933350Y-105977093D01*
X127933354Y-105977086D01*
X127983596Y-105842379D01*
X127983598Y-105842372D01*
X127989999Y-105782844D01*
X127990000Y-105782827D01*
X127990000Y-105085000D01*
X126965278Y-105085000D01*
X127009333Y-105008694D01*
X127040000Y-104894244D01*
X127040000Y-104775756D01*
X127009333Y-104661306D01*
X126965278Y-104585000D01*
X127990000Y-104585000D01*
X127990000Y-103887172D01*
X127989999Y-103887155D01*
X127983598Y-103827627D01*
X127983596Y-103827620D01*
X127933354Y-103692913D01*
X127933350Y-103692906D01*
X127847190Y-103577812D01*
X127847187Y-103577809D01*
X127732093Y-103491649D01*
X127732087Y-103491646D01*
X127652030Y-103461786D01*
X127596097Y-103419914D01*
X127571680Y-103354450D01*
X127586532Y-103286177D01*
X127607681Y-103257925D01*
X127658242Y-103207365D01*
X127787815Y-103029022D01*
X127887895Y-102832606D01*
X127956015Y-102622951D01*
X127990500Y-102405222D01*
X127990500Y-102184778D01*
X127956015Y-101967049D01*
X127887895Y-101757394D01*
X127887895Y-101757393D01*
X127853237Y-101689375D01*
X127787815Y-101560978D01*
X127734538Y-101487648D01*
X127658247Y-101382641D01*
X127658243Y-101382636D01*
X127502363Y-101226756D01*
X127502358Y-101226752D01*
X127324025Y-101097187D01*
X127324024Y-101097186D01*
X127324022Y-101097185D01*
X127258450Y-101063774D01*
X127127606Y-100997104D01*
X127127603Y-100997103D01*
X126917952Y-100928985D01*
X126759268Y-100903852D01*
X126700222Y-100894500D01*
X126479778Y-100894500D01*
X126479777Y-100894500D01*
X126420726Y-100903852D01*
X126351433Y-100894896D01*
X126313649Y-100869059D01*
X125621819Y-100177229D01*
X125588334Y-100115906D01*
X125585500Y-100089548D01*
X125585500Y-99514500D01*
X125605185Y-99447461D01*
X125657989Y-99401706D01*
X125709500Y-99390500D01*
X125850005Y-99390500D01*
X125850010Y-99390500D01*
X125952798Y-99379999D01*
X126119335Y-99324814D01*
X126268656Y-99232712D01*
X126392712Y-99108656D01*
X126469462Y-98984223D01*
X126521409Y-98937501D01*
X126590372Y-98926278D01*
X126654454Y-98954122D01*
X126680536Y-98984222D01*
X126757288Y-99108656D01*
X126881344Y-99232712D01*
X127030665Y-99324814D01*
X127197202Y-99379999D01*
X127299990Y-99390500D01*
X127299995Y-99390500D01*
X129100005Y-99390500D01*
X129100010Y-99390500D01*
X129202798Y-99379999D01*
X129369335Y-99324814D01*
X129518656Y-99232712D01*
X129642712Y-99108656D01*
X129734814Y-98959335D01*
X129789999Y-98792798D01*
X129800500Y-98690010D01*
X129800500Y-96889990D01*
X129789999Y-96787202D01*
X129734814Y-96620665D01*
X129642712Y-96471344D01*
X129518656Y-96347288D01*
X129369335Y-96255186D01*
X129202798Y-96200001D01*
X129202796Y-96200000D01*
X129100017Y-96189500D01*
X129100010Y-96189500D01*
X127299990Y-96189500D01*
X127299982Y-96189500D01*
X127197203Y-96200000D01*
X127197202Y-96200001D01*
X127114669Y-96227349D01*
X127030667Y-96255185D01*
X127030662Y-96255187D01*
X126881342Y-96347289D01*
X126757289Y-96471342D01*
X126680539Y-96595774D01*
X126628591Y-96642499D01*
X126559628Y-96653720D01*
X126495546Y-96625877D01*
X126469461Y-96595774D01*
X126392712Y-96471344D01*
X126268656Y-96347288D01*
X126119335Y-96255186D01*
X125952798Y-96200001D01*
X125952796Y-96200000D01*
X125850017Y-96189500D01*
X125850010Y-96189500D01*
X124049990Y-96189500D01*
X124049982Y-96189500D01*
X123947203Y-96200000D01*
X123947202Y-96200001D01*
X123864669Y-96227349D01*
X123780667Y-96255185D01*
X123780658Y-96255189D01*
X123729596Y-96286685D01*
X123662204Y-96305125D01*
X123595540Y-96284202D01*
X123550771Y-96230560D01*
X123540500Y-96181146D01*
X123540500Y-88783311D01*
X123560185Y-88716272D01*
X123612989Y-88670517D01*
X123682147Y-88660573D01*
X123745703Y-88689598D01*
X123752181Y-88695630D01*
X123907345Y-88850794D01*
X123907350Y-88850798D01*
X124021482Y-88933719D01*
X124111155Y-88998870D01*
X124206707Y-89047556D01*
X124335616Y-89113239D01*
X124335618Y-89113239D01*
X124335621Y-89113241D01*
X124575215Y-89191090D01*
X124824038Y-89230500D01*
X124824039Y-89230500D01*
X125075961Y-89230500D01*
X125075962Y-89230500D01*
X125324785Y-89191090D01*
X125564379Y-89113241D01*
X125788845Y-88998870D01*
X125992656Y-88850793D01*
X126170793Y-88672656D01*
X126318870Y-88468845D01*
X126433241Y-88244379D01*
X126457069Y-88171041D01*
X126496507Y-88113368D01*
X126560866Y-88086170D01*
X126629712Y-88098085D01*
X126681188Y-88145329D01*
X126692931Y-88171043D01*
X126716760Y-88244383D01*
X126760142Y-88329523D01*
X126809384Y-88426167D01*
X126831132Y-88468848D01*
X126979201Y-88672649D01*
X126979205Y-88672654D01*
X127157345Y-88850794D01*
X127157350Y-88850798D01*
X127271482Y-88933719D01*
X127361155Y-88998870D01*
X127456707Y-89047556D01*
X127585616Y-89113239D01*
X127585618Y-89113239D01*
X127585621Y-89113241D01*
X127825215Y-89191090D01*
X128074038Y-89230500D01*
X128074039Y-89230500D01*
X128325961Y-89230500D01*
X128325962Y-89230500D01*
X128574785Y-89191090D01*
X128814379Y-89113241D01*
X129038845Y-88998870D01*
X129242656Y-88850793D01*
X129420793Y-88672656D01*
X129568870Y-88468845D01*
X129683241Y-88244379D01*
X129761090Y-88004785D01*
X129800500Y-87755962D01*
X129800500Y-87504038D01*
X129761090Y-87255215D01*
X129683241Y-87015621D01*
X129683239Y-87015618D01*
X129683239Y-87015616D01*
X129618124Y-86887821D01*
X129568870Y-86791155D01*
X129568868Y-86791153D01*
X129568865Y-86791146D01*
X129566324Y-86786999D01*
X129567570Y-86786235D01*
X129546285Y-86726582D01*
X129562109Y-86658528D01*
X129612214Y-86609832D01*
X129670083Y-86595501D01*
X155799549Y-86595501D01*
X155866588Y-86615186D01*
X155887230Y-86631820D01*
X158708181Y-89452771D01*
X158741666Y-89514094D01*
X158744500Y-89540452D01*
X158744500Y-102564864D01*
X158724815Y-102631903D01*
X158672011Y-102677658D01*
X158602853Y-102687602D01*
X158582182Y-102682795D01*
X158406342Y-102625661D01*
X158258782Y-102602290D01*
X158209597Y-102594500D01*
X158010403Y-102594500D01*
X157958517Y-102602718D01*
X157813659Y-102625661D01*
X157813656Y-102625661D01*
X157624219Y-102687213D01*
X157446733Y-102777647D01*
X157354790Y-102844447D01*
X157285582Y-102894731D01*
X157285580Y-102894733D01*
X157285579Y-102894733D01*
X157144733Y-103035579D01*
X157144733Y-103035580D01*
X157144731Y-103035582D01*
X157114121Y-103077713D01*
X157027647Y-103196733D01*
X156937213Y-103374219D01*
X156875661Y-103563656D01*
X156875661Y-103563659D01*
X156844500Y-103760403D01*
X156844500Y-103959596D01*
X156875661Y-104156340D01*
X156875661Y-104156343D01*
X156937213Y-104345780D01*
X157003008Y-104474910D01*
X157027647Y-104523266D01*
X157144731Y-104684418D01*
X157144733Y-104684420D01*
X157193181Y-104732868D01*
X157226666Y-104794191D01*
X157229500Y-104820549D01*
X157229500Y-114847060D01*
X157209815Y-114914099D01*
X157193181Y-114934741D01*
X155084741Y-117043181D01*
X155023418Y-117076666D01*
X154997060Y-117079500D01*
X133402940Y-117079500D01*
X133335901Y-117059815D01*
X133315259Y-117043181D01*
X132741819Y-116469741D01*
X132708334Y-116408418D01*
X132705500Y-116382060D01*
X132705500Y-115579601D01*
X132725185Y-115512562D01*
X132773206Y-115469116D01*
X132786610Y-115462287D01*
X132952219Y-115341966D01*
X133096966Y-115197219D01*
X133096968Y-115197215D01*
X133096971Y-115197213D01*
X133149732Y-115124590D01*
X133217287Y-115031610D01*
X133310220Y-114849219D01*
X133373477Y-114654534D01*
X133405500Y-114452352D01*
X133405500Y-114247648D01*
X133373477Y-114045466D01*
X133310220Y-113850781D01*
X133310218Y-113850778D01*
X133310218Y-113850776D01*
X133276503Y-113784607D01*
X133217287Y-113668390D01*
X133209556Y-113657749D01*
X133096971Y-113502786D01*
X132952213Y-113358028D01*
X132786614Y-113237715D01*
X132780006Y-113234348D01*
X132693917Y-113190483D01*
X132643123Y-113142511D01*
X132626328Y-113074690D01*
X132648865Y-113008555D01*
X132693917Y-112969516D01*
X132786610Y-112922287D01*
X132807770Y-112906913D01*
X132952213Y-112801971D01*
X132952215Y-112801968D01*
X132952219Y-112801966D01*
X133096966Y-112657219D01*
X133096968Y-112657215D01*
X133096971Y-112657213D01*
X133149732Y-112584590D01*
X133217287Y-112491610D01*
X133310220Y-112309219D01*
X133373477Y-112114534D01*
X133405500Y-111912352D01*
X133405500Y-111707648D01*
X133383778Y-111570500D01*
X133373477Y-111505465D01*
X133344127Y-111415137D01*
X133310220Y-111310781D01*
X133310218Y-111310778D01*
X133310218Y-111310776D01*
X133217419Y-111128650D01*
X133217287Y-111128390D01*
X133209167Y-111117213D01*
X133096971Y-110962786D01*
X132952213Y-110818028D01*
X132786614Y-110697715D01*
X132780006Y-110694348D01*
X132693917Y-110650483D01*
X132643123Y-110602511D01*
X132626328Y-110534690D01*
X132648865Y-110468555D01*
X132693917Y-110429516D01*
X132786610Y-110382287D01*
X132807770Y-110366913D01*
X132952213Y-110261971D01*
X132952215Y-110261968D01*
X132952219Y-110261966D01*
X133096966Y-110117219D01*
X133096968Y-110117215D01*
X133096971Y-110117213D01*
X133149732Y-110044590D01*
X133217287Y-109951610D01*
X133310220Y-109769219D01*
X133373477Y-109574534D01*
X133405500Y-109372352D01*
X133405500Y-109167648D01*
X133399191Y-109127816D01*
X133373477Y-108965465D01*
X133310218Y-108770776D01*
X133276503Y-108704607D01*
X133217287Y-108588390D01*
X133209556Y-108577749D01*
X133096971Y-108422786D01*
X132952213Y-108278028D01*
X132786614Y-108157715D01*
X132772781Y-108150667D01*
X132693917Y-108110483D01*
X132643123Y-108062511D01*
X132626328Y-107994690D01*
X132648865Y-107928555D01*
X132693917Y-107889516D01*
X132786610Y-107842287D01*
X132856651Y-107791400D01*
X132952213Y-107721971D01*
X132952215Y-107721968D01*
X132952219Y-107721966D01*
X133096966Y-107577219D01*
X133096968Y-107577215D01*
X133096971Y-107577213D01*
X133149732Y-107504590D01*
X133217287Y-107411610D01*
X133310220Y-107229219D01*
X133373477Y-107034534D01*
X133405500Y-106832352D01*
X133405500Y-106627648D01*
X133373477Y-106425466D01*
X133310220Y-106230781D01*
X133310218Y-106230778D01*
X133310218Y-106230776D01*
X133239604Y-106092190D01*
X133217287Y-106048390D01*
X133209556Y-106037749D01*
X133096971Y-105882786D01*
X132952213Y-105738028D01*
X132786614Y-105617715D01*
X132780006Y-105614348D01*
X132693917Y-105570483D01*
X132643123Y-105522511D01*
X132626328Y-105454690D01*
X132648865Y-105388555D01*
X132693917Y-105349516D01*
X132786610Y-105302287D01*
X132852614Y-105254333D01*
X132952213Y-105181971D01*
X132952215Y-105181968D01*
X132952219Y-105181966D01*
X133096966Y-105037219D01*
X133096968Y-105037215D01*
X133096971Y-105037213D01*
X133149732Y-104964590D01*
X133217287Y-104871610D01*
X133310220Y-104689219D01*
X133373477Y-104494534D01*
X133405500Y-104292352D01*
X133405500Y-104087648D01*
X133383555Y-103949096D01*
X133373477Y-103885465D01*
X133336253Y-103770903D01*
X133310220Y-103690781D01*
X133310218Y-103690778D01*
X133310218Y-103690776D01*
X133276503Y-103624607D01*
X133217287Y-103508390D01*
X133205120Y-103491643D01*
X133096971Y-103342786D01*
X132952213Y-103198028D01*
X132786614Y-103077715D01*
X132703917Y-103035579D01*
X132693917Y-103030483D01*
X132643123Y-102982511D01*
X132626328Y-102914690D01*
X132648865Y-102848555D01*
X132693917Y-102809516D01*
X132786610Y-102762287D01*
X132880475Y-102694091D01*
X132952213Y-102641971D01*
X132952215Y-102641968D01*
X132952219Y-102641966D01*
X133096966Y-102497219D01*
X133096968Y-102497215D01*
X133096971Y-102497213D01*
X133163806Y-102405221D01*
X133217287Y-102331610D01*
X133310220Y-102149219D01*
X133373477Y-101954534D01*
X133405500Y-101752352D01*
X133405500Y-101547648D01*
X133373477Y-101345466D01*
X133353981Y-101285465D01*
X133310218Y-101150776D01*
X133265889Y-101063777D01*
X133217287Y-100968390D01*
X133177579Y-100913736D01*
X133096971Y-100802786D01*
X132952213Y-100658028D01*
X132786614Y-100537715D01*
X132780006Y-100534348D01*
X132693917Y-100490483D01*
X132643123Y-100442511D01*
X132626328Y-100374690D01*
X132648865Y-100308555D01*
X132693917Y-100269516D01*
X132786610Y-100222287D01*
X132898617Y-100140910D01*
X132952213Y-100101971D01*
X132952215Y-100101968D01*
X132952219Y-100101966D01*
X133096966Y-99957219D01*
X133096968Y-99957215D01*
X133096971Y-99957213D01*
X133153812Y-99878976D01*
X133217287Y-99791610D01*
X133310220Y-99609219D01*
X133373477Y-99414534D01*
X133405500Y-99212352D01*
X133405500Y-99007648D01*
X133373477Y-98805466D01*
X133369360Y-98792796D01*
X133310218Y-98610776D01*
X133276503Y-98544607D01*
X133217287Y-98428390D01*
X133209556Y-98417749D01*
X133096971Y-98262786D01*
X133065736Y-98231551D01*
X133032251Y-98170228D01*
X133037235Y-98100536D01*
X133079107Y-98044603D01*
X133110080Y-98027689D01*
X133147331Y-98013796D01*
X133262546Y-97927546D01*
X133348796Y-97812331D01*
X133399091Y-97677483D01*
X133405500Y-97617873D01*
X133405499Y-95522128D01*
X133399091Y-95462517D01*
X133397300Y-95457715D01*
X133352401Y-95337333D01*
X133347417Y-95267641D01*
X133380902Y-95206318D01*
X133442226Y-95172834D01*
X133468583Y-95170000D01*
X153931561Y-95170000D01*
X153998600Y-95189685D01*
X154044355Y-95242489D01*
X154054299Y-95311647D01*
X154025274Y-95375203D01*
X153987856Y-95404485D01*
X153883385Y-95457715D01*
X153717786Y-95578028D01*
X153573028Y-95722786D01*
X153452715Y-95888386D01*
X153359781Y-96070776D01*
X153296522Y-96265465D01*
X153264500Y-96467648D01*
X153264500Y-96672351D01*
X153296522Y-96874534D01*
X153359781Y-97069223D01*
X153452715Y-97251613D01*
X153573028Y-97417213D01*
X153717786Y-97561971D01*
X153872749Y-97674556D01*
X153883390Y-97682287D01*
X153974840Y-97728883D01*
X153976080Y-97729515D01*
X154026876Y-97777490D01*
X154043671Y-97845311D01*
X154021134Y-97911446D01*
X153976080Y-97950485D01*
X153883386Y-97997715D01*
X153717786Y-98118028D01*
X153573028Y-98262786D01*
X153452715Y-98428386D01*
X153359781Y-98610776D01*
X153296522Y-98805465D01*
X153264500Y-99007648D01*
X153264500Y-99212351D01*
X153296522Y-99414534D01*
X153359781Y-99609223D01*
X153402847Y-99693743D01*
X153436450Y-99759693D01*
X153452715Y-99791613D01*
X153573028Y-99957213D01*
X153717786Y-100101971D01*
X153821372Y-100177229D01*
X153883390Y-100222287D01*
X153974840Y-100268883D01*
X153976080Y-100269515D01*
X154026876Y-100317490D01*
X154043671Y-100385311D01*
X154021134Y-100451446D01*
X153976080Y-100490485D01*
X153883386Y-100537715D01*
X153717786Y-100658028D01*
X153573028Y-100802786D01*
X153452715Y-100968386D01*
X153359781Y-101150776D01*
X153296522Y-101345465D01*
X153274003Y-101487648D01*
X153264500Y-101547648D01*
X153264500Y-101752352D01*
X153265299Y-101757394D01*
X153296522Y-101954534D01*
X153359781Y-102149223D01*
X153452715Y-102331613D01*
X153573028Y-102497213D01*
X153717786Y-102641971D01*
X153800806Y-102702287D01*
X153883390Y-102762287D01*
X153948021Y-102795218D01*
X153976080Y-102809515D01*
X154026876Y-102857490D01*
X154043671Y-102925311D01*
X154021134Y-102991446D01*
X153976080Y-103030485D01*
X153883386Y-103077715D01*
X153717786Y-103198028D01*
X153573028Y-103342786D01*
X153452715Y-103508386D01*
X153359781Y-103690776D01*
X153296522Y-103885465D01*
X153264500Y-104087648D01*
X153264500Y-104292351D01*
X153296522Y-104494534D01*
X153359781Y-104689223D01*
X153452715Y-104871613D01*
X153573028Y-105037213D01*
X153717786Y-105181971D01*
X153817386Y-105254333D01*
X153883390Y-105302287D01*
X153974840Y-105348883D01*
X153976080Y-105349515D01*
X154026876Y-105397490D01*
X154043671Y-105465311D01*
X154021134Y-105531446D01*
X153976080Y-105570485D01*
X153883386Y-105617715D01*
X153717786Y-105738028D01*
X153573028Y-105882786D01*
X153452715Y-106048386D01*
X153359781Y-106230776D01*
X153296522Y-106425465D01*
X153264500Y-106627648D01*
X153264500Y-106832351D01*
X153296522Y-107034534D01*
X153359781Y-107229223D01*
X153452715Y-107411613D01*
X153573028Y-107577213D01*
X153717786Y-107721971D01*
X153813349Y-107791400D01*
X153883390Y-107842287D01*
X153974840Y-107888883D01*
X153976080Y-107889515D01*
X154026876Y-107937490D01*
X154043671Y-108005311D01*
X154021134Y-108071446D01*
X153976080Y-108110485D01*
X153883386Y-108157715D01*
X153717786Y-108278028D01*
X153573028Y-108422786D01*
X153452715Y-108588386D01*
X153359781Y-108770776D01*
X153296522Y-108965465D01*
X153264500Y-109167648D01*
X153264500Y-109372351D01*
X153296522Y-109574534D01*
X153359781Y-109769223D01*
X153452715Y-109951613D01*
X153573028Y-110117213D01*
X153717786Y-110261971D01*
X153872749Y-110374556D01*
X153883390Y-110382287D01*
X153955424Y-110418990D01*
X153976629Y-110429795D01*
X154027425Y-110477770D01*
X154044220Y-110545591D01*
X154021682Y-110611726D01*
X153976629Y-110650765D01*
X153883650Y-110698140D01*
X153718105Y-110818417D01*
X153718104Y-110818417D01*
X153573417Y-110963104D01*
X153573417Y-110963105D01*
X153453140Y-111128650D01*
X153360244Y-111310970D01*
X153297009Y-111505586D01*
X153288391Y-111560000D01*
X154389722Y-111560000D01*
X154345667Y-111636306D01*
X154315000Y-111750756D01*
X154315000Y-111869244D01*
X154345667Y-111983694D01*
X154389722Y-112060000D01*
X153288391Y-112060000D01*
X153297009Y-112114413D01*
X153360244Y-112309029D01*
X153453140Y-112491349D01*
X153573417Y-112656894D01*
X153573417Y-112656895D01*
X153718104Y-112801582D01*
X153883652Y-112921861D01*
X153976628Y-112969234D01*
X154027425Y-113017208D01*
X154044220Y-113085029D01*
X154021683Y-113151164D01*
X153976630Y-113190203D01*
X153883388Y-113237713D01*
X153717786Y-113358028D01*
X153573028Y-113502786D01*
X153452715Y-113668386D01*
X153359781Y-113850776D01*
X153296522Y-114045465D01*
X153264500Y-114247648D01*
X153264500Y-114452351D01*
X153296522Y-114654534D01*
X153359781Y-114849223D01*
X153452715Y-115031613D01*
X153573028Y-115197213D01*
X153717786Y-115341971D01*
X153872749Y-115454556D01*
X153883390Y-115462287D01*
X153964499Y-115503614D01*
X154065776Y-115555218D01*
X154065778Y-115555218D01*
X154065781Y-115555220D01*
X154140818Y-115579601D01*
X154260465Y-115618477D01*
X154361557Y-115634488D01*
X154462648Y-115650500D01*
X154462649Y-115650500D01*
X155067351Y-115650500D01*
X155067352Y-115650500D01*
X155269534Y-115618477D01*
X155464219Y-115555220D01*
X155646610Y-115462287D01*
X155739590Y-115394732D01*
X155812213Y-115341971D01*
X155812215Y-115341968D01*
X155812219Y-115341966D01*
X155956966Y-115197219D01*
X155956968Y-115197215D01*
X155956971Y-115197213D01*
X156009732Y-115124590D01*
X156077287Y-115031610D01*
X156170220Y-114849219D01*
X156233477Y-114654534D01*
X156265500Y-114452352D01*
X156265500Y-114247648D01*
X156233477Y-114045466D01*
X156170220Y-113850781D01*
X156170218Y-113850778D01*
X156170218Y-113850776D01*
X156136503Y-113784607D01*
X156077287Y-113668390D01*
X156069556Y-113657749D01*
X155956971Y-113502786D01*
X155812213Y-113358028D01*
X155646611Y-113237713D01*
X155553369Y-113190203D01*
X155502574Y-113142229D01*
X155485779Y-113074407D01*
X155508317Y-113008273D01*
X155553371Y-112969234D01*
X155646347Y-112921861D01*
X155811894Y-112801582D01*
X155811895Y-112801582D01*
X155956582Y-112656895D01*
X155956582Y-112656894D01*
X156076859Y-112491349D01*
X156169755Y-112309029D01*
X156232990Y-112114413D01*
X156241609Y-112060000D01*
X155140278Y-112060000D01*
X155184333Y-111983694D01*
X155215000Y-111869244D01*
X155215000Y-111750756D01*
X155184333Y-111636306D01*
X155140278Y-111560000D01*
X156241609Y-111560000D01*
X156232990Y-111505586D01*
X156169755Y-111310970D01*
X156076859Y-111128650D01*
X155956582Y-110963105D01*
X155956582Y-110963104D01*
X155811895Y-110818417D01*
X155646349Y-110698140D01*
X155553370Y-110650765D01*
X155502574Y-110602790D01*
X155485779Y-110534969D01*
X155508316Y-110468835D01*
X155553370Y-110429795D01*
X155553920Y-110429515D01*
X155646610Y-110382287D01*
X155667770Y-110366913D01*
X155812213Y-110261971D01*
X155812215Y-110261968D01*
X155812219Y-110261966D01*
X155956966Y-110117219D01*
X155956968Y-110117215D01*
X155956971Y-110117213D01*
X156009732Y-110044590D01*
X156077287Y-109951610D01*
X156170220Y-109769219D01*
X156233477Y-109574534D01*
X156265500Y-109372352D01*
X156265500Y-109167648D01*
X156259191Y-109127816D01*
X156233477Y-108965465D01*
X156170218Y-108770776D01*
X156136503Y-108704607D01*
X156077287Y-108588390D01*
X156069556Y-108577749D01*
X155956971Y-108422786D01*
X155812213Y-108278028D01*
X155646614Y-108157715D01*
X155632781Y-108150667D01*
X155553917Y-108110483D01*
X155503123Y-108062511D01*
X155486328Y-107994690D01*
X155508865Y-107928555D01*
X155553917Y-107889516D01*
X155646610Y-107842287D01*
X155716651Y-107791400D01*
X155812213Y-107721971D01*
X155812215Y-107721968D01*
X155812219Y-107721966D01*
X155956966Y-107577219D01*
X155956968Y-107577215D01*
X155956971Y-107577213D01*
X156009732Y-107504590D01*
X156077287Y-107411610D01*
X156170220Y-107229219D01*
X156233477Y-107034534D01*
X156265500Y-106832352D01*
X156265500Y-106627648D01*
X156233477Y-106425466D01*
X156170220Y-106230781D01*
X156170218Y-106230778D01*
X156170218Y-106230776D01*
X156099604Y-106092190D01*
X156077287Y-106048390D01*
X156069556Y-106037749D01*
X155956971Y-105882786D01*
X155812213Y-105738028D01*
X155646614Y-105617715D01*
X155640006Y-105614348D01*
X155553917Y-105570483D01*
X155503123Y-105522511D01*
X155486328Y-105454690D01*
X155508865Y-105388555D01*
X155553917Y-105349516D01*
X155646610Y-105302287D01*
X155712614Y-105254333D01*
X155812213Y-105181971D01*
X155812215Y-105181968D01*
X155812219Y-105181966D01*
X155956966Y-105037219D01*
X155956968Y-105037215D01*
X155956971Y-105037213D01*
X156009732Y-104964590D01*
X156077287Y-104871610D01*
X156170220Y-104689219D01*
X156233477Y-104494534D01*
X156265500Y-104292352D01*
X156265500Y-104087648D01*
X156243555Y-103949096D01*
X156233477Y-103885465D01*
X156196253Y-103770903D01*
X156170220Y-103690781D01*
X156170218Y-103690778D01*
X156170218Y-103690776D01*
X156136503Y-103624607D01*
X156077287Y-103508390D01*
X156065120Y-103491643D01*
X155956971Y-103342786D01*
X155812213Y-103198028D01*
X155646614Y-103077715D01*
X155563917Y-103035579D01*
X155553917Y-103030483D01*
X155503123Y-102982511D01*
X155486328Y-102914690D01*
X155508865Y-102848555D01*
X155553917Y-102809516D01*
X155646610Y-102762287D01*
X155740475Y-102694091D01*
X155812213Y-102641971D01*
X155812215Y-102641968D01*
X155812219Y-102641966D01*
X155956966Y-102497219D01*
X155956968Y-102497215D01*
X155956971Y-102497213D01*
X156023806Y-102405221D01*
X156077287Y-102331610D01*
X156170220Y-102149219D01*
X156233477Y-101954534D01*
X156265500Y-101752352D01*
X156265500Y-101547648D01*
X156233477Y-101345466D01*
X156213981Y-101285465D01*
X156170218Y-101150776D01*
X156125889Y-101063777D01*
X156077287Y-100968390D01*
X156037579Y-100913736D01*
X155956971Y-100802786D01*
X155812213Y-100658028D01*
X155646614Y-100537715D01*
X155640006Y-100534348D01*
X155553917Y-100490483D01*
X155503123Y-100442511D01*
X155486328Y-100374690D01*
X155508865Y-100308555D01*
X155553917Y-100269516D01*
X155646610Y-100222287D01*
X155758617Y-100140910D01*
X155812213Y-100101971D01*
X155812215Y-100101968D01*
X155812219Y-100101966D01*
X155956966Y-99957219D01*
X155956968Y-99957215D01*
X155956971Y-99957213D01*
X156013812Y-99878976D01*
X156077287Y-99791610D01*
X156170220Y-99609219D01*
X156233477Y-99414534D01*
X156265500Y-99212352D01*
X156265500Y-99007648D01*
X156233477Y-98805466D01*
X156229360Y-98792796D01*
X156170218Y-98610776D01*
X156136503Y-98544607D01*
X156077287Y-98428390D01*
X156069556Y-98417749D01*
X155956971Y-98262786D01*
X155812213Y-98118028D01*
X155646614Y-97997715D01*
X155640006Y-97994348D01*
X155553917Y-97950483D01*
X155503123Y-97902511D01*
X155486328Y-97834690D01*
X155508865Y-97768555D01*
X155553917Y-97729516D01*
X155646610Y-97682287D01*
X155667770Y-97666913D01*
X155812213Y-97561971D01*
X155812215Y-97561968D01*
X155812219Y-97561966D01*
X155956966Y-97417219D01*
X155956968Y-97417215D01*
X155956971Y-97417213D01*
X156009732Y-97344590D01*
X156077287Y-97251610D01*
X156170220Y-97069219D01*
X156233477Y-96874534D01*
X156265500Y-96672352D01*
X156265500Y-96467648D01*
X156246437Y-96347288D01*
X156233477Y-96265465D01*
X156170218Y-96070776D01*
X156136503Y-96004607D01*
X156077287Y-95888390D01*
X156069556Y-95877749D01*
X155956971Y-95722786D01*
X155812213Y-95578028D01*
X155646614Y-95457715D01*
X155542144Y-95404485D01*
X155491348Y-95356510D01*
X155474553Y-95288689D01*
X155497090Y-95222555D01*
X155551805Y-95179103D01*
X155598439Y-95170000D01*
X156155000Y-95170000D01*
X156155000Y-88370000D01*
X130555000Y-88370000D01*
X130555000Y-95161102D01*
X130535315Y-95228141D01*
X130530267Y-95235413D01*
X130461203Y-95327669D01*
X130461202Y-95327671D01*
X130410908Y-95462517D01*
X130404501Y-95522116D01*
X130404501Y-95522123D01*
X130404500Y-95522135D01*
X130404500Y-97617870D01*
X130404501Y-97617876D01*
X130410908Y-97677483D01*
X130461202Y-97812328D01*
X130461206Y-97812335D01*
X130547452Y-97927544D01*
X130547455Y-97927547D01*
X130662664Y-98013793D01*
X130662673Y-98013798D01*
X130699914Y-98027688D01*
X130755848Y-98069559D01*
X130780266Y-98135023D01*
X130765415Y-98203296D01*
X130744265Y-98231550D01*
X130713027Y-98262787D01*
X130592715Y-98428386D01*
X130499781Y-98610776D01*
X130436522Y-98805465D01*
X130404500Y-99007648D01*
X130404500Y-99212351D01*
X130436522Y-99414534D01*
X130499781Y-99609223D01*
X130542847Y-99693743D01*
X130576450Y-99759693D01*
X130592715Y-99791613D01*
X130713028Y-99957213D01*
X130857786Y-100101971D01*
X130961372Y-100177229D01*
X131023390Y-100222287D01*
X131114840Y-100268883D01*
X131116080Y-100269515D01*
X131166876Y-100317490D01*
X131183671Y-100385311D01*
X131161134Y-100451446D01*
X131116080Y-100490485D01*
X131023386Y-100537715D01*
X130857786Y-100658028D01*
X130713028Y-100802786D01*
X130592715Y-100968386D01*
X130499781Y-101150776D01*
X130436522Y-101345465D01*
X130414003Y-101487648D01*
X130404500Y-101547648D01*
X130404500Y-101752352D01*
X130405299Y-101757394D01*
X130436522Y-101954534D01*
X130499781Y-102149223D01*
X130592715Y-102331613D01*
X130713028Y-102497213D01*
X130857786Y-102641971D01*
X130940806Y-102702287D01*
X131023390Y-102762287D01*
X131088021Y-102795218D01*
X131116080Y-102809515D01*
X131166876Y-102857490D01*
X131183671Y-102925311D01*
X131161134Y-102991446D01*
X131116080Y-103030485D01*
X131023386Y-103077715D01*
X130857786Y-103198028D01*
X130713028Y-103342786D01*
X130592715Y-103508386D01*
X130499781Y-103690776D01*
X130436522Y-103885465D01*
X130404500Y-104087648D01*
X130404500Y-104292351D01*
X130436522Y-104494534D01*
X130499781Y-104689223D01*
X130592715Y-104871613D01*
X130713028Y-105037213D01*
X130857786Y-105181971D01*
X130957386Y-105254333D01*
X131023390Y-105302287D01*
X131114840Y-105348883D01*
X131116080Y-105349515D01*
X131166876Y-105397490D01*
X131183671Y-105465311D01*
X131161134Y-105531446D01*
X131116080Y-105570485D01*
X131023386Y-105617715D01*
X130857786Y-105738028D01*
X130713028Y-105882786D01*
X130592715Y-106048386D01*
X130499781Y-106230776D01*
X130436522Y-106425465D01*
X130404500Y-106627648D01*
X130404500Y-106832351D01*
X130436522Y-107034534D01*
X130499781Y-107229223D01*
X130592715Y-107411613D01*
X130713028Y-107577213D01*
X130857786Y-107721971D01*
X130953349Y-107791400D01*
X131023390Y-107842287D01*
X131114840Y-107888883D01*
X131116080Y-107889515D01*
X131166876Y-107937490D01*
X131183671Y-108005311D01*
X131161134Y-108071446D01*
X131116080Y-108110485D01*
X131023386Y-108157715D01*
X130857786Y-108278028D01*
X130713028Y-108422786D01*
X130592715Y-108588386D01*
X130499781Y-108770776D01*
X130436522Y-108965465D01*
X130404500Y-109167648D01*
X130404500Y-109372351D01*
X130436522Y-109574534D01*
X130499781Y-109769223D01*
X130592715Y-109951613D01*
X130713028Y-110117213D01*
X130857786Y-110261971D01*
X131012749Y-110374556D01*
X131023390Y-110382287D01*
X131114840Y-110428883D01*
X131116080Y-110429515D01*
X131166876Y-110477490D01*
X131183671Y-110545311D01*
X131161134Y-110611446D01*
X131116080Y-110650485D01*
X131023386Y-110697715D01*
X130857786Y-110818028D01*
X130713028Y-110962786D01*
X130592715Y-111128386D01*
X130499781Y-111310776D01*
X130436522Y-111505465D01*
X130404500Y-111707648D01*
X130404500Y-111912351D01*
X130436522Y-112114534D01*
X130499781Y-112309223D01*
X130592715Y-112491613D01*
X130713028Y-112657213D01*
X130857786Y-112801971D01*
X131012749Y-112914556D01*
X131023390Y-112922287D01*
X131114840Y-112968883D01*
X131116080Y-112969515D01*
X131166876Y-113017490D01*
X131183671Y-113085311D01*
X131161134Y-113151446D01*
X131116080Y-113190485D01*
X131023386Y-113237715D01*
X130857786Y-113358028D01*
X130713028Y-113502786D01*
X130592715Y-113668386D01*
X130499781Y-113850776D01*
X130436522Y-114045465D01*
X130404500Y-114247648D01*
X130404500Y-114452351D01*
X130436522Y-114654534D01*
X130499781Y-114849223D01*
X130592715Y-115031613D01*
X130713028Y-115197213D01*
X130713034Y-115197219D01*
X130857781Y-115341966D01*
X131023390Y-115462287D01*
X131036793Y-115469116D01*
X131087589Y-115517088D01*
X131104500Y-115579601D01*
X131104500Y-116843846D01*
X131135261Y-116998489D01*
X131135264Y-116998501D01*
X131195602Y-117144172D01*
X131195609Y-117144185D01*
X131283210Y-117275288D01*
X131283213Y-117275292D01*
X132398211Y-118390289D01*
X132465070Y-118457148D01*
X132509712Y-118501790D01*
X132640814Y-118589390D01*
X132640827Y-118589397D01*
X132765774Y-118641151D01*
X132786503Y-118649737D01*
X132941153Y-118680499D01*
X132941156Y-118680500D01*
X132941158Y-118680500D01*
X155458844Y-118680500D01*
X155458845Y-118680499D01*
X155613497Y-118649737D01*
X155759179Y-118589394D01*
X155890289Y-118501789D01*
X158651789Y-115740289D01*
X158739394Y-115609179D01*
X158799737Y-115463497D01*
X158830500Y-115308842D01*
X158830500Y-115151158D01*
X158830500Y-111645800D01*
X158850185Y-111578761D01*
X158902989Y-111533006D01*
X158972147Y-111523062D01*
X158992820Y-111527870D01*
X159025458Y-111538475D01*
X159025461Y-111538475D01*
X159025466Y-111538477D01*
X159227648Y-111570500D01*
X159227649Y-111570500D01*
X159432351Y-111570500D01*
X159432352Y-111570500D01*
X159634534Y-111538477D01*
X159829219Y-111475220D01*
X160011610Y-111382287D01*
X160110037Y-111310776D01*
X160177213Y-111261971D01*
X160177215Y-111261968D01*
X160177219Y-111261966D01*
X160321966Y-111117219D01*
X160321968Y-111117215D01*
X160321971Y-111117213D01*
X160433935Y-110963105D01*
X160442287Y-110951610D01*
X160535220Y-110769219D01*
X160598477Y-110574534D01*
X160630500Y-110372352D01*
X160630500Y-110167648D01*
X160598477Y-109965466D01*
X160535220Y-109770781D01*
X160535218Y-109770778D01*
X160535218Y-109770776D01*
X160501503Y-109704607D01*
X160442287Y-109588390D01*
X160432220Y-109574534D01*
X160321971Y-109422786D01*
X160177219Y-109278034D01*
X160046613Y-109183144D01*
X160003949Y-109127816D01*
X159995500Y-109082827D01*
X159995500Y-105147936D01*
X160015185Y-105080897D01*
X160067989Y-105035142D01*
X160137147Y-105025198D01*
X160159597Y-105031360D01*
X160159774Y-105030816D01*
X160353777Y-105093852D01*
X160550437Y-105125000D01*
X160749563Y-105125000D01*
X160946222Y-105093852D01*
X161135594Y-105032320D01*
X161313005Y-104941924D01*
X161350863Y-104914418D01*
X161350863Y-104914417D01*
X160779408Y-104342962D01*
X160842993Y-104325925D01*
X160957007Y-104260099D01*
X161050099Y-104167007D01*
X161115925Y-104052993D01*
X161132962Y-103989408D01*
X161704417Y-104560863D01*
X161704418Y-104560863D01*
X161731924Y-104523005D01*
X161809234Y-104371277D01*
X161857208Y-104320481D01*
X161925029Y-104303686D01*
X161991164Y-104326223D01*
X162030204Y-104371277D01*
X162083008Y-104474910D01*
X162107647Y-104523266D01*
X162224731Y-104684418D01*
X162365582Y-104825269D01*
X162526734Y-104942353D01*
X162656936Y-105008694D01*
X162704219Y-105032786D01*
X162893657Y-105094338D01*
X162893658Y-105094338D01*
X162893661Y-105094339D01*
X163090403Y-105125500D01*
X163090404Y-105125500D01*
X163289596Y-105125500D01*
X163289597Y-105125500D01*
X163486339Y-105094339D01*
X163486342Y-105094338D01*
X163486343Y-105094338D01*
X163675780Y-105032786D01*
X163675780Y-105032785D01*
X163675783Y-105032785D01*
X163853266Y-104942353D01*
X164014418Y-104825269D01*
X164155269Y-104684418D01*
X164272353Y-104523266D01*
X164349515Y-104371827D01*
X164397490Y-104321031D01*
X164465311Y-104304236D01*
X164531446Y-104326773D01*
X164570485Y-104371827D01*
X164647647Y-104523266D01*
X164764731Y-104684418D01*
X164905582Y-104825269D01*
X165066734Y-104942353D01*
X165196936Y-105008694D01*
X165244219Y-105032786D01*
X165433657Y-105094338D01*
X165433658Y-105094338D01*
X165433661Y-105094339D01*
X165630403Y-105125500D01*
X165630404Y-105125500D01*
X165829596Y-105125500D01*
X165829597Y-105125500D01*
X166026339Y-105094339D01*
X166026342Y-105094338D01*
X166026343Y-105094338D01*
X166215780Y-105032786D01*
X166215780Y-105032785D01*
X166215783Y-105032785D01*
X166393266Y-104942353D01*
X166554418Y-104825269D01*
X166695269Y-104684418D01*
X166812353Y-104523266D01*
X166889795Y-104371276D01*
X166937769Y-104320481D01*
X167005590Y-104303686D01*
X167071725Y-104326223D01*
X167110765Y-104371277D01*
X167188077Y-104523008D01*
X167215580Y-104560863D01*
X167215581Y-104560864D01*
X167787037Y-103989408D01*
X167804075Y-104052993D01*
X167869901Y-104167007D01*
X167962993Y-104260099D01*
X168077007Y-104325925D01*
X168140590Y-104342962D01*
X167569134Y-104914417D01*
X167606994Y-104941924D01*
X167784405Y-105032320D01*
X167973777Y-105093852D01*
X168170437Y-105125000D01*
X168369563Y-105125000D01*
X168566222Y-105093852D01*
X168755594Y-105032320D01*
X168933005Y-104941924D01*
X168970863Y-104914418D01*
X168970863Y-104914417D01*
X168399409Y-104342962D01*
X168462993Y-104325925D01*
X168577007Y-104260099D01*
X168670099Y-104167007D01*
X168735925Y-104052993D01*
X168752962Y-103989408D01*
X169324417Y-104560863D01*
X169324418Y-104560863D01*
X169351924Y-104523005D01*
X169429234Y-104371277D01*
X169477208Y-104320481D01*
X169545029Y-104303686D01*
X169611164Y-104326223D01*
X169650204Y-104371277D01*
X169703008Y-104474910D01*
X169727647Y-104523266D01*
X169844731Y-104684418D01*
X169985582Y-104825269D01*
X170146734Y-104942353D01*
X170276936Y-105008694D01*
X170324219Y-105032786D01*
X170513657Y-105094338D01*
X170513658Y-105094338D01*
X170513661Y-105094339D01*
X170710403Y-105125500D01*
X170710404Y-105125500D01*
X170909596Y-105125500D01*
X170909597Y-105125500D01*
X171106339Y-105094339D01*
X171106342Y-105094338D01*
X171106343Y-105094338D01*
X171295780Y-105032786D01*
X171295780Y-105032785D01*
X171295783Y-105032785D01*
X171473266Y-104942353D01*
X171634418Y-104825269D01*
X171775269Y-104684418D01*
X171892353Y-104523266D01*
X171969515Y-104371827D01*
X172017490Y-104321031D01*
X172085311Y-104304236D01*
X172151446Y-104326773D01*
X172190485Y-104371827D01*
X172267647Y-104523266D01*
X172384731Y-104684418D01*
X172525582Y-104825269D01*
X172686734Y-104942353D01*
X172816936Y-105008694D01*
X172864219Y-105032786D01*
X173053657Y-105094338D01*
X173053658Y-105094338D01*
X173053661Y-105094339D01*
X173250403Y-105125500D01*
X173250404Y-105125500D01*
X173449596Y-105125500D01*
X173449597Y-105125500D01*
X173646339Y-105094339D01*
X173646342Y-105094338D01*
X173646343Y-105094338D01*
X173835780Y-105032786D01*
X173835780Y-105032785D01*
X173835783Y-105032785D01*
X174013266Y-104942353D01*
X174174418Y-104825269D01*
X174315269Y-104684418D01*
X174432353Y-104523266D01*
X174509515Y-104371827D01*
X174557490Y-104321031D01*
X174625311Y-104304236D01*
X174691446Y-104326773D01*
X174730485Y-104371827D01*
X174807647Y-104523266D01*
X174924731Y-104684418D01*
X175065582Y-104825269D01*
X175226734Y-104942353D01*
X175356936Y-105008694D01*
X175404219Y-105032786D01*
X175593657Y-105094338D01*
X175593658Y-105094338D01*
X175593661Y-105094339D01*
X175790403Y-105125500D01*
X175790404Y-105125500D01*
X175989596Y-105125500D01*
X175989597Y-105125500D01*
X176186339Y-105094339D01*
X176186342Y-105094338D01*
X176186343Y-105094338D01*
X176375780Y-105032786D01*
X176375780Y-105032785D01*
X176375783Y-105032785D01*
X176553266Y-104942353D01*
X176714418Y-104825269D01*
X176855269Y-104684418D01*
X176972353Y-104523266D01*
X177049515Y-104371827D01*
X177097490Y-104321031D01*
X177165311Y-104304236D01*
X177231446Y-104326773D01*
X177270485Y-104371827D01*
X177347647Y-104523266D01*
X177464731Y-104684418D01*
X177605582Y-104825269D01*
X177766734Y-104942353D01*
X177896936Y-105008694D01*
X177944219Y-105032786D01*
X178133657Y-105094338D01*
X178133658Y-105094338D01*
X178133661Y-105094339D01*
X178330403Y-105125500D01*
X178330404Y-105125500D01*
X178529596Y-105125500D01*
X178529597Y-105125500D01*
X178726339Y-105094339D01*
X178726342Y-105094338D01*
X178726343Y-105094338D01*
X178915780Y-105032786D01*
X178915780Y-105032785D01*
X178915783Y-105032785D01*
X179093266Y-104942353D01*
X179254418Y-104825269D01*
X179395269Y-104684418D01*
X179512353Y-104523266D01*
X179589515Y-104371827D01*
X179637490Y-104321031D01*
X179705311Y-104304236D01*
X179771446Y-104326773D01*
X179810485Y-104371827D01*
X179887647Y-104523266D01*
X180004731Y-104684418D01*
X180145582Y-104825269D01*
X180306734Y-104942353D01*
X180436936Y-105008694D01*
X180484219Y-105032786D01*
X180673657Y-105094338D01*
X180673658Y-105094338D01*
X180673661Y-105094339D01*
X180870403Y-105125500D01*
X180870404Y-105125500D01*
X181069596Y-105125500D01*
X181069597Y-105125500D01*
X181266339Y-105094339D01*
X181266342Y-105094338D01*
X181266343Y-105094338D01*
X181455780Y-105032786D01*
X181455780Y-105032785D01*
X181455783Y-105032785D01*
X181633266Y-104942353D01*
X181794418Y-104825269D01*
X181935269Y-104684418D01*
X182052353Y-104523266D01*
X182142785Y-104345783D01*
X182151006Y-104320481D01*
X182204338Y-104156343D01*
X182204338Y-104156342D01*
X182204339Y-104156339D01*
X182235500Y-103959597D01*
X182235500Y-103760403D01*
X182204339Y-103563661D01*
X182204338Y-103563657D01*
X182204338Y-103563656D01*
X182142786Y-103374219D01*
X182126770Y-103342786D01*
X182052353Y-103196734D01*
X181935269Y-103035582D01*
X181794418Y-102894731D01*
X181633266Y-102777647D01*
X181603120Y-102762287D01*
X181455780Y-102687213D01*
X181266342Y-102625661D01*
X181118782Y-102602290D01*
X181069597Y-102594500D01*
X180870403Y-102594500D01*
X180818517Y-102602718D01*
X180673659Y-102625661D01*
X180673656Y-102625661D01*
X180484219Y-102687213D01*
X180306733Y-102777647D01*
X180214790Y-102844447D01*
X180145582Y-102894731D01*
X180145580Y-102894733D01*
X180145579Y-102894733D01*
X180004733Y-103035579D01*
X180004733Y-103035580D01*
X180004731Y-103035582D01*
X179974121Y-103077713D01*
X179887647Y-103196733D01*
X179810485Y-103348172D01*
X179762510Y-103398968D01*
X179694689Y-103415763D01*
X179628554Y-103393225D01*
X179589515Y-103348172D01*
X179543530Y-103257922D01*
X179512353Y-103196734D01*
X179395269Y-103035582D01*
X179254418Y-102894731D01*
X179093266Y-102777647D01*
X179063120Y-102762287D01*
X178915780Y-102687213D01*
X178726342Y-102625661D01*
X178578782Y-102602290D01*
X178529597Y-102594500D01*
X178330403Y-102594500D01*
X178278517Y-102602718D01*
X178133659Y-102625661D01*
X178133656Y-102625661D01*
X177944219Y-102687213D01*
X177766733Y-102777647D01*
X177674790Y-102844447D01*
X177605582Y-102894731D01*
X177605580Y-102894733D01*
X177605579Y-102894733D01*
X177464733Y-103035579D01*
X177464733Y-103035580D01*
X177464731Y-103035582D01*
X177434121Y-103077713D01*
X177347647Y-103196733D01*
X177270485Y-103348172D01*
X177222510Y-103398968D01*
X177154689Y-103415763D01*
X177088554Y-103393225D01*
X177049515Y-103348172D01*
X177003530Y-103257922D01*
X176972353Y-103196734D01*
X176855269Y-103035582D01*
X176714418Y-102894731D01*
X176553266Y-102777647D01*
X176523120Y-102762287D01*
X176375780Y-102687213D01*
X176186342Y-102625661D01*
X176038782Y-102602290D01*
X175989597Y-102594500D01*
X175790403Y-102594500D01*
X175738517Y-102602718D01*
X175593659Y-102625661D01*
X175593656Y-102625661D01*
X175404219Y-102687213D01*
X175226733Y-102777647D01*
X175134790Y-102844447D01*
X175065582Y-102894731D01*
X175065580Y-102894733D01*
X175065579Y-102894733D01*
X174924733Y-103035579D01*
X174924733Y-103035580D01*
X174924731Y-103035582D01*
X174894121Y-103077713D01*
X174807647Y-103196733D01*
X174730485Y-103348172D01*
X174682510Y-103398968D01*
X174614689Y-103415763D01*
X174548554Y-103393225D01*
X174509515Y-103348172D01*
X174463530Y-103257922D01*
X174432353Y-103196734D01*
X174315269Y-103035582D01*
X174174418Y-102894731D01*
X174013266Y-102777647D01*
X173983120Y-102762287D01*
X173835780Y-102687213D01*
X173646342Y-102625661D01*
X173498782Y-102602290D01*
X173449597Y-102594500D01*
X173250403Y-102594500D01*
X173198517Y-102602718D01*
X173053659Y-102625661D01*
X173053656Y-102625661D01*
X172864219Y-102687213D01*
X172686733Y-102777647D01*
X172594790Y-102844447D01*
X172525582Y-102894731D01*
X172525580Y-102894733D01*
X172525579Y-102894733D01*
X172384733Y-103035579D01*
X172384733Y-103035580D01*
X172384731Y-103035582D01*
X172354121Y-103077713D01*
X172267647Y-103196733D01*
X172190485Y-103348172D01*
X172142510Y-103398968D01*
X172074689Y-103415763D01*
X172008554Y-103393225D01*
X171969515Y-103348172D01*
X171923530Y-103257922D01*
X171892353Y-103196734D01*
X171775269Y-103035582D01*
X171634418Y-102894731D01*
X171473266Y-102777647D01*
X171443120Y-102762287D01*
X171295780Y-102687213D01*
X171106342Y-102625661D01*
X170958782Y-102602290D01*
X170909597Y-102594500D01*
X170710403Y-102594500D01*
X170658517Y-102602718D01*
X170513659Y-102625661D01*
X170513656Y-102625661D01*
X170324219Y-102687213D01*
X170146733Y-102777647D01*
X170054790Y-102844447D01*
X169985582Y-102894731D01*
X169985580Y-102894733D01*
X169985579Y-102894733D01*
X169844733Y-103035579D01*
X169844733Y-103035580D01*
X169844731Y-103035582D01*
X169814121Y-103077713D01*
X169727645Y-103196735D01*
X169650203Y-103348723D01*
X169602229Y-103399518D01*
X169534408Y-103416313D01*
X169468273Y-103393775D01*
X169429234Y-103348722D01*
X169351924Y-103196994D01*
X169324417Y-103159135D01*
X169324417Y-103159134D01*
X168752962Y-103730590D01*
X168735925Y-103667007D01*
X168670099Y-103552993D01*
X168577007Y-103459901D01*
X168462993Y-103394075D01*
X168399409Y-103377037D01*
X168970864Y-102805581D01*
X168970863Y-102805580D01*
X168933008Y-102778077D01*
X168755594Y-102687679D01*
X168566222Y-102626147D01*
X168369563Y-102595000D01*
X168170437Y-102595000D01*
X167973777Y-102626147D01*
X167784405Y-102687679D01*
X167606990Y-102778077D01*
X167569135Y-102805580D01*
X167569135Y-102805581D01*
X168140591Y-103377037D01*
X168077007Y-103394075D01*
X167962993Y-103459901D01*
X167869901Y-103552993D01*
X167804075Y-103667007D01*
X167787037Y-103730591D01*
X167215581Y-103159135D01*
X167215580Y-103159135D01*
X167188075Y-103196993D01*
X167110764Y-103348723D01*
X167062790Y-103399518D01*
X166994969Y-103416313D01*
X166928834Y-103393775D01*
X166889795Y-103348722D01*
X166843530Y-103257922D01*
X166812353Y-103196734D01*
X166695269Y-103035582D01*
X166554418Y-102894731D01*
X166393266Y-102777647D01*
X166363120Y-102762287D01*
X166215780Y-102687213D01*
X166026342Y-102625661D01*
X165878782Y-102602290D01*
X165829597Y-102594500D01*
X165630403Y-102594500D01*
X165578517Y-102602718D01*
X165433659Y-102625661D01*
X165433656Y-102625661D01*
X165244219Y-102687213D01*
X165066733Y-102777647D01*
X164974790Y-102844447D01*
X164905582Y-102894731D01*
X164905580Y-102894733D01*
X164905579Y-102894733D01*
X164764733Y-103035579D01*
X164764733Y-103035580D01*
X164764731Y-103035582D01*
X164734121Y-103077713D01*
X164647647Y-103196733D01*
X164570485Y-103348172D01*
X164522510Y-103398968D01*
X164454689Y-103415763D01*
X164388554Y-103393225D01*
X164349515Y-103348172D01*
X164303530Y-103257922D01*
X164272353Y-103196734D01*
X164155269Y-103035582D01*
X164014418Y-102894731D01*
X163853266Y-102777647D01*
X163823120Y-102762287D01*
X163675780Y-102687213D01*
X163486342Y-102625661D01*
X163338782Y-102602290D01*
X163289597Y-102594500D01*
X163090403Y-102594500D01*
X163038517Y-102602718D01*
X162893659Y-102625661D01*
X162893656Y-102625661D01*
X162704219Y-102687213D01*
X162526733Y-102777647D01*
X162434790Y-102844447D01*
X162365582Y-102894731D01*
X162365580Y-102894733D01*
X162365579Y-102894733D01*
X162224733Y-103035579D01*
X162224733Y-103035580D01*
X162224731Y-103035582D01*
X162194121Y-103077713D01*
X162107645Y-103196735D01*
X162030203Y-103348723D01*
X161982229Y-103399518D01*
X161914408Y-103416313D01*
X161848273Y-103393775D01*
X161809234Y-103348722D01*
X161731924Y-103196994D01*
X161704417Y-103159135D01*
X161704417Y-103159134D01*
X161132962Y-103730590D01*
X161115925Y-103667007D01*
X161050099Y-103552993D01*
X160957007Y-103459901D01*
X160842993Y-103394075D01*
X160779407Y-103377036D01*
X161350864Y-102805580D01*
X161313008Y-102778077D01*
X161135594Y-102687679D01*
X160946222Y-102626147D01*
X160749563Y-102595000D01*
X160550437Y-102595000D01*
X160353777Y-102626147D01*
X160159774Y-102689184D01*
X160159213Y-102687458D01*
X160097473Y-102694091D01*
X160034996Y-102662810D01*
X159999349Y-102602718D01*
X159995500Y-102572063D01*
X159995500Y-101487648D01*
X182709500Y-101487648D01*
X182709500Y-101692351D01*
X182741522Y-101894534D01*
X182804781Y-102089223D01*
X182897715Y-102271613D01*
X183018028Y-102437213D01*
X183162786Y-102581971D01*
X183245371Y-102641971D01*
X183328390Y-102702287D01*
X183444607Y-102761503D01*
X183510776Y-102795218D01*
X183510778Y-102795218D01*
X183510781Y-102795220D01*
X183615137Y-102829127D01*
X183705465Y-102858477D01*
X183806557Y-102874488D01*
X183907648Y-102890500D01*
X183907649Y-102890500D01*
X184112351Y-102890500D01*
X184112352Y-102890500D01*
X184314534Y-102858477D01*
X184509219Y-102795220D01*
X184691610Y-102702287D01*
X184800808Y-102622951D01*
X184857213Y-102581971D01*
X184857215Y-102581968D01*
X184857219Y-102581966D01*
X185001966Y-102437219D01*
X185001968Y-102437215D01*
X185001971Y-102437213D01*
X185054732Y-102364590D01*
X185122287Y-102271610D01*
X185215220Y-102089219D01*
X185278477Y-101894534D01*
X185310500Y-101692352D01*
X185310500Y-101487648D01*
X185293868Y-101382641D01*
X185278477Y-101285465D01*
X185234715Y-101150781D01*
X185215220Y-101090781D01*
X185215218Y-101090778D01*
X185215218Y-101090776D01*
X185169753Y-101001547D01*
X185122287Y-100908390D01*
X185093712Y-100869059D01*
X185001971Y-100742786D01*
X184857213Y-100598028D01*
X184691613Y-100477715D01*
X184691612Y-100477714D01*
X184691610Y-100477713D01*
X184634653Y-100448691D01*
X184509223Y-100384781D01*
X184314534Y-100321522D01*
X184139995Y-100293878D01*
X184112352Y-100289500D01*
X183907648Y-100289500D01*
X183883329Y-100293351D01*
X183705465Y-100321522D01*
X183510776Y-100384781D01*
X183328386Y-100477715D01*
X183162786Y-100598028D01*
X183018028Y-100742786D01*
X182897715Y-100908386D01*
X182804781Y-101090776D01*
X182741522Y-101285465D01*
X182709500Y-101487648D01*
X159995500Y-101487648D01*
X159995500Y-89168393D01*
X159995499Y-89168389D01*
X159971463Y-89047548D01*
X159951300Y-88998870D01*
X159924312Y-88933715D01*
X159907256Y-88908190D01*
X159855858Y-88831267D01*
X159768733Y-88744142D01*
X159768729Y-88744139D01*
X158197675Y-87173085D01*
X158164190Y-87111762D01*
X158169174Y-87042070D01*
X158211046Y-86986137D01*
X158229056Y-86974921D01*
X158371610Y-86902287D01*
X158414818Y-86870895D01*
X158537213Y-86781971D01*
X158537215Y-86781968D01*
X158537219Y-86781966D01*
X158681966Y-86637219D01*
X158681968Y-86637215D01*
X158681971Y-86637213D01*
X158744608Y-86550999D01*
X158802287Y-86471610D01*
X158895220Y-86289219D01*
X158958477Y-86094534D01*
X158990500Y-85892352D01*
X158990500Y-85687648D01*
X158985408Y-85655500D01*
X158958477Y-85485465D01*
X158895218Y-85290776D01*
X158832130Y-85166961D01*
X158802287Y-85108390D01*
X158764269Y-85056062D01*
X158681971Y-84942786D01*
X158581366Y-84842181D01*
X158547881Y-84780858D01*
X158552865Y-84711166D01*
X158594737Y-84655233D01*
X158660201Y-84630816D01*
X158669047Y-84630500D01*
X164330953Y-84630500D01*
X164397992Y-84650185D01*
G37*
%TD.AperFunction*%
%TD*%
M02*
