M48
; DRILL file {KiCad 9.0.2} date 2025-07-07T21:27:48-0400
; FORMAT={-:-/ absolute / metric / decimal}
; #@! TF.CreationDate,2025-07-07T21:27:48-04:00
; #@! TF.GenerationSoftware,Kicad,Pcbnew,9.0.2
; #@! TF.FileFunction,Plated,1,2,PTH
FMAT,2
METRIC
; #@! TA.AperFunction,Plated,PTH,ViaDrill
T1C0.350
; #@! TA.AperFunction,Plated,PTH,ComponentDrill
T2C0.800
; #@! TA.AperFunction,Plated,PTH,ComponentDrill
T3C0.900
; #@! TA.AperFunction,Plated,PTH,ViaDrill
T4C1.000
; #@! TA.AperFunction,Plated,PTH,ComponentDrill
T5C1.000
; #@! TA.AperFunction,Plated,PTH,ComponentDrill
T6C1.100
%
G90
G05
T1
X165.26Y-100.27
X186.49Y-91.04
T2
X157.69Y-85.79
X159.33Y-110.27
X159.33Y-117.89
X165.31Y-85.79
X184.01Y-93.97
X184.01Y-101.59
T3
X126.59Y-102.295
X126.59Y-104.835
X131.905Y-96.57
X131.905Y-99.11
X131.905Y-101.65
X131.905Y-104.19
X131.905Y-106.73
X131.905Y-109.27
X131.905Y-111.81
X131.905Y-114.35
X154.765Y-96.57
X154.765Y-99.11
X154.765Y-101.65
X154.765Y-104.19
X154.765Y-106.73
X154.765Y-109.27
X154.765Y-111.81
X154.765Y-114.35
T4
X162.59Y-107.26
X162.59Y-110.46
X183.99Y-91.04
X185.29Y-107.26
X185.29Y-120.96
T5
X158.11Y-103.86
X160.65Y-103.86
X163.19Y-103.86
X165.73Y-103.86
X168.27Y-103.86
X170.78Y-86.76
X170.81Y-103.86
X172.78Y-86.76
X173.35Y-103.86
X174.78Y-86.76
X175.89Y-103.86
X178.43Y-103.86
X180.97Y-103.86
T6
X124.95Y-87.63
X124.95Y-97.79
X125.0Y-109.32
X125.0Y-119.48
X128.2Y-87.63
X128.2Y-97.79
X128.25Y-109.32
X128.25Y-119.48
T5
G00X168.63Y-87.26
M15
G01X168.63Y-86.26
M16
G05
G00X176.93Y-87.26
M15
G01X176.93Y-86.26
M16
G05
M30
