%TF.GenerationSoftware,KiCad,Pcbnew,9.0.2*%
%TF.CreationDate,2025-07-07T21:27:42-04:00*%
%TF.ProjectId,CVISS_IMU_Tracker_Board,43564953-535f-4494-9d55-5f547261636b,rev?*%
%TF.SameCoordinates,Original*%
%TF.FileFunction,Legend,Top*%
%TF.FilePolarity,Positive*%
%FSLAX46Y46*%
G04 Gerber Fmt 4.6, Leading zero omitted, Abs format (unit mm)*
G04 Created by KiCad (PCBNEW 9.0.2) date 2025-07-07 21:27:42*
%MOMM*%
%LPD*%
G01*
G04 APERTURE LIST*
%ADD10C,0.100000*%
%ADD11C,0.375000*%
%ADD12C,0.150000*%
%ADD13C,0.120000*%
G04 APERTURE END LIST*
D10*
X135930000Y-88230000D02*
X136190000Y-87680000D01*
X151540000Y-88230000D02*
X153407050Y-84210000D01*
X136526208Y-84704999D02*
X136757630Y-84210001D01*
X140072500Y-88232500D02*
X140347618Y-87655000D01*
X150662500Y-88202500D02*
X150910000Y-87660000D01*
X131968277Y-88306777D02*
X133883605Y-84210000D01*
X146490000Y-84700000D02*
X146717073Y-84210000D01*
X130429803Y-84210000D02*
X130405000Y-91770000D01*
X148792500Y-88182500D02*
X149050000Y-87690000D01*
X130410000Y-89670000D02*
X132960000Y-84210000D01*
X141720000Y-84680000D02*
X141951347Y-84210000D01*
X134870000Y-88240000D02*
X136526208Y-84704999D01*
X154275383Y-88234632D02*
X156156981Y-84210000D01*
X144605558Y-84705000D02*
X144836981Y-84210000D01*
X152420000Y-88210000D02*
X154286998Y-84210000D01*
X137997548Y-88230000D02*
X138260000Y-87680000D01*
X143922500Y-88212500D02*
X144183143Y-87654999D01*
X139640000Y-84690000D02*
X139881171Y-84210000D01*
X149712500Y-88232500D02*
X149982493Y-87655000D01*
X148425558Y-84705000D02*
X148656981Y-84210000D01*
X147802500Y-88182500D02*
X148040000Y-87660000D01*
X155140000Y-88470000D02*
X156267500Y-86057500D01*
X145872500Y-88202500D02*
X146130000Y-87660000D01*
X138670000Y-84700000D02*
X138888545Y-84209999D01*
X140696857Y-84705000D02*
X140928280Y-84210000D01*
X147520000Y-84690000D02*
X147746866Y-84210000D01*
X130430000Y-84210000D02*
X156270000Y-84210000D01*
X142650000Y-84680000D02*
X142896190Y-84210000D01*
X146792500Y-88182500D02*
X147040000Y-87660000D01*
X156270000Y-90410000D02*
X156270000Y-84220000D01*
X153357548Y-88230000D02*
X155236981Y-84210000D01*
X145565558Y-84705000D02*
X145796981Y-84210000D01*
X137000000Y-88220000D02*
X137257719Y-87655000D01*
X150405558Y-84705000D02*
X150636981Y-84210000D01*
X130415000Y-87955000D02*
X132115486Y-84210000D01*
X137572330Y-84705000D02*
X137803032Y-84210000D01*
X139052500Y-88222500D02*
X139310000Y-87660000D01*
X130427500Y-86042500D02*
X131260673Y-84210001D01*
X150910000Y-87668631D02*
X152526981Y-84210000D01*
X142932500Y-88232500D02*
X143202493Y-87655000D01*
X155740000Y-88940000D02*
X156257500Y-87827500D01*
X132945024Y-88230000D02*
X134824457Y-84210000D01*
X135536208Y-84704999D02*
X135767630Y-84210000D01*
X151360000Y-84690000D02*
X151586866Y-84209999D01*
X144852500Y-88212500D02*
X145113143Y-87654999D01*
X141942500Y-88232500D02*
X142200000Y-87680000D01*
X149420000Y-84700000D02*
X149656634Y-84210000D01*
X143595558Y-84705000D02*
X143826981Y-84210000D01*
X133912500Y-88202500D02*
X135536208Y-84704999D01*
X141002500Y-88232500D02*
X141272493Y-87655000D01*
D11*
G36*
X137980816Y-87234000D02*
G01*
X137702745Y-87234000D01*
X137461189Y-86604830D01*
X136569117Y-86604830D01*
X136327561Y-87234000D01*
X136052720Y-87234000D01*
X136401471Y-86371138D01*
X136658717Y-86371138D01*
X137371589Y-86371138D01*
X137285359Y-86171714D01*
X137019647Y-85454348D01*
X137010659Y-85454348D01*
X136867917Y-85838843D01*
X136736661Y-86168203D01*
X136658717Y-86371138D01*
X136401471Y-86371138D01*
X136902801Y-85130775D01*
X137127505Y-85130775D01*
X137980816Y-87234000D01*
G37*
G36*
X138309445Y-87234000D02*
G01*
X138309445Y-85130775D01*
X138565607Y-85130775D01*
X138565607Y-87234000D01*
X138309445Y-87234000D01*
G37*
G36*
X139017120Y-86344174D02*
G01*
X139709909Y-86344174D01*
X139709909Y-86568877D01*
X139017120Y-86568877D01*
X139017120Y-86344174D01*
G37*
G36*
X141280445Y-87234000D02*
G01*
X141162757Y-87234000D01*
X140634142Y-85978048D01*
X140414494Y-85413761D01*
X140401995Y-85413761D01*
X140418679Y-85843211D01*
X140423904Y-86216936D01*
X140423904Y-87234000D01*
X140167742Y-87234000D01*
X140167742Y-85130775D01*
X140536536Y-85130775D01*
X141030884Y-86320721D01*
X141217669Y-86812681D01*
X141225533Y-86812681D01*
X141412318Y-86320721D01*
X141906666Y-85130775D01*
X142275460Y-85130775D01*
X142275460Y-87234000D01*
X142019298Y-87234000D01*
X142019298Y-86216936D01*
X142024507Y-85848993D01*
X142041347Y-85413761D01*
X142028708Y-85413761D01*
X141809060Y-85978048D01*
X141280445Y-87234000D01*
G37*
G36*
X143623681Y-87045249D02*
G01*
X143734713Y-87038206D01*
X143827178Y-87018565D01*
X143911402Y-86985717D01*
X143981802Y-86943149D01*
X144042357Y-86889437D01*
X144091766Y-86826022D01*
X144130485Y-86754473D01*
X144159458Y-86674348D01*
X144181366Y-86558766D01*
X144187686Y-86435319D01*
X144187686Y-85130775D01*
X144443848Y-85130775D01*
X144443848Y-86427174D01*
X144435983Y-86580955D01*
X144410845Y-86730102D01*
X144373284Y-86842416D01*
X144321244Y-86945115D01*
X144252864Y-87036912D01*
X144165637Y-87116171D01*
X144062471Y-87179408D01*
X143935457Y-87229225D01*
X143794771Y-87259090D01*
X143620591Y-87269952D01*
X143453559Y-87259942D01*
X143317241Y-87232314D01*
X143193783Y-87186318D01*
X143093381Y-87127968D01*
X143007867Y-87054516D01*
X142940161Y-86969411D01*
X142887328Y-86873851D01*
X142847471Y-86769285D01*
X142813625Y-86601319D01*
X142803513Y-86427174D01*
X142803513Y-85130775D01*
X143059675Y-85130775D01*
X143059675Y-86435319D01*
X143069787Y-86580815D01*
X143102088Y-86716760D01*
X143147447Y-86812119D01*
X143208128Y-86891599D01*
X143285081Y-86957193D01*
X143374599Y-87004184D01*
X143485721Y-87034344D01*
X143623681Y-87045249D01*
G37*
D10*
X141153884Y-102522419D02*
X141153884Y-101522419D01*
X141153884Y-101522419D02*
X141391979Y-101522419D01*
X141391979Y-101522419D02*
X141534836Y-101570038D01*
X141534836Y-101570038D02*
X141630074Y-101665276D01*
X141630074Y-101665276D02*
X141677693Y-101760514D01*
X141677693Y-101760514D02*
X141725312Y-101950990D01*
X141725312Y-101950990D02*
X141725312Y-102093847D01*
X141725312Y-102093847D02*
X141677693Y-102284323D01*
X141677693Y-102284323D02*
X141630074Y-102379561D01*
X141630074Y-102379561D02*
X141534836Y-102474800D01*
X141534836Y-102474800D02*
X141391979Y-102522419D01*
X141391979Y-102522419D02*
X141153884Y-102522419D01*
X142677693Y-102522419D02*
X142106265Y-102522419D01*
X142391979Y-102522419D02*
X142391979Y-101522419D01*
X142391979Y-101522419D02*
X142296741Y-101665276D01*
X142296741Y-101665276D02*
X142201503Y-101760514D01*
X142201503Y-101760514D02*
X142106265Y-101808133D01*
X143868170Y-102522419D02*
X143868170Y-101522419D01*
X143868170Y-101522419D02*
X144201503Y-102236704D01*
X144201503Y-102236704D02*
X144534836Y-101522419D01*
X144534836Y-101522419D02*
X144534836Y-102522419D01*
X145011027Y-102522419D02*
X145011027Y-101855752D01*
X145011027Y-101522419D02*
X144963408Y-101570038D01*
X144963408Y-101570038D02*
X145011027Y-101617657D01*
X145011027Y-101617657D02*
X145058646Y-101570038D01*
X145058646Y-101570038D02*
X145011027Y-101522419D01*
X145011027Y-101522419D02*
X145011027Y-101617657D01*
X145487217Y-101855752D02*
X145487217Y-102522419D01*
X145487217Y-101950990D02*
X145534836Y-101903371D01*
X145534836Y-101903371D02*
X145630074Y-101855752D01*
X145630074Y-101855752D02*
X145772931Y-101855752D01*
X145772931Y-101855752D02*
X145868169Y-101903371D01*
X145868169Y-101903371D02*
X145915788Y-101998609D01*
X145915788Y-101998609D02*
X145915788Y-102522419D01*
X146391979Y-102522419D02*
X146391979Y-101855752D01*
X146391979Y-101522419D02*
X146344360Y-101570038D01*
X146344360Y-101570038D02*
X146391979Y-101617657D01*
X146391979Y-101617657D02*
X146439598Y-101570038D01*
X146439598Y-101570038D02*
X146391979Y-101522419D01*
X146391979Y-101522419D02*
X146391979Y-101617657D01*
X142898095Y-103287419D02*
X142898095Y-104096942D01*
X142898095Y-104096942D02*
X142945714Y-104192180D01*
X142945714Y-104192180D02*
X142993333Y-104239800D01*
X142993333Y-104239800D02*
X143088571Y-104287419D01*
X143088571Y-104287419D02*
X143279047Y-104287419D01*
X143279047Y-104287419D02*
X143374285Y-104239800D01*
X143374285Y-104239800D02*
X143421904Y-104192180D01*
X143421904Y-104192180D02*
X143469523Y-104096942D01*
X143469523Y-104096942D02*
X143469523Y-103287419D01*
X144469523Y-104287419D02*
X143898095Y-104287419D01*
X144183809Y-104287419D02*
X144183809Y-103287419D01*
X144183809Y-103287419D02*
X144088571Y-103430276D01*
X144088571Y-103430276D02*
X143993333Y-103525514D01*
X143993333Y-103525514D02*
X143898095Y-103573133D01*
X147069360Y-87185038D02*
X146116979Y-87185038D01*
X146116979Y-87185038D02*
X146116979Y-85185038D01*
X147640789Y-86613609D02*
X148593170Y-86613609D01*
X147450313Y-87185038D02*
X148116979Y-85185038D01*
X148116979Y-85185038D02*
X148783646Y-87185038D01*
X150116980Y-86137419D02*
X150402694Y-86232657D01*
X150402694Y-86232657D02*
X150497932Y-86327895D01*
X150497932Y-86327895D02*
X150593170Y-86518371D01*
X150593170Y-86518371D02*
X150593170Y-86804085D01*
X150593170Y-86804085D02*
X150497932Y-86994561D01*
X150497932Y-86994561D02*
X150402694Y-87089800D01*
X150402694Y-87089800D02*
X150212218Y-87185038D01*
X150212218Y-87185038D02*
X149450313Y-87185038D01*
X149450313Y-87185038D02*
X149450313Y-85185038D01*
X149450313Y-85185038D02*
X150116980Y-85185038D01*
X150116980Y-85185038D02*
X150307456Y-85280276D01*
X150307456Y-85280276D02*
X150402694Y-85375514D01*
X150402694Y-85375514D02*
X150497932Y-85565990D01*
X150497932Y-85565990D02*
X150497932Y-85756466D01*
X150497932Y-85756466D02*
X150402694Y-85946942D01*
X150402694Y-85946942D02*
X150307456Y-86042180D01*
X150307456Y-86042180D02*
X150116980Y-86137419D01*
X150116980Y-86137419D02*
X149450313Y-86137419D01*
D12*
X127541905Y-115204819D02*
X127541905Y-114204819D01*
X127541905Y-114204819D02*
X127780000Y-114204819D01*
X127780000Y-114204819D02*
X127922857Y-114252438D01*
X127922857Y-114252438D02*
X128018095Y-114347676D01*
X128018095Y-114347676D02*
X128065714Y-114442914D01*
X128065714Y-114442914D02*
X128113333Y-114633390D01*
X128113333Y-114633390D02*
X128113333Y-114776247D01*
X128113333Y-114776247D02*
X128065714Y-114966723D01*
X128065714Y-114966723D02*
X128018095Y-115061961D01*
X128018095Y-115061961D02*
X127922857Y-115157200D01*
X127922857Y-115157200D02*
X127780000Y-115204819D01*
X127780000Y-115204819D02*
X127541905Y-115204819D01*
X128446667Y-114204819D02*
X129065714Y-114204819D01*
X129065714Y-114204819D02*
X128732381Y-114585771D01*
X128732381Y-114585771D02*
X128875238Y-114585771D01*
X128875238Y-114585771D02*
X128970476Y-114633390D01*
X128970476Y-114633390D02*
X129018095Y-114681009D01*
X129018095Y-114681009D02*
X129065714Y-114776247D01*
X129065714Y-114776247D02*
X129065714Y-115014342D01*
X129065714Y-115014342D02*
X129018095Y-115109580D01*
X129018095Y-115109580D02*
X128970476Y-115157200D01*
X128970476Y-115157200D02*
X128875238Y-115204819D01*
X128875238Y-115204819D02*
X128589524Y-115204819D01*
X128589524Y-115204819D02*
X128494286Y-115157200D01*
X128494286Y-115157200D02*
X128446667Y-115109580D01*
X161333333Y-86214819D02*
X161000000Y-85738628D01*
X160761905Y-86214819D02*
X160761905Y-85214819D01*
X160761905Y-85214819D02*
X161142857Y-85214819D01*
X161142857Y-85214819D02*
X161238095Y-85262438D01*
X161238095Y-85262438D02*
X161285714Y-85310057D01*
X161285714Y-85310057D02*
X161333333Y-85405295D01*
X161333333Y-85405295D02*
X161333333Y-85548152D01*
X161333333Y-85548152D02*
X161285714Y-85643390D01*
X161285714Y-85643390D02*
X161238095Y-85691009D01*
X161238095Y-85691009D02*
X161142857Y-85738628D01*
X161142857Y-85738628D02*
X160761905Y-85738628D01*
X161714286Y-85310057D02*
X161761905Y-85262438D01*
X161761905Y-85262438D02*
X161857143Y-85214819D01*
X161857143Y-85214819D02*
X162095238Y-85214819D01*
X162095238Y-85214819D02*
X162190476Y-85262438D01*
X162190476Y-85262438D02*
X162238095Y-85310057D01*
X162238095Y-85310057D02*
X162285714Y-85405295D01*
X162285714Y-85405295D02*
X162285714Y-85500533D01*
X162285714Y-85500533D02*
X162238095Y-85643390D01*
X162238095Y-85643390D02*
X161666667Y-86214819D01*
X161666667Y-86214819D02*
X162285714Y-86214819D01*
D10*
X173213095Y-114882419D02*
X173213095Y-115691942D01*
X173213095Y-115691942D02*
X173260714Y-115787180D01*
X173260714Y-115787180D02*
X173308333Y-115834800D01*
X173308333Y-115834800D02*
X173403571Y-115882419D01*
X173403571Y-115882419D02*
X173594047Y-115882419D01*
X173594047Y-115882419D02*
X173689285Y-115834800D01*
X173689285Y-115834800D02*
X173736904Y-115787180D01*
X173736904Y-115787180D02*
X173784523Y-115691942D01*
X173784523Y-115691942D02*
X173784523Y-114882419D01*
X174165476Y-114882419D02*
X174784523Y-114882419D01*
X174784523Y-114882419D02*
X174451190Y-115263371D01*
X174451190Y-115263371D02*
X174594047Y-115263371D01*
X174594047Y-115263371D02*
X174689285Y-115310990D01*
X174689285Y-115310990D02*
X174736904Y-115358609D01*
X174736904Y-115358609D02*
X174784523Y-115453847D01*
X174784523Y-115453847D02*
X174784523Y-115691942D01*
X174784523Y-115691942D02*
X174736904Y-115787180D01*
X174736904Y-115787180D02*
X174689285Y-115834800D01*
X174689285Y-115834800D02*
X174594047Y-115882419D01*
X174594047Y-115882419D02*
X174308333Y-115882419D01*
X174308333Y-115882419D02*
X174213095Y-115834800D01*
X174213095Y-115834800D02*
X174165476Y-115787180D01*
X171431027Y-113062419D02*
X172002455Y-113062419D01*
X171716741Y-114062419D02*
X171716741Y-113062419D01*
X172335789Y-114062419D02*
X172335789Y-113062419D01*
X172335789Y-113062419D02*
X172716741Y-113062419D01*
X172716741Y-113062419D02*
X172811979Y-113110038D01*
X172811979Y-113110038D02*
X172859598Y-113157657D01*
X172859598Y-113157657D02*
X172907217Y-113252895D01*
X172907217Y-113252895D02*
X172907217Y-113395752D01*
X172907217Y-113395752D02*
X172859598Y-113490990D01*
X172859598Y-113490990D02*
X172811979Y-113538609D01*
X172811979Y-113538609D02*
X172716741Y-113586228D01*
X172716741Y-113586228D02*
X172335789Y-113586228D01*
X173764360Y-113395752D02*
X173764360Y-114062419D01*
X173526265Y-113014800D02*
X173288170Y-113729085D01*
X173288170Y-113729085D02*
X173907217Y-113729085D01*
X174478646Y-113062419D02*
X174573884Y-113062419D01*
X174573884Y-113062419D02*
X174669122Y-113110038D01*
X174669122Y-113110038D02*
X174716741Y-113157657D01*
X174716741Y-113157657D02*
X174764360Y-113252895D01*
X174764360Y-113252895D02*
X174811979Y-113443371D01*
X174811979Y-113443371D02*
X174811979Y-113681466D01*
X174811979Y-113681466D02*
X174764360Y-113871942D01*
X174764360Y-113871942D02*
X174716741Y-113967180D01*
X174716741Y-113967180D02*
X174669122Y-114014800D01*
X174669122Y-114014800D02*
X174573884Y-114062419D01*
X174573884Y-114062419D02*
X174478646Y-114062419D01*
X174478646Y-114062419D02*
X174383408Y-114014800D01*
X174383408Y-114014800D02*
X174335789Y-113967180D01*
X174335789Y-113967180D02*
X174288170Y-113871942D01*
X174288170Y-113871942D02*
X174240551Y-113681466D01*
X174240551Y-113681466D02*
X174240551Y-113443371D01*
X174240551Y-113443371D02*
X174288170Y-113252895D01*
X174288170Y-113252895D02*
X174335789Y-113157657D01*
X174335789Y-113157657D02*
X174383408Y-113110038D01*
X174383408Y-113110038D02*
X174478646Y-113062419D01*
X175716741Y-113062419D02*
X175240551Y-113062419D01*
X175240551Y-113062419D02*
X175192932Y-113538609D01*
X175192932Y-113538609D02*
X175240551Y-113490990D01*
X175240551Y-113490990D02*
X175335789Y-113443371D01*
X175335789Y-113443371D02*
X175573884Y-113443371D01*
X175573884Y-113443371D02*
X175669122Y-113490990D01*
X175669122Y-113490990D02*
X175716741Y-113538609D01*
X175716741Y-113538609D02*
X175764360Y-113633847D01*
X175764360Y-113633847D02*
X175764360Y-113871942D01*
X175764360Y-113871942D02*
X175716741Y-113967180D01*
X175716741Y-113967180D02*
X175669122Y-114014800D01*
X175669122Y-114014800D02*
X175573884Y-114062419D01*
X175573884Y-114062419D02*
X175335789Y-114062419D01*
X175335789Y-114062419D02*
X175240551Y-114014800D01*
X175240551Y-114014800D02*
X175192932Y-113967180D01*
X176621503Y-113062419D02*
X176431027Y-113062419D01*
X176431027Y-113062419D02*
X176335789Y-113110038D01*
X176335789Y-113110038D02*
X176288170Y-113157657D01*
X176288170Y-113157657D02*
X176192932Y-113300514D01*
X176192932Y-113300514D02*
X176145313Y-113490990D01*
X176145313Y-113490990D02*
X176145313Y-113871942D01*
X176145313Y-113871942D02*
X176192932Y-113967180D01*
X176192932Y-113967180D02*
X176240551Y-114014800D01*
X176240551Y-114014800D02*
X176335789Y-114062419D01*
X176335789Y-114062419D02*
X176526265Y-114062419D01*
X176526265Y-114062419D02*
X176621503Y-114014800D01*
X176621503Y-114014800D02*
X176669122Y-113967180D01*
X176669122Y-113967180D02*
X176716741Y-113871942D01*
X176716741Y-113871942D02*
X176716741Y-113633847D01*
X176716741Y-113633847D02*
X176669122Y-113538609D01*
X176669122Y-113538609D02*
X176621503Y-113490990D01*
X176621503Y-113490990D02*
X176526265Y-113443371D01*
X176526265Y-113443371D02*
X176335789Y-113443371D01*
X176335789Y-113443371D02*
X176240551Y-113490990D01*
X176240551Y-113490990D02*
X176192932Y-113538609D01*
X176192932Y-113538609D02*
X176145313Y-113633847D01*
X168908095Y-97687419D02*
X168908095Y-98496942D01*
X168908095Y-98496942D02*
X168955714Y-98592180D01*
X168955714Y-98592180D02*
X169003333Y-98639800D01*
X169003333Y-98639800D02*
X169098571Y-98687419D01*
X169098571Y-98687419D02*
X169289047Y-98687419D01*
X169289047Y-98687419D02*
X169384285Y-98639800D01*
X169384285Y-98639800D02*
X169431904Y-98592180D01*
X169431904Y-98592180D02*
X169479523Y-98496942D01*
X169479523Y-98496942D02*
X169479523Y-97687419D01*
X169908095Y-97782657D02*
X169955714Y-97735038D01*
X169955714Y-97735038D02*
X170050952Y-97687419D01*
X170050952Y-97687419D02*
X170289047Y-97687419D01*
X170289047Y-97687419D02*
X170384285Y-97735038D01*
X170384285Y-97735038D02*
X170431904Y-97782657D01*
X170431904Y-97782657D02*
X170479523Y-97877895D01*
X170479523Y-97877895D02*
X170479523Y-97973133D01*
X170479523Y-97973133D02*
X170431904Y-98115990D01*
X170431904Y-98115990D02*
X169860476Y-98687419D01*
X169860476Y-98687419D02*
X170479523Y-98687419D01*
X167227217Y-96168609D02*
X167370074Y-96216228D01*
X167370074Y-96216228D02*
X167417693Y-96263847D01*
X167417693Y-96263847D02*
X167465312Y-96359085D01*
X167465312Y-96359085D02*
X167465312Y-96501942D01*
X167465312Y-96501942D02*
X167417693Y-96597180D01*
X167417693Y-96597180D02*
X167370074Y-96644800D01*
X167370074Y-96644800D02*
X167274836Y-96692419D01*
X167274836Y-96692419D02*
X166893884Y-96692419D01*
X166893884Y-96692419D02*
X166893884Y-95692419D01*
X166893884Y-95692419D02*
X167227217Y-95692419D01*
X167227217Y-95692419D02*
X167322455Y-95740038D01*
X167322455Y-95740038D02*
X167370074Y-95787657D01*
X167370074Y-95787657D02*
X167417693Y-95882895D01*
X167417693Y-95882895D02*
X167417693Y-95978133D01*
X167417693Y-95978133D02*
X167370074Y-96073371D01*
X167370074Y-96073371D02*
X167322455Y-96120990D01*
X167322455Y-96120990D02*
X167227217Y-96168609D01*
X167227217Y-96168609D02*
X166893884Y-96168609D01*
X167893884Y-96692419D02*
X167893884Y-95692419D01*
X167893884Y-95692419D02*
X168465312Y-96692419D01*
X168465312Y-96692419D02*
X168465312Y-95692419D01*
X169131979Y-95692419D02*
X169322455Y-95692419D01*
X169322455Y-95692419D02*
X169417693Y-95740038D01*
X169417693Y-95740038D02*
X169512931Y-95835276D01*
X169512931Y-95835276D02*
X169560550Y-96025752D01*
X169560550Y-96025752D02*
X169560550Y-96359085D01*
X169560550Y-96359085D02*
X169512931Y-96549561D01*
X169512931Y-96549561D02*
X169417693Y-96644800D01*
X169417693Y-96644800D02*
X169322455Y-96692419D01*
X169322455Y-96692419D02*
X169131979Y-96692419D01*
X169131979Y-96692419D02*
X169036741Y-96644800D01*
X169036741Y-96644800D02*
X168941503Y-96549561D01*
X168941503Y-96549561D02*
X168893884Y-96359085D01*
X168893884Y-96359085D02*
X168893884Y-96025752D01*
X168893884Y-96025752D02*
X168941503Y-95835276D01*
X168941503Y-95835276D02*
X169036741Y-95740038D01*
X169036741Y-95740038D02*
X169131979Y-95692419D01*
X170179598Y-95692419D02*
X170274836Y-95692419D01*
X170274836Y-95692419D02*
X170370074Y-95740038D01*
X170370074Y-95740038D02*
X170417693Y-95787657D01*
X170417693Y-95787657D02*
X170465312Y-95882895D01*
X170465312Y-95882895D02*
X170512931Y-96073371D01*
X170512931Y-96073371D02*
X170512931Y-96311466D01*
X170512931Y-96311466D02*
X170465312Y-96501942D01*
X170465312Y-96501942D02*
X170417693Y-96597180D01*
X170417693Y-96597180D02*
X170370074Y-96644800D01*
X170370074Y-96644800D02*
X170274836Y-96692419D01*
X170274836Y-96692419D02*
X170179598Y-96692419D01*
X170179598Y-96692419D02*
X170084360Y-96644800D01*
X170084360Y-96644800D02*
X170036741Y-96597180D01*
X170036741Y-96597180D02*
X169989122Y-96501942D01*
X169989122Y-96501942D02*
X169941503Y-96311466D01*
X169941503Y-96311466D02*
X169941503Y-96073371D01*
X169941503Y-96073371D02*
X169989122Y-95882895D01*
X169989122Y-95882895D02*
X170036741Y-95787657D01*
X170036741Y-95787657D02*
X170084360Y-95740038D01*
X170084360Y-95740038D02*
X170179598Y-95692419D01*
X171084360Y-96120990D02*
X170989122Y-96073371D01*
X170989122Y-96073371D02*
X170941503Y-96025752D01*
X170941503Y-96025752D02*
X170893884Y-95930514D01*
X170893884Y-95930514D02*
X170893884Y-95882895D01*
X170893884Y-95882895D02*
X170941503Y-95787657D01*
X170941503Y-95787657D02*
X170989122Y-95740038D01*
X170989122Y-95740038D02*
X171084360Y-95692419D01*
X171084360Y-95692419D02*
X171274836Y-95692419D01*
X171274836Y-95692419D02*
X171370074Y-95740038D01*
X171370074Y-95740038D02*
X171417693Y-95787657D01*
X171417693Y-95787657D02*
X171465312Y-95882895D01*
X171465312Y-95882895D02*
X171465312Y-95930514D01*
X171465312Y-95930514D02*
X171417693Y-96025752D01*
X171417693Y-96025752D02*
X171370074Y-96073371D01*
X171370074Y-96073371D02*
X171274836Y-96120990D01*
X171274836Y-96120990D02*
X171084360Y-96120990D01*
X171084360Y-96120990D02*
X170989122Y-96168609D01*
X170989122Y-96168609D02*
X170941503Y-96216228D01*
X170941503Y-96216228D02*
X170893884Y-96311466D01*
X170893884Y-96311466D02*
X170893884Y-96501942D01*
X170893884Y-96501942D02*
X170941503Y-96597180D01*
X170941503Y-96597180D02*
X170989122Y-96644800D01*
X170989122Y-96644800D02*
X171084360Y-96692419D01*
X171084360Y-96692419D02*
X171274836Y-96692419D01*
X171274836Y-96692419D02*
X171370074Y-96644800D01*
X171370074Y-96644800D02*
X171417693Y-96597180D01*
X171417693Y-96597180D02*
X171465312Y-96501942D01*
X171465312Y-96501942D02*
X171465312Y-96311466D01*
X171465312Y-96311466D02*
X171417693Y-96216228D01*
X171417693Y-96216228D02*
X171370074Y-96168609D01*
X171370074Y-96168609D02*
X171274836Y-96120990D01*
X171798646Y-96692419D02*
X172322455Y-96025752D01*
X171798646Y-96025752D02*
X172322455Y-96692419D01*
D12*
X125751905Y-107424819D02*
X125751905Y-106424819D01*
X125751905Y-106424819D02*
X125990000Y-106424819D01*
X125990000Y-106424819D02*
X126132857Y-106472438D01*
X126132857Y-106472438D02*
X126228095Y-106567676D01*
X126228095Y-106567676D02*
X126275714Y-106662914D01*
X126275714Y-106662914D02*
X126323333Y-106853390D01*
X126323333Y-106853390D02*
X126323333Y-106996247D01*
X126323333Y-106996247D02*
X126275714Y-107186723D01*
X126275714Y-107186723D02*
X126228095Y-107281961D01*
X126228095Y-107281961D02*
X126132857Y-107377200D01*
X126132857Y-107377200D02*
X125990000Y-107424819D01*
X125990000Y-107424819D02*
X125751905Y-107424819D01*
X127228095Y-106424819D02*
X126751905Y-106424819D01*
X126751905Y-106424819D02*
X126704286Y-106901009D01*
X126704286Y-106901009D02*
X126751905Y-106853390D01*
X126751905Y-106853390D02*
X126847143Y-106805771D01*
X126847143Y-106805771D02*
X127085238Y-106805771D01*
X127085238Y-106805771D02*
X127180476Y-106853390D01*
X127180476Y-106853390D02*
X127228095Y-106901009D01*
X127228095Y-106901009D02*
X127275714Y-106996247D01*
X127275714Y-106996247D02*
X127275714Y-107234342D01*
X127275714Y-107234342D02*
X127228095Y-107329580D01*
X127228095Y-107329580D02*
X127180476Y-107377200D01*
X127180476Y-107377200D02*
X127085238Y-107424819D01*
X127085238Y-107424819D02*
X126847143Y-107424819D01*
X126847143Y-107424819D02*
X126751905Y-107377200D01*
X126751905Y-107377200D02*
X126704286Y-107329580D01*
X124231905Y-92894819D02*
X124231905Y-91894819D01*
X124231905Y-91894819D02*
X124470000Y-91894819D01*
X124470000Y-91894819D02*
X124612857Y-91942438D01*
X124612857Y-91942438D02*
X124708095Y-92037676D01*
X124708095Y-92037676D02*
X124755714Y-92132914D01*
X124755714Y-92132914D02*
X124803333Y-92323390D01*
X124803333Y-92323390D02*
X124803333Y-92466247D01*
X124803333Y-92466247D02*
X124755714Y-92656723D01*
X124755714Y-92656723D02*
X124708095Y-92751961D01*
X124708095Y-92751961D02*
X124612857Y-92847200D01*
X124612857Y-92847200D02*
X124470000Y-92894819D01*
X124470000Y-92894819D02*
X124231905Y-92894819D01*
X125755714Y-92894819D02*
X125184286Y-92894819D01*
X125470000Y-92894819D02*
X125470000Y-91894819D01*
X125470000Y-91894819D02*
X125374762Y-92037676D01*
X125374762Y-92037676D02*
X125279524Y-92132914D01*
X125279524Y-92132914D02*
X125184286Y-92180533D01*
X124281905Y-115144819D02*
X124281905Y-114144819D01*
X124281905Y-114144819D02*
X124520000Y-114144819D01*
X124520000Y-114144819D02*
X124662857Y-114192438D01*
X124662857Y-114192438D02*
X124758095Y-114287676D01*
X124758095Y-114287676D02*
X124805714Y-114382914D01*
X124805714Y-114382914D02*
X124853333Y-114573390D01*
X124853333Y-114573390D02*
X124853333Y-114716247D01*
X124853333Y-114716247D02*
X124805714Y-114906723D01*
X124805714Y-114906723D02*
X124758095Y-115001961D01*
X124758095Y-115001961D02*
X124662857Y-115097200D01*
X124662857Y-115097200D02*
X124520000Y-115144819D01*
X124520000Y-115144819D02*
X124281905Y-115144819D01*
X125234286Y-114240057D02*
X125281905Y-114192438D01*
X125281905Y-114192438D02*
X125377143Y-114144819D01*
X125377143Y-114144819D02*
X125615238Y-114144819D01*
X125615238Y-114144819D02*
X125710476Y-114192438D01*
X125710476Y-114192438D02*
X125758095Y-114240057D01*
X125758095Y-114240057D02*
X125805714Y-114335295D01*
X125805714Y-114335295D02*
X125805714Y-114430533D01*
X125805714Y-114430533D02*
X125758095Y-114573390D01*
X125758095Y-114573390D02*
X125186667Y-115144819D01*
X125186667Y-115144819D02*
X125805714Y-115144819D01*
X183863332Y-98294819D02*
X183529999Y-97818628D01*
X183291904Y-98294819D02*
X183291904Y-97294819D01*
X183291904Y-97294819D02*
X183672856Y-97294819D01*
X183672856Y-97294819D02*
X183768094Y-97342438D01*
X183768094Y-97342438D02*
X183815713Y-97390057D01*
X183815713Y-97390057D02*
X183863332Y-97485295D01*
X183863332Y-97485295D02*
X183863332Y-97628152D01*
X183863332Y-97628152D02*
X183815713Y-97723390D01*
X183815713Y-97723390D02*
X183768094Y-97771009D01*
X183768094Y-97771009D02*
X183672856Y-97818628D01*
X183672856Y-97818628D02*
X183291904Y-97818628D01*
X184815713Y-98294819D02*
X184244285Y-98294819D01*
X184529999Y-98294819D02*
X184529999Y-97294819D01*
X184529999Y-97294819D02*
X184434761Y-97437676D01*
X184434761Y-97437676D02*
X184339523Y-97532914D01*
X184339523Y-97532914D02*
X184244285Y-97580533D01*
X159153333Y-114634819D02*
X158820000Y-114158628D01*
X158581905Y-114634819D02*
X158581905Y-113634819D01*
X158581905Y-113634819D02*
X158962857Y-113634819D01*
X158962857Y-113634819D02*
X159058095Y-113682438D01*
X159058095Y-113682438D02*
X159105714Y-113730057D01*
X159105714Y-113730057D02*
X159153333Y-113825295D01*
X159153333Y-113825295D02*
X159153333Y-113968152D01*
X159153333Y-113968152D02*
X159105714Y-114063390D01*
X159105714Y-114063390D02*
X159058095Y-114111009D01*
X159058095Y-114111009D02*
X158962857Y-114158628D01*
X158962857Y-114158628D02*
X158581905Y-114158628D01*
X159486667Y-113634819D02*
X160105714Y-113634819D01*
X160105714Y-113634819D02*
X159772381Y-114015771D01*
X159772381Y-114015771D02*
X159915238Y-114015771D01*
X159915238Y-114015771D02*
X160010476Y-114063390D01*
X160010476Y-114063390D02*
X160058095Y-114111009D01*
X160058095Y-114111009D02*
X160105714Y-114206247D01*
X160105714Y-114206247D02*
X160105714Y-114444342D01*
X160105714Y-114444342D02*
X160058095Y-114539580D01*
X160058095Y-114539580D02*
X160010476Y-114587200D01*
X160010476Y-114587200D02*
X159915238Y-114634819D01*
X159915238Y-114634819D02*
X159629524Y-114634819D01*
X159629524Y-114634819D02*
X159534286Y-114587200D01*
X159534286Y-114587200D02*
X159486667Y-114539580D01*
X127561905Y-92904819D02*
X127561905Y-91904819D01*
X127561905Y-91904819D02*
X127800000Y-91904819D01*
X127800000Y-91904819D02*
X127942857Y-91952438D01*
X127942857Y-91952438D02*
X128038095Y-92047676D01*
X128038095Y-92047676D02*
X128085714Y-92142914D01*
X128085714Y-92142914D02*
X128133333Y-92333390D01*
X128133333Y-92333390D02*
X128133333Y-92476247D01*
X128133333Y-92476247D02*
X128085714Y-92666723D01*
X128085714Y-92666723D02*
X128038095Y-92761961D01*
X128038095Y-92761961D02*
X127942857Y-92857200D01*
X127942857Y-92857200D02*
X127800000Y-92904819D01*
X127800000Y-92904819D02*
X127561905Y-92904819D01*
X128990476Y-92238152D02*
X128990476Y-92904819D01*
X128752381Y-91857200D02*
X128514286Y-92571485D01*
X128514286Y-92571485D02*
X129133333Y-92571485D01*
D10*
X170376265Y-85654800D02*
X170519122Y-85702419D01*
X170519122Y-85702419D02*
X170757217Y-85702419D01*
X170757217Y-85702419D02*
X170852455Y-85654800D01*
X170852455Y-85654800D02*
X170900074Y-85607180D01*
X170900074Y-85607180D02*
X170947693Y-85511942D01*
X170947693Y-85511942D02*
X170947693Y-85416704D01*
X170947693Y-85416704D02*
X170900074Y-85321466D01*
X170900074Y-85321466D02*
X170852455Y-85273847D01*
X170852455Y-85273847D02*
X170757217Y-85226228D01*
X170757217Y-85226228D02*
X170566741Y-85178609D01*
X170566741Y-85178609D02*
X170471503Y-85130990D01*
X170471503Y-85130990D02*
X170423884Y-85083371D01*
X170423884Y-85083371D02*
X170376265Y-84988133D01*
X170376265Y-84988133D02*
X170376265Y-84892895D01*
X170376265Y-84892895D02*
X170423884Y-84797657D01*
X170423884Y-84797657D02*
X170471503Y-84750038D01*
X170471503Y-84750038D02*
X170566741Y-84702419D01*
X170566741Y-84702419D02*
X170804836Y-84702419D01*
X170804836Y-84702419D02*
X170947693Y-84750038D01*
X171281027Y-85035752D02*
X171471503Y-85702419D01*
X171471503Y-85702419D02*
X171661979Y-85226228D01*
X171661979Y-85226228D02*
X171852455Y-85702419D01*
X171852455Y-85702419D02*
X172042931Y-85035752D01*
X172423884Y-85702419D02*
X172423884Y-85035752D01*
X172423884Y-84702419D02*
X172376265Y-84750038D01*
X172376265Y-84750038D02*
X172423884Y-84797657D01*
X172423884Y-84797657D02*
X172471503Y-84750038D01*
X172471503Y-84750038D02*
X172423884Y-84702419D01*
X172423884Y-84702419D02*
X172423884Y-84797657D01*
X172757217Y-85035752D02*
X173138169Y-85035752D01*
X172900074Y-84702419D02*
X172900074Y-85559561D01*
X172900074Y-85559561D02*
X172947693Y-85654800D01*
X172947693Y-85654800D02*
X173042931Y-85702419D01*
X173042931Y-85702419D02*
X173138169Y-85702419D01*
X173900074Y-85654800D02*
X173804836Y-85702419D01*
X173804836Y-85702419D02*
X173614360Y-85702419D01*
X173614360Y-85702419D02*
X173519122Y-85654800D01*
X173519122Y-85654800D02*
X173471503Y-85607180D01*
X173471503Y-85607180D02*
X173423884Y-85511942D01*
X173423884Y-85511942D02*
X173423884Y-85226228D01*
X173423884Y-85226228D02*
X173471503Y-85130990D01*
X173471503Y-85130990D02*
X173519122Y-85083371D01*
X173519122Y-85083371D02*
X173614360Y-85035752D01*
X173614360Y-85035752D02*
X173804836Y-85035752D01*
X173804836Y-85035752D02*
X173900074Y-85083371D01*
X174328646Y-85702419D02*
X174328646Y-84702419D01*
X174757217Y-85702419D02*
X174757217Y-85178609D01*
X174757217Y-85178609D02*
X174709598Y-85083371D01*
X174709598Y-85083371D02*
X174614360Y-85035752D01*
X174614360Y-85035752D02*
X174471503Y-85035752D01*
X174471503Y-85035752D02*
X174376265Y-85083371D01*
X174376265Y-85083371D02*
X174328646Y-85130990D01*
D13*
%TO.C,D3*%
X128250000Y-110660000D02*
X128250000Y-111680000D01*
X128250000Y-118140000D02*
X128250000Y-117120000D01*
X129720000Y-112460000D02*
X126780000Y-112460000D01*
X129720000Y-112580000D02*
X126780000Y-112580000D01*
X129720000Y-112700000D02*
X126780000Y-112700000D01*
X129720000Y-111680000D02*
X126780000Y-111680000D01*
X126780000Y-117120000D01*
X129720000Y-117120000D01*
X129720000Y-111680000D01*
%TO.C,R2*%
X158230000Y-84420000D02*
X158230000Y-84750000D01*
X158230000Y-87160000D02*
X158230000Y-86830000D01*
X164770000Y-84420000D02*
X158230000Y-84420000D01*
X164770000Y-84750000D02*
X164770000Y-84420000D01*
X164770000Y-86830000D02*
X164770000Y-87160000D01*
X164770000Y-87160000D02*
X158230000Y-87160000D01*
D10*
%TO.C,U3*%
X159150000Y-105430000D02*
X159150000Y-107930000D01*
X159150000Y-105430000D02*
X187100000Y-105430000D01*
X159150000Y-107930000D02*
X160930000Y-108630000D01*
X159150000Y-120200000D02*
X159150000Y-122700000D01*
X159150000Y-122700000D02*
X187100000Y-122700000D01*
X160930000Y-108630000D02*
X160930000Y-119500000D01*
X160930000Y-119500000D02*
X159150000Y-120200000D01*
X187100000Y-105430000D02*
X187100000Y-122700000D01*
D13*
%TO.C,U1*%
X130405000Y-115790000D02*
X130405000Y-90360000D01*
X130405000Y-115790000D02*
X132945000Y-115790000D01*
X132945000Y-115790000D02*
X132945000Y-122690000D01*
X132945000Y-122690000D02*
X156265000Y-122690000D01*
X154145000Y-88230000D02*
X132535000Y-88230000D01*
X156265000Y-122690000D02*
X156265000Y-90360000D01*
X130405000Y-90360000D02*
G75*
G02*
X132535000Y-88230000I2130002J-2D01*
G01*
X154135000Y-88230000D02*
G75*
G02*
X156265000Y-90360000I0J-2130000D01*
G01*
D12*
X130000000Y-96570000D02*
X129365000Y-97205000D01*
X129365000Y-95935000D01*
X130000000Y-96570000D01*
G36*
X130000000Y-96570000D02*
G01*
X129365000Y-97205000D01*
X129365000Y-95935000D01*
X130000000Y-96570000D01*
G37*
%TO.C,U2*%
D10*
X156720000Y-104990000D02*
X182320000Y-104990000D01*
X182320000Y-89290000D01*
X156720000Y-89290000D01*
X156720000Y-104990000D01*
D13*
%TO.C,D5*%
X125045000Y-106125000D02*
X128135000Y-106125000D01*
X125045170Y-106125000D02*
G75*
G02*
X126590000Y-100575000I1544830J2560000D01*
G01*
X126590000Y-100575000D02*
G75*
G02*
X128134830Y-106125000I0J-2990000D01*
G01*
X129090000Y-103565000D02*
G75*
G02*
X124090000Y-103565000I-2500000J0D01*
G01*
X124090000Y-103565000D02*
G75*
G02*
X129090000Y-103565000I2500000J0D01*
G01*
%TO.C,D1*%
X123480000Y-94410000D02*
X126420000Y-94410000D01*
X123480000Y-94530000D02*
X126420000Y-94530000D01*
X123480000Y-94650000D02*
X126420000Y-94650000D01*
X124950000Y-88970000D02*
X124950000Y-89990000D01*
X124950000Y-96450000D02*
X124950000Y-95430000D01*
X123480000Y-95430000D02*
X126420000Y-95430000D01*
X126420000Y-89990000D01*
X123480000Y-89990000D01*
X123480000Y-95430000D01*
%TO.C,D2*%
X125000000Y-110660000D02*
X125000000Y-111680000D01*
X125000000Y-118140000D02*
X125000000Y-117120000D01*
X126470000Y-112460000D02*
X123530000Y-112460000D01*
X126470000Y-112580000D02*
X123530000Y-112580000D01*
X126470000Y-112700000D02*
X123530000Y-112700000D01*
X126470000Y-111680000D02*
X123530000Y-111680000D01*
X123530000Y-117120000D01*
X126470000Y-117120000D01*
X126470000Y-111680000D01*
%TO.C,R1*%
X182640000Y-94510000D02*
X182970000Y-94510000D01*
X182640000Y-101050000D02*
X182640000Y-94510000D01*
X182970000Y-101050000D02*
X182640000Y-101050000D01*
X185050000Y-101050000D02*
X185380000Y-101050000D01*
X185380000Y-94510000D02*
X185050000Y-94510000D01*
X185380000Y-101050000D02*
X185380000Y-94510000D01*
%TO.C,R3*%
X157960000Y-110810000D02*
X158290000Y-110810000D01*
X157960000Y-117350000D02*
X157960000Y-110810000D01*
X158290000Y-117350000D02*
X157960000Y-117350000D01*
X160370000Y-117350000D02*
X160700000Y-117350000D01*
X160700000Y-110810000D02*
X160370000Y-110810000D01*
X160700000Y-117350000D02*
X160700000Y-110810000D01*
%TO.C,D4*%
X126730000Y-94410000D02*
X129670000Y-94410000D01*
X126730000Y-94530000D02*
X129670000Y-94530000D01*
X126730000Y-94650000D02*
X129670000Y-94650000D01*
X128200000Y-88970000D02*
X128200000Y-89990000D01*
X128200000Y-96450000D02*
X128200000Y-95430000D01*
X126730000Y-95430000D02*
X129670000Y-95430000D01*
X129670000Y-89990000D01*
X126730000Y-89990000D01*
X126730000Y-95430000D01*
%TO.C,SW1*%
D10*
X166700000Y-89040000D02*
X178810000Y-89040000D01*
X178810000Y-84410000D01*
X166700000Y-84410000D01*
X166700000Y-89040000D01*
%TD*%
M02*
