%TF.GenerationSoftware,KiCad,Pcbnew,9.0.2*%
%TF.CreationDate,2025-06-21T17:17:58-04:00*%
%TF.ProjectId,CVISS_IMU_Tracker_Board,43564953-535f-4494-9d55-5f547261636b,rev?*%
%TF.SameCoordinates,Original*%
%TF.FileFunction,Copper,L1,Top*%
%TF.FilePolarity,Positive*%
%FSLAX46Y46*%
G04 Gerber Fmt 4.6, Leading zero omitted, Abs format (unit mm)*
G04 Created by KiCad (PCBNEW 9.0.2) date 2025-06-21 17:17:58*
%MOMM*%
%LPD*%
G01*
G04 APERTURE LIST*
G04 Aperture macros list*
%AMRoundRect*
0 Rectangle with rounded corners*
0 $1 Rounding radius*
0 $2 $3 $4 $5 $6 $7 $8 $9 X,Y pos of 4 corners*
0 Add a 4 corners polygon primitive as box body*
4,1,4,$2,$3,$4,$5,$6,$7,$8,$9,$2,$3,0*
0 Add four circle primitives for the rounded corners*
1,1,$1+$1,$2,$3*
1,1,$1+$1,$4,$5*
1,1,$1+$1,$6,$7*
1,1,$1+$1,$8,$9*
0 Add four rect primitives between the rounded corners*
20,1,$1+$1,$2,$3,$4,$5,0*
20,1,$1+$1,$4,$5,$6,$7,0*
20,1,$1+$1,$6,$7,$8,$9,0*
20,1,$1+$1,$8,$9,$2,$3,0*%
G04 Aperture macros list end*
%TA.AperFunction,ComponentPad*%
%ADD10C,1.600000*%
%TD*%
%TA.AperFunction,ComponentPad*%
%ADD11RoundRect,0.249999X-0.850001X0.850001X-0.850001X-0.850001X0.850001X-0.850001X0.850001X0.850001X0*%
%TD*%
%TA.AperFunction,ComponentPad*%
%ADD12C,2.200000*%
%TD*%
%TA.AperFunction,ComponentPad*%
%ADD13RoundRect,0.249999X0.850001X-0.850001X0.850001X0.850001X-0.850001X0.850001X-0.850001X-0.850001X0*%
%TD*%
%TA.AperFunction,ComponentPad*%
%ADD14R,2.000000X2.000000*%
%TD*%
%TA.AperFunction,ComponentPad*%
%ADD15O,2.000000X1.600000*%
%TD*%
%TA.AperFunction,SMDPad,CuDef*%
%ADD16RoundRect,0.300000X-0.700000X-0.700000X0.700000X-0.700000X0.700000X0.700000X-0.700000X0.700000X0*%
%TD*%
%TA.AperFunction,ComponentPad*%
%ADD17C,1.530000*%
%TD*%
%TA.AperFunction,ComponentPad*%
%ADD18R,1.800000X1.800000*%
%TD*%
%TA.AperFunction,ComponentPad*%
%ADD19C,1.800000*%
%TD*%
%TA.AperFunction,SMDPad,CuDef*%
%ADD20O,1.500000X2.500000*%
%TD*%
%TA.AperFunction,ComponentPad*%
%ADD21O,2.000000X3.000000*%
%TD*%
%TA.AperFunction,ViaPad*%
%ADD22C,0.650000*%
%TD*%
%TA.AperFunction,ViaPad*%
%ADD23C,1.200000*%
%TD*%
%TA.AperFunction,Conductor*%
%ADD24C,0.800000*%
%TD*%
%TA.AperFunction,Conductor*%
%ADD25C,0.250000*%
%TD*%
%TA.AperFunction,Conductor*%
%ADD26C,0.600000*%
%TD*%
G04 APERTURE END LIST*
D10*
%TO.P,R1,1*%
%TO.N,Net-(U1-A0)*%
X185220000Y-101450000D03*
%TO.P,R1,2*%
%TO.N,/B+*%
X185220000Y-93830000D03*
%TD*%
D11*
%TO.P,D3,1,K*%
%TO.N,+5V*%
X128250000Y-109320000D03*
D12*
%TO.P,D3,2,A*%
%TO.N,/OUT+*%
X128250000Y-119480000D03*
%TD*%
D11*
%TO.P,D2,1,K*%
%TO.N,+5V*%
X125000000Y-109320000D03*
D12*
%TO.P,D2,2,A*%
%TO.N,/IN+*%
X125000000Y-119480000D03*
%TD*%
D13*
%TO.P,D1,1,K*%
%TO.N,/GP_LED*%
X124950000Y-97790000D03*
D12*
%TO.P,D1,2,A*%
%TO.N,Net-(D1-A)*%
X124950000Y-87630000D03*
%TD*%
D13*
%TO.P,D4,1,K*%
%TO.N,/GP_LED*%
X128200000Y-97790000D03*
D12*
%TO.P,D4,2,A*%
%TO.N,/PWR_LED*%
X128200000Y-87630000D03*
%TD*%
D14*
%TO.P,U1,1,~{RST}*%
%TO.N,unconnected-(U1-~{RST}-Pad1)*%
X131905000Y-96570000D03*
D15*
%TO.P,U1,2,A0*%
%TO.N,Net-(U1-A0)*%
X131905000Y-99110000D03*
%TO.P,U1,3,D0*%
%TO.N,Net-(U1-D0)*%
X131905000Y-101650000D03*
%TO.P,U1,4,SCK/D5*%
%TO.N,/SCL*%
X131905000Y-104190000D03*
%TO.P,U1,5,MISO/D6*%
%TO.N,unconnected-(U1-MISO{slash}D6-Pad5)*%
X131905000Y-106730000D03*
%TO.P,U1,6,MOSI/D7*%
%TO.N,unconnected-(U1-MOSI{slash}D7-Pad6)*%
X131905000Y-109270000D03*
%TO.P,U1,7,CS/D8*%
%TO.N,unconnected-(U1-CS{slash}D8-Pad7)*%
X131905000Y-111810000D03*
%TO.P,U1,8,3V3*%
%TO.N,+3.3V*%
X131905000Y-114350000D03*
%TO.P,U1,9,5V*%
%TO.N,+5V*%
X154765000Y-114350000D03*
%TO.P,U1,10,GND*%
%TO.N,/SW_GND*%
X154765000Y-111810000D03*
%TO.P,U1,11,D4*%
%TO.N,unconnected-(U1-D4-Pad11)*%
X154765000Y-109270000D03*
%TO.P,U1,12,D3*%
%TO.N,unconnected-(U1-D3-Pad12)*%
X154765000Y-106730000D03*
%TO.P,U1,13,SDA/D2*%
%TO.N,/INT*%
X154765000Y-104190000D03*
%TO.P,U1,14,SCL/D1*%
%TO.N,/SDA*%
X154765000Y-101650000D03*
%TO.P,U1,15,RX*%
%TO.N,unconnected-(U1-RX-Pad15)*%
X154765000Y-99110000D03*
%TO.P,U1,16,TX*%
%TO.N,unconnected-(U1-TX-Pad16)*%
X154765000Y-96570000D03*
%TD*%
D16*
%TO.P,U3,1,OUT+*%
%TO.N,/OUT+*%
X162600000Y-121010000D03*
%TO.P,U3,2,B+*%
%TO.N,/B+*%
X162600000Y-117810000D03*
%TO.P,U3,3,B-*%
%TO.N,GND*%
X162600000Y-110510000D03*
%TO.P,U3,4,OUT-*%
X162600000Y-107310000D03*
%TO.P,U3,5,IN+*%
%TO.N,/IN+*%
X185300000Y-121010000D03*
%TO.P,U3,6,IN-*%
%TO.N,GND*%
X185300000Y-107310000D03*
%TD*%
D17*
%TO.P,U2,1,VCC*%
%TO.N,+3.3V*%
X158120000Y-103920000D03*
%TO.P,U2,2,GND*%
%TO.N,/SW_GND*%
X160660000Y-103920000D03*
%TO.P,U2,3,SCL*%
%TO.N,/SCL*%
X163200000Y-103920000D03*
%TO.P,U2,4,SDA*%
%TO.N,/SDA*%
X165740000Y-103920000D03*
%TO.P,U2,5,ADO*%
%TO.N,/SW_GND*%
X168280000Y-103920000D03*
%TO.P,U2,6,CS*%
%TO.N,unconnected-(U2-CS-Pad6)*%
X170820000Y-103920000D03*
%TO.P,U2,7,INT*%
%TO.N,/INT*%
X173360000Y-103920000D03*
%TO.P,U2,8,RST*%
%TO.N,unconnected-(U2-RST-Pad8)*%
X175900000Y-103920000D03*
%TO.P,U2,9,PS1*%
%TO.N,unconnected-(U2-PS1-Pad9)*%
X178440000Y-103920000D03*
%TO.P,U2,10,PS0*%
%TO.N,unconnected-(U2-PS0-Pad10)*%
X180980000Y-103920000D03*
%TD*%
D18*
%TO.P,D5,1,K*%
%TO.N,GND*%
X126590000Y-104835000D03*
D19*
%TO.P,D5,2,A*%
%TO.N,/GP_LED*%
X126590000Y-102295000D03*
%TD*%
D20*
%TO.P,U4,1,+*%
%TO.N,/B+*%
X186490000Y-91040000D03*
%TO.P,U4,2,-*%
%TO.N,GND*%
X183990000Y-91040000D03*
%TD*%
D10*
%TO.P,R3,1*%
%TO.N,/IN+*%
X159330000Y-117890000D03*
%TO.P,R3,2*%
%TO.N,/PWR_LED*%
X159330000Y-110270000D03*
%TD*%
D17*
%TO.P,SW1,1,A*%
%TO.N,GND*%
X172800000Y-86920000D03*
%TO.P,SW1,2,B*%
%TO.N,/SW_GND*%
X170800000Y-86920000D03*
D21*
%TO.P,SW1,3*%
%TO.N,N/C*%
X168650000Y-86920000D03*
D17*
%TO.P,SW1,4*%
X174800000Y-86920000D03*
D21*
%TO.P,SW1,5*%
X176950000Y-86920000D03*
%TD*%
D10*
%TO.P,R2,1*%
%TO.N,Net-(U1-D0)*%
X165310000Y-85950000D03*
%TO.P,R2,2*%
%TO.N,Net-(D1-A)*%
X157690000Y-85950000D03*
%TD*%
D22*
%TO.N,/B+*%
X186490000Y-91040000D03*
D23*
%TO.N,GND*%
X183990000Y-91040000D03*
%TO.N,/IN+*%
X185300000Y-121010000D03*
%TO.N,GND*%
X162600000Y-110510000D03*
X162600000Y-107310000D03*
X185300000Y-107310000D03*
D22*
%TO.N,Net-(U1-D0)*%
X165260000Y-100270000D03*
%TD*%
D24*
%TO.N,/B+*%
X172120000Y-117810000D02*
X163190000Y-117810000D01*
X163190000Y-117810000D02*
X162885000Y-117505000D01*
X186840000Y-103090000D02*
X172120000Y-117810000D01*
X186840000Y-91390000D02*
X186840000Y-103090000D01*
X186490000Y-91040000D02*
X186840000Y-91390000D01*
D25*
%TO.N,/PWR_LED*%
X159330000Y-110390000D02*
X159220000Y-110500000D01*
X156110001Y-85970001D02*
X159330000Y-89190000D01*
X159330000Y-89190000D02*
X159330000Y-110390000D01*
X129309999Y-85970001D02*
X156110001Y-85970001D01*
X128210000Y-87070000D02*
X129309999Y-85970001D01*
X128210000Y-87510000D02*
X128210000Y-87070000D01*
%TO.N,Net-(D1-A)*%
X124960000Y-87070000D02*
X124960000Y-87510000D01*
X156770000Y-85030000D02*
X127000000Y-85030000D01*
X127000000Y-85030000D02*
X124960000Y-87070000D01*
X157640000Y-85900000D02*
X156770000Y-85030000D01*
D26*
%TO.N,+3.3V*%
X158030000Y-115700000D02*
X158030000Y-104040000D01*
X158150000Y-103920000D02*
X158500000Y-103920000D01*
X155850000Y-117880000D02*
X158030000Y-115700000D01*
X133020000Y-117880000D02*
X155850000Y-117880000D01*
X131905000Y-116765000D02*
X133020000Y-117880000D01*
X131905000Y-114350000D02*
X131905000Y-116765000D01*
X158030000Y-104040000D02*
X158150000Y-103920000D01*
%TO.N,/OUT+*%
X129920000Y-121100000D02*
X128300000Y-119480000D01*
X162510000Y-121100000D02*
X129920000Y-121100000D01*
X162600000Y-121010000D02*
X162510000Y-121100000D01*
D25*
%TO.N,Net-(U1-D0)*%
X165260000Y-86670000D02*
X165260000Y-100270000D01*
X165260000Y-100270000D02*
X165260000Y-100310000D01*
%TD*%
%TA.AperFunction,Conductor*%
%TO.N,/SW_GND*%
G36*
X164599000Y-84650185D02*
G01*
X164644755Y-84702989D01*
X164654699Y-84772147D01*
X164625674Y-84835703D01*
X164604848Y-84854816D01*
X164552627Y-84892757D01*
X164462780Y-84958034D01*
X164318028Y-85102786D01*
X164197715Y-85268386D01*
X164104781Y-85450776D01*
X164041522Y-85645465D01*
X164009500Y-85847648D01*
X164009500Y-86052351D01*
X164041522Y-86254534D01*
X164104781Y-86449223D01*
X164163452Y-86564370D01*
X164196780Y-86629779D01*
X164197715Y-86631613D01*
X164318028Y-86797213D01*
X164462784Y-86941969D01*
X164538073Y-86996668D01*
X164583384Y-87029589D01*
X164626051Y-87084918D01*
X164634500Y-87129907D01*
X164634500Y-99682650D01*
X164614815Y-99749689D01*
X164613603Y-99751540D01*
X164528450Y-99878982D01*
X164466225Y-100029206D01*
X164466222Y-100029216D01*
X164434500Y-100188692D01*
X164434500Y-100188695D01*
X164434500Y-100351305D01*
X164434500Y-100351307D01*
X164434499Y-100351307D01*
X164466222Y-100510783D01*
X164466225Y-100510793D01*
X164528450Y-100661019D01*
X164528452Y-100661023D01*
X164618788Y-100796220D01*
X164618794Y-100796228D01*
X164733771Y-100911205D01*
X164733779Y-100911211D01*
X164868976Y-101001547D01*
X164868980Y-101001549D01*
X165019206Y-101063774D01*
X165019211Y-101063776D01*
X165019215Y-101063776D01*
X165019216Y-101063777D01*
X165178692Y-101095500D01*
X165178695Y-101095500D01*
X165341307Y-101095500D01*
X165448598Y-101074157D01*
X165500789Y-101063776D01*
X165651021Y-101001548D01*
X165651023Y-101001547D01*
X165718169Y-100956680D01*
X165786225Y-100911208D01*
X165901208Y-100796225D01*
X165991548Y-100661021D01*
X166053776Y-100510789D01*
X166080095Y-100378477D01*
X166085500Y-100351307D01*
X166085500Y-100188692D01*
X166053777Y-100029216D01*
X166053776Y-100029215D01*
X166053776Y-100029211D01*
X165991548Y-99878979D01*
X165933170Y-99791610D01*
X165906397Y-99751540D01*
X165885520Y-99684862D01*
X165885500Y-99682650D01*
X165885500Y-87192339D01*
X165905185Y-87125300D01*
X165953204Y-87081855D01*
X165991610Y-87062287D01*
X166157219Y-86941966D01*
X166301966Y-86797219D01*
X166301968Y-86797215D01*
X166301971Y-86797213D01*
X166354732Y-86724590D01*
X166422287Y-86631610D01*
X166515220Y-86449219D01*
X166563087Y-86301902D01*
X167149500Y-86301902D01*
X167149500Y-87538097D01*
X167186446Y-87771368D01*
X167259433Y-87995996D01*
X167340113Y-88154338D01*
X167366657Y-88206433D01*
X167505483Y-88397510D01*
X167672490Y-88564517D01*
X167863567Y-88703343D01*
X167888942Y-88716272D01*
X168074003Y-88810566D01*
X168074005Y-88810566D01*
X168074008Y-88810568D01*
X168194412Y-88849689D01*
X168298631Y-88883553D01*
X168531903Y-88920500D01*
X168531908Y-88920500D01*
X168768097Y-88920500D01*
X169001368Y-88883553D01*
X169225992Y-88810568D01*
X169436433Y-88703343D01*
X169627510Y-88564517D01*
X169794517Y-88397510D01*
X169933343Y-88206433D01*
X170001747Y-88072181D01*
X170049721Y-88021385D01*
X170117542Y-88004590D01*
X170168527Y-88017992D01*
X170314399Y-88092318D01*
X170314401Y-88092319D01*
X170503777Y-88153852D01*
X170700437Y-88185000D01*
X170899563Y-88185000D01*
X171096222Y-88153852D01*
X171285594Y-88092320D01*
X171463005Y-88001924D01*
X171500863Y-87974418D01*
X171500863Y-87974417D01*
X170929408Y-87402962D01*
X170992993Y-87385925D01*
X171107007Y-87320099D01*
X171200099Y-87227007D01*
X171265925Y-87112993D01*
X171282962Y-87049408D01*
X171601202Y-87367648D01*
X171624096Y-87401905D01*
X171625004Y-87401443D01*
X171717645Y-87583264D01*
X171752822Y-87631681D01*
X171834731Y-87744418D01*
X171975582Y-87885269D01*
X172136734Y-88002353D01*
X172313302Y-88092319D01*
X172314219Y-88092786D01*
X172503657Y-88154338D01*
X172503658Y-88154338D01*
X172503661Y-88154339D01*
X172700403Y-88185500D01*
X172700404Y-88185500D01*
X172899596Y-88185500D01*
X172899597Y-88185500D01*
X173096339Y-88154339D01*
X173096342Y-88154338D01*
X173096343Y-88154338D01*
X173285780Y-88092786D01*
X173285780Y-88092785D01*
X173285783Y-88092785D01*
X173463266Y-88002353D01*
X173624418Y-87885269D01*
X173712319Y-87797368D01*
X173773642Y-87763883D01*
X173843334Y-87768867D01*
X173887681Y-87797368D01*
X173975582Y-87885269D01*
X174136734Y-88002353D01*
X174313302Y-88092319D01*
X174314219Y-88092786D01*
X174503657Y-88154338D01*
X174503658Y-88154338D01*
X174503661Y-88154339D01*
X174700403Y-88185500D01*
X174700404Y-88185500D01*
X174899596Y-88185500D01*
X174899597Y-88185500D01*
X175096339Y-88154339D01*
X175096342Y-88154338D01*
X175096343Y-88154338D01*
X175263577Y-88100000D01*
X175285783Y-88092785D01*
X175431700Y-88018436D01*
X175500368Y-88005540D01*
X175565108Y-88031816D01*
X175598478Y-88072625D01*
X175666657Y-88206433D01*
X175805483Y-88397510D01*
X175972490Y-88564517D01*
X176163567Y-88703343D01*
X176188942Y-88716272D01*
X176374003Y-88810566D01*
X176374005Y-88810566D01*
X176374008Y-88810568D01*
X176494412Y-88849689D01*
X176598631Y-88883553D01*
X176831903Y-88920500D01*
X176831908Y-88920500D01*
X177068097Y-88920500D01*
X177301368Y-88883553D01*
X177525992Y-88810568D01*
X177736433Y-88703343D01*
X177927510Y-88564517D01*
X178094517Y-88397510D01*
X178233343Y-88206433D01*
X178337327Y-88002352D01*
X178340566Y-87995996D01*
X178340566Y-87995995D01*
X178340568Y-87995992D01*
X178413553Y-87771368D01*
X178413949Y-87768867D01*
X178450500Y-87538097D01*
X178450500Y-86301902D01*
X178413553Y-86068631D01*
X178347577Y-85865580D01*
X178340568Y-85844008D01*
X178340566Y-85844005D01*
X178340566Y-85844003D01*
X178244518Y-85655500D01*
X178233343Y-85633567D01*
X178094517Y-85442490D01*
X177927510Y-85275483D01*
X177736433Y-85136657D01*
X177525996Y-85029433D01*
X177301368Y-84956446D01*
X177068097Y-84919500D01*
X177068092Y-84919500D01*
X176831908Y-84919500D01*
X176831903Y-84919500D01*
X176598631Y-84956446D01*
X176374003Y-85029433D01*
X176163566Y-85136657D01*
X176131438Y-85160000D01*
X175972490Y-85275483D01*
X175972488Y-85275485D01*
X175972487Y-85275485D01*
X175805485Y-85442487D01*
X175805485Y-85442488D01*
X175805483Y-85442490D01*
X175745862Y-85524550D01*
X175666657Y-85633566D01*
X175598479Y-85767373D01*
X175550504Y-85818169D01*
X175482683Y-85834964D01*
X175431699Y-85821563D01*
X175285780Y-85747213D01*
X175096342Y-85685661D01*
X174948782Y-85662290D01*
X174899597Y-85654500D01*
X174700403Y-85654500D01*
X174634822Y-85664887D01*
X174503659Y-85685661D01*
X174503656Y-85685661D01*
X174314219Y-85747213D01*
X174136733Y-85837647D01*
X174057263Y-85895386D01*
X173975582Y-85954731D01*
X173975580Y-85954733D01*
X173975579Y-85954733D01*
X173887681Y-86042632D01*
X173826358Y-86076117D01*
X173756666Y-86071133D01*
X173712319Y-86042632D01*
X173624420Y-85954733D01*
X173624418Y-85954731D01*
X173463266Y-85837647D01*
X173432573Y-85822008D01*
X173285780Y-85747213D01*
X173096342Y-85685661D01*
X172948782Y-85662290D01*
X172899597Y-85654500D01*
X172700403Y-85654500D01*
X172634822Y-85664887D01*
X172503659Y-85685661D01*
X172503656Y-85685661D01*
X172314219Y-85747213D01*
X172136733Y-85837647D01*
X172057263Y-85895386D01*
X171975582Y-85954731D01*
X171975580Y-85954733D01*
X171975579Y-85954733D01*
X171834733Y-86095579D01*
X171834733Y-86095580D01*
X171834731Y-86095582D01*
X171800000Y-86143385D01*
X171717647Y-86256733D01*
X171625004Y-86438557D01*
X171624098Y-86438095D01*
X171601202Y-86472350D01*
X171282962Y-86790590D01*
X171265925Y-86727007D01*
X171200099Y-86612993D01*
X171107007Y-86519901D01*
X170992993Y-86454075D01*
X170929407Y-86437036D01*
X171500864Y-85865580D01*
X171463008Y-85838077D01*
X171285594Y-85747679D01*
X171096222Y-85686147D01*
X170899563Y-85655000D01*
X170700437Y-85655000D01*
X170503777Y-85686147D01*
X170314405Y-85747679D01*
X170168527Y-85822008D01*
X170099858Y-85834904D01*
X170035117Y-85808628D01*
X170001747Y-85767818D01*
X169933343Y-85633567D01*
X169794517Y-85442490D01*
X169627510Y-85275483D01*
X169436433Y-85136657D01*
X169225996Y-85029433D01*
X169001368Y-84956446D01*
X168768097Y-84919500D01*
X168768092Y-84919500D01*
X168531908Y-84919500D01*
X168531903Y-84919500D01*
X168298631Y-84956446D01*
X168074003Y-85029433D01*
X167863566Y-85136657D01*
X167831438Y-85160000D01*
X167672490Y-85275483D01*
X167672488Y-85275485D01*
X167672487Y-85275485D01*
X167505485Y-85442487D01*
X167505485Y-85442488D01*
X167505483Y-85442490D01*
X167445862Y-85524550D01*
X167366657Y-85633566D01*
X167259433Y-85844003D01*
X167186446Y-86068631D01*
X167149500Y-86301902D01*
X166563087Y-86301902D01*
X166577763Y-86256734D01*
X166578475Y-86254541D01*
X166578475Y-86254539D01*
X166578477Y-86254534D01*
X166610500Y-86052352D01*
X166610500Y-85847648D01*
X166597856Y-85767818D01*
X166578477Y-85645465D01*
X166515218Y-85450776D01*
X166481503Y-85384607D01*
X166422287Y-85268390D01*
X166414556Y-85257749D01*
X166301971Y-85102786D01*
X166157219Y-84958034D01*
X166104181Y-84919500D01*
X166015153Y-84854818D01*
X165972488Y-84799489D01*
X165966509Y-84729875D01*
X165999114Y-84668080D01*
X166059953Y-84633723D01*
X166088039Y-84630500D01*
X181694108Y-84630500D01*
X181753039Y-84630500D01*
X181766922Y-84631279D01*
X181863940Y-84642211D01*
X181891009Y-84648390D01*
X181976555Y-84678324D01*
X182001571Y-84690371D01*
X182078309Y-84738588D01*
X182100019Y-84755901D01*
X182164098Y-84819980D01*
X182181411Y-84841690D01*
X182229628Y-84918428D01*
X182241675Y-84943444D01*
X182271609Y-85028990D01*
X182277788Y-85056060D01*
X182288720Y-85153076D01*
X182289500Y-85166961D01*
X182289500Y-88209462D01*
X182320655Y-88426157D01*
X182320658Y-88426167D01*
X182346443Y-88513980D01*
X182382336Y-88636221D01*
X182413353Y-88704139D01*
X182473280Y-88835363D01*
X182473283Y-88835368D01*
X182591641Y-89019536D01*
X182735008Y-89184991D01*
X182900463Y-89328358D01*
X183084636Y-89446719D01*
X183084647Y-89446724D01*
X183088121Y-89448621D01*
X183137531Y-89498022D01*
X183152389Y-89566294D01*
X183127978Y-89631760D01*
X183116386Y-89645140D01*
X183036171Y-89725355D01*
X182920476Y-89884594D01*
X182831117Y-90059970D01*
X182770290Y-90247173D01*
X182739500Y-90441577D01*
X182739500Y-91638422D01*
X182770290Y-91832826D01*
X182831117Y-92020029D01*
X182920476Y-92195405D01*
X183036172Y-92354646D01*
X183175354Y-92493828D01*
X183334595Y-92609524D01*
X183364537Y-92624780D01*
X183509970Y-92698882D01*
X183509972Y-92698882D01*
X183509975Y-92698884D01*
X183610317Y-92731487D01*
X183697173Y-92759709D01*
X183891578Y-92790500D01*
X183891583Y-92790500D01*
X184088420Y-92790500D01*
X184108375Y-92787339D01*
X184177668Y-92796293D01*
X184231121Y-92841288D01*
X184251762Y-92908039D01*
X184233038Y-92975353D01*
X184228094Y-92982696D01*
X184107714Y-93148387D01*
X184014781Y-93330776D01*
X183951522Y-93525465D01*
X183919500Y-93727648D01*
X183919500Y-93932351D01*
X183951522Y-94134534D01*
X184014781Y-94329223D01*
X184107715Y-94511613D01*
X184228028Y-94677213D01*
X184372786Y-94821971D01*
X184500499Y-94914758D01*
X184538390Y-94942287D01*
X184654607Y-95001503D01*
X184720776Y-95035218D01*
X184720778Y-95035218D01*
X184720781Y-95035220D01*
X184825137Y-95069127D01*
X184915465Y-95098477D01*
X185016557Y-95114488D01*
X185117648Y-95130500D01*
X185117649Y-95130500D01*
X185322351Y-95130500D01*
X185322352Y-95130500D01*
X185524534Y-95098477D01*
X185719219Y-95035220D01*
X185759205Y-95014845D01*
X185827874Y-95001950D01*
X185892614Y-95028226D01*
X185932872Y-95085332D01*
X185939500Y-95125331D01*
X185939500Y-100154668D01*
X185919815Y-100221707D01*
X185867011Y-100267462D01*
X185797853Y-100277406D01*
X185759207Y-100265154D01*
X185719223Y-100244782D01*
X185719222Y-100244781D01*
X185719219Y-100244780D01*
X185639035Y-100218726D01*
X185524534Y-100181522D01*
X185349995Y-100153878D01*
X185322352Y-100149500D01*
X185117648Y-100149500D01*
X185093329Y-100153351D01*
X184915465Y-100181522D01*
X184720776Y-100244781D01*
X184538386Y-100337715D01*
X184372786Y-100458028D01*
X184228028Y-100602786D01*
X184107715Y-100768386D01*
X184014781Y-100950776D01*
X183951522Y-101145465D01*
X183919500Y-101347648D01*
X183919500Y-101552351D01*
X183951522Y-101754534D01*
X184014781Y-101949223D01*
X184107715Y-102131613D01*
X184228028Y-102297213D01*
X184372786Y-102441971D01*
X184500499Y-102534758D01*
X184538390Y-102562287D01*
X184629320Y-102608618D01*
X184720776Y-102655218D01*
X184720778Y-102655218D01*
X184720781Y-102655220D01*
X184783680Y-102675657D01*
X184915465Y-102718477D01*
X184996779Y-102731356D01*
X185117648Y-102750500D01*
X185117649Y-102750500D01*
X185322351Y-102750500D01*
X185322352Y-102750500D01*
X185524534Y-102718477D01*
X185645822Y-102679067D01*
X185715660Y-102677072D01*
X185775493Y-102713152D01*
X185806322Y-102775853D01*
X185798358Y-102845267D01*
X185771819Y-102884680D01*
X171783319Y-116873181D01*
X171721996Y-116906666D01*
X171695638Y-116909500D01*
X164165917Y-116909500D01*
X164098878Y-116889815D01*
X164053123Y-116837011D01*
X164048875Y-116826454D01*
X164025789Y-116760478D01*
X164025788Y-116760476D01*
X163929816Y-116607738D01*
X163802262Y-116480184D01*
X163727841Y-116433422D01*
X163649523Y-116384211D01*
X163479254Y-116324631D01*
X163479249Y-116324630D01*
X163344960Y-116309500D01*
X163344954Y-116309500D01*
X161855046Y-116309500D01*
X161855039Y-116309500D01*
X161720750Y-116324630D01*
X161720745Y-116324631D01*
X161550476Y-116384211D01*
X161397737Y-116480184D01*
X161270184Y-116607737D01*
X161174211Y-116760476D01*
X161114631Y-116930745D01*
X161114630Y-116930750D01*
X161099500Y-117065039D01*
X161099500Y-118554960D01*
X161114630Y-118689249D01*
X161114631Y-118689254D01*
X161174211Y-118859523D01*
X161240279Y-118964669D01*
X161270184Y-119012262D01*
X161397738Y-119139816D01*
X161550478Y-119235789D01*
X161550480Y-119235790D01*
X161713857Y-119292959D01*
X161770633Y-119333680D01*
X161796380Y-119398633D01*
X161782924Y-119467195D01*
X161734536Y-119517597D01*
X161713857Y-119527041D01*
X161550480Y-119584209D01*
X161397737Y-119680184D01*
X161270184Y-119807737D01*
X161174211Y-119960476D01*
X161114631Y-120130745D01*
X161114630Y-120130750D01*
X161108025Y-120189382D01*
X161080959Y-120253797D01*
X161023365Y-120293352D01*
X160984805Y-120299500D01*
X130302940Y-120299500D01*
X130235901Y-120279815D01*
X130215259Y-120263181D01*
X129855187Y-119903109D01*
X129821702Y-119841786D01*
X129820395Y-119796034D01*
X129850500Y-119605962D01*
X129850500Y-119354038D01*
X129811090Y-119105215D01*
X129733241Y-118865621D01*
X129733239Y-118865618D01*
X129733239Y-118865616D01*
X129667588Y-118736770D01*
X129618870Y-118641155D01*
X129556246Y-118554960D01*
X129470798Y-118437350D01*
X129470794Y-118437345D01*
X129292654Y-118259205D01*
X129292649Y-118259201D01*
X129088848Y-118111132D01*
X129088847Y-118111131D01*
X129088845Y-118111130D01*
X129018747Y-118075413D01*
X128864383Y-117996760D01*
X128624785Y-117918910D01*
X128375962Y-117879500D01*
X128124038Y-117879500D01*
X127999626Y-117899205D01*
X127875214Y-117918910D01*
X127635616Y-117996760D01*
X127411151Y-118111132D01*
X127207350Y-118259201D01*
X127207345Y-118259205D01*
X127029205Y-118437345D01*
X127029201Y-118437350D01*
X126881132Y-118641151D01*
X126766760Y-118865616D01*
X126742931Y-118938956D01*
X126703493Y-118996631D01*
X126639134Y-119023829D01*
X126570288Y-119011914D01*
X126518812Y-118964669D01*
X126507069Y-118938956D01*
X126483239Y-118865616D01*
X126417588Y-118736770D01*
X126368870Y-118641155D01*
X126306246Y-118554960D01*
X126220798Y-118437350D01*
X126220794Y-118437345D01*
X126042654Y-118259205D01*
X126042649Y-118259201D01*
X125838848Y-118111132D01*
X125838847Y-118111131D01*
X125838845Y-118111130D01*
X125768747Y-118075413D01*
X125614383Y-117996760D01*
X125374785Y-117918910D01*
X125125962Y-117879500D01*
X124874038Y-117879500D01*
X124749626Y-117899205D01*
X124625214Y-117918910D01*
X124385616Y-117996760D01*
X124161151Y-118111132D01*
X123957350Y-118259201D01*
X123957345Y-118259205D01*
X123779205Y-118437345D01*
X123764818Y-118457148D01*
X123709487Y-118499813D01*
X123639874Y-118505792D01*
X123578079Y-118473186D01*
X123543722Y-118412347D01*
X123540500Y-118384262D01*
X123540500Y-110898013D01*
X123560185Y-110830974D01*
X123612989Y-110785219D01*
X123682147Y-110775275D01*
X123729594Y-110792472D01*
X123830665Y-110854814D01*
X123997202Y-110909999D01*
X124099990Y-110920500D01*
X124099995Y-110920500D01*
X125900005Y-110920500D01*
X125900010Y-110920500D01*
X126002798Y-110909999D01*
X126169335Y-110854814D01*
X126318656Y-110762712D01*
X126442712Y-110638656D01*
X126519462Y-110514223D01*
X126571409Y-110467501D01*
X126640372Y-110456278D01*
X126704454Y-110484122D01*
X126730536Y-110514222D01*
X126807288Y-110638656D01*
X126931344Y-110762712D01*
X127080665Y-110854814D01*
X127247202Y-110909999D01*
X127349990Y-110920500D01*
X127349995Y-110920500D01*
X129150005Y-110920500D01*
X129150010Y-110920500D01*
X129252798Y-110909999D01*
X129419335Y-110854814D01*
X129568656Y-110762712D01*
X129692712Y-110638656D01*
X129784814Y-110489335D01*
X129839999Y-110322798D01*
X129850500Y-110220010D01*
X129850500Y-108419990D01*
X129839999Y-108317202D01*
X129784814Y-108150665D01*
X129692712Y-108001344D01*
X129568656Y-107877288D01*
X129475890Y-107820070D01*
X129419337Y-107785187D01*
X129419332Y-107785185D01*
X129417863Y-107784698D01*
X129252798Y-107730001D01*
X129252796Y-107730000D01*
X129150017Y-107719500D01*
X129150010Y-107719500D01*
X127349990Y-107719500D01*
X127349982Y-107719500D01*
X127247203Y-107730000D01*
X127247202Y-107730001D01*
X127211034Y-107741986D01*
X127080667Y-107785185D01*
X127080662Y-107785187D01*
X126931342Y-107877289D01*
X126807289Y-108001342D01*
X126730539Y-108125774D01*
X126678591Y-108172499D01*
X126609628Y-108183720D01*
X126545546Y-108155877D01*
X126519461Y-108125774D01*
X126485951Y-108071446D01*
X126442712Y-108001344D01*
X126318656Y-107877288D01*
X126225890Y-107820070D01*
X126169337Y-107785187D01*
X126169332Y-107785185D01*
X126167863Y-107784698D01*
X126002798Y-107730001D01*
X126002796Y-107730000D01*
X125900017Y-107719500D01*
X125900010Y-107719500D01*
X124099990Y-107719500D01*
X124099982Y-107719500D01*
X123997203Y-107730000D01*
X123997202Y-107730001D01*
X123961034Y-107741986D01*
X123830667Y-107785185D01*
X123830658Y-107785189D01*
X123729596Y-107847525D01*
X123662204Y-107865965D01*
X123595540Y-107845042D01*
X123550771Y-107791400D01*
X123540500Y-107741986D01*
X123540500Y-102184778D01*
X125189500Y-102184778D01*
X125189500Y-102405222D01*
X125204070Y-102497213D01*
X125223985Y-102622952D01*
X125292103Y-102832603D01*
X125292104Y-102832606D01*
X125392187Y-103029025D01*
X125521752Y-103207358D01*
X125521756Y-103207363D01*
X125571928Y-103257535D01*
X125605413Y-103318858D01*
X125600429Y-103388550D01*
X125558557Y-103444483D01*
X125527581Y-103461398D01*
X125447669Y-103491203D01*
X125447664Y-103491206D01*
X125332455Y-103577452D01*
X125332452Y-103577455D01*
X125246206Y-103692664D01*
X125246202Y-103692671D01*
X125195908Y-103827517D01*
X125189501Y-103887116D01*
X125189501Y-103887123D01*
X125189500Y-103887135D01*
X125189500Y-105782870D01*
X125189501Y-105782876D01*
X125195908Y-105842483D01*
X125246202Y-105977328D01*
X125246206Y-105977335D01*
X125332452Y-106092544D01*
X125332455Y-106092547D01*
X125447664Y-106178793D01*
X125447671Y-106178797D01*
X125582517Y-106229091D01*
X125582516Y-106229091D01*
X125589444Y-106229835D01*
X125642127Y-106235500D01*
X127537872Y-106235499D01*
X127597483Y-106229091D01*
X127732331Y-106178796D01*
X127847546Y-106092546D01*
X127933796Y-105977331D01*
X127984091Y-105842483D01*
X127990500Y-105782873D01*
X127990499Y-103887128D01*
X127984091Y-103827517D01*
X127946603Y-103727007D01*
X127933797Y-103692671D01*
X127933793Y-103692664D01*
X127847547Y-103577455D01*
X127847544Y-103577452D01*
X127732335Y-103491206D01*
X127732328Y-103491202D01*
X127652419Y-103461398D01*
X127596485Y-103419527D01*
X127572068Y-103354062D01*
X127586920Y-103285789D01*
X127608069Y-103257537D01*
X127658242Y-103207365D01*
X127787815Y-103029022D01*
X127887895Y-102832606D01*
X127956015Y-102622951D01*
X127990500Y-102405222D01*
X127990500Y-102184778D01*
X127956015Y-101967049D01*
X127887895Y-101757394D01*
X127887895Y-101757393D01*
X127853237Y-101689375D01*
X127787815Y-101560978D01*
X127771260Y-101538192D01*
X127658247Y-101382641D01*
X127658243Y-101382636D01*
X127502363Y-101226756D01*
X127502358Y-101226752D01*
X127324025Y-101097187D01*
X127324024Y-101097186D01*
X127324022Y-101097185D01*
X127258450Y-101063774D01*
X127127606Y-100997104D01*
X127127603Y-100997103D01*
X126917952Y-100928985D01*
X126805693Y-100911205D01*
X126700222Y-100894500D01*
X126479778Y-100894500D01*
X126407201Y-100905995D01*
X126262047Y-100928985D01*
X126052396Y-100997103D01*
X126052393Y-100997104D01*
X125855974Y-101097187D01*
X125677641Y-101226752D01*
X125677636Y-101226756D01*
X125521756Y-101382636D01*
X125521752Y-101382641D01*
X125392187Y-101560974D01*
X125292104Y-101757393D01*
X125292103Y-101757396D01*
X125223985Y-101967047D01*
X125195132Y-102149219D01*
X125189500Y-102184778D01*
X123540500Y-102184778D01*
X123540500Y-99398853D01*
X123560185Y-99331814D01*
X123612989Y-99286059D01*
X123682147Y-99276115D01*
X123729597Y-99293315D01*
X123780656Y-99324809D01*
X123780659Y-99324810D01*
X123780665Y-99324814D01*
X123947202Y-99379999D01*
X124049990Y-99390500D01*
X124049995Y-99390500D01*
X125850005Y-99390500D01*
X125850010Y-99390500D01*
X125952798Y-99379999D01*
X126119335Y-99324814D01*
X126268656Y-99232712D01*
X126392712Y-99108656D01*
X126469462Y-98984223D01*
X126521409Y-98937501D01*
X126590372Y-98926278D01*
X126654454Y-98954122D01*
X126680536Y-98984222D01*
X126757288Y-99108656D01*
X126881344Y-99232712D01*
X127030665Y-99324814D01*
X127197202Y-99379999D01*
X127299990Y-99390500D01*
X127299995Y-99390500D01*
X129100005Y-99390500D01*
X129100010Y-99390500D01*
X129202798Y-99379999D01*
X129369335Y-99324814D01*
X129518656Y-99232712D01*
X129642712Y-99108656D01*
X129734814Y-98959335D01*
X129789999Y-98792798D01*
X129800500Y-98690010D01*
X129800500Y-96889990D01*
X129789999Y-96787202D01*
X129734814Y-96620665D01*
X129642712Y-96471344D01*
X129518656Y-96347288D01*
X129369335Y-96255186D01*
X129202798Y-96200001D01*
X129202796Y-96200000D01*
X129100017Y-96189500D01*
X129100010Y-96189500D01*
X127299990Y-96189500D01*
X127299982Y-96189500D01*
X127197203Y-96200000D01*
X127197202Y-96200001D01*
X127114669Y-96227349D01*
X127030667Y-96255185D01*
X127030662Y-96255187D01*
X126881342Y-96347289D01*
X126757289Y-96471342D01*
X126680539Y-96595774D01*
X126628591Y-96642499D01*
X126559628Y-96653720D01*
X126495546Y-96625877D01*
X126469461Y-96595774D01*
X126392712Y-96471344D01*
X126268656Y-96347288D01*
X126119335Y-96255186D01*
X125952798Y-96200001D01*
X125952796Y-96200000D01*
X125850017Y-96189500D01*
X125850010Y-96189500D01*
X124049990Y-96189500D01*
X124049982Y-96189500D01*
X123947203Y-96200000D01*
X123947202Y-96200001D01*
X123864669Y-96227349D01*
X123780667Y-96255185D01*
X123780658Y-96255189D01*
X123729596Y-96286685D01*
X123662204Y-96305125D01*
X123595540Y-96284202D01*
X123550771Y-96230560D01*
X123540500Y-96181146D01*
X123540500Y-88783311D01*
X123560185Y-88716272D01*
X123612989Y-88670517D01*
X123682147Y-88660573D01*
X123745703Y-88689598D01*
X123752181Y-88695630D01*
X123907345Y-88850794D01*
X123907350Y-88850798D01*
X124018623Y-88931642D01*
X124111155Y-88998870D01*
X124254184Y-89071747D01*
X124335616Y-89113239D01*
X124335618Y-89113239D01*
X124335621Y-89113241D01*
X124575215Y-89191090D01*
X124824038Y-89230500D01*
X124824039Y-89230500D01*
X125075961Y-89230500D01*
X125075962Y-89230500D01*
X125324785Y-89191090D01*
X125564379Y-89113241D01*
X125788845Y-88998870D01*
X125992656Y-88850793D01*
X126170793Y-88672656D01*
X126318870Y-88468845D01*
X126433241Y-88244379D01*
X126457069Y-88171041D01*
X126496507Y-88113368D01*
X126560866Y-88086170D01*
X126629712Y-88098085D01*
X126681188Y-88145329D01*
X126692931Y-88171043D01*
X126716760Y-88244383D01*
X126760253Y-88329741D01*
X126809384Y-88426167D01*
X126831132Y-88468848D01*
X126979201Y-88672649D01*
X126979205Y-88672654D01*
X127157345Y-88850794D01*
X127157350Y-88850798D01*
X127268623Y-88931642D01*
X127361155Y-88998870D01*
X127504184Y-89071747D01*
X127585616Y-89113239D01*
X127585618Y-89113239D01*
X127585621Y-89113241D01*
X127825215Y-89191090D01*
X128074038Y-89230500D01*
X128074039Y-89230500D01*
X128325961Y-89230500D01*
X128325962Y-89230500D01*
X128574785Y-89191090D01*
X128814379Y-89113241D01*
X129038845Y-88998870D01*
X129242656Y-88850793D01*
X129420793Y-88672656D01*
X129568870Y-88468845D01*
X129683241Y-88244379D01*
X129761090Y-88004785D01*
X129800500Y-87755962D01*
X129800500Y-87504038D01*
X129761090Y-87255215D01*
X129683241Y-87015621D01*
X129683239Y-87015618D01*
X129683239Y-87015616D01*
X129618124Y-86887821D01*
X129568870Y-86791155D01*
X129568868Y-86791153D01*
X129568865Y-86791146D01*
X129566324Y-86786999D01*
X129567570Y-86786235D01*
X129546285Y-86726582D01*
X129562109Y-86658528D01*
X129612214Y-86609832D01*
X129670083Y-86595501D01*
X155799549Y-86595501D01*
X155866588Y-86615186D01*
X155887230Y-86631820D01*
X158668181Y-89412771D01*
X158701666Y-89474094D01*
X158704500Y-89500452D01*
X158704500Y-102608618D01*
X158684815Y-102675657D01*
X158632011Y-102721412D01*
X158562853Y-102731356D01*
X158542182Y-102726549D01*
X158416342Y-102685661D01*
X158268782Y-102662290D01*
X158219597Y-102654500D01*
X158020403Y-102654500D01*
X157954822Y-102664887D01*
X157823659Y-102685661D01*
X157823656Y-102685661D01*
X157634219Y-102747213D01*
X157456733Y-102837647D01*
X157364790Y-102904447D01*
X157295582Y-102954731D01*
X157295580Y-102954733D01*
X157295579Y-102954733D01*
X157154733Y-103095579D01*
X157154733Y-103095580D01*
X157154731Y-103095582D01*
X157104447Y-103164790D01*
X157037647Y-103256733D01*
X156947213Y-103434219D01*
X156885661Y-103623656D01*
X156885661Y-103623659D01*
X156854500Y-103820403D01*
X156854500Y-104019596D01*
X156885661Y-104216340D01*
X156885661Y-104216343D01*
X156947213Y-104405780D01*
X156960485Y-104431827D01*
X157037647Y-104583266D01*
X157154731Y-104744418D01*
X157154733Y-104744420D01*
X157193181Y-104782868D01*
X157226666Y-104844191D01*
X157229500Y-104870549D01*
X157229500Y-115317060D01*
X157209815Y-115384099D01*
X157193181Y-115404741D01*
X155554741Y-117043181D01*
X155493418Y-117076666D01*
X155467060Y-117079500D01*
X133402940Y-117079500D01*
X133335901Y-117059815D01*
X133315259Y-117043181D01*
X132741819Y-116469741D01*
X132708334Y-116408418D01*
X132705500Y-116382060D01*
X132705500Y-115579601D01*
X132725185Y-115512562D01*
X132773206Y-115469116D01*
X132786610Y-115462287D01*
X132952219Y-115341966D01*
X133096966Y-115197219D01*
X133096968Y-115197215D01*
X133096971Y-115197213D01*
X133149732Y-115124590D01*
X133217287Y-115031610D01*
X133310220Y-114849219D01*
X133373477Y-114654534D01*
X133405500Y-114452352D01*
X133405500Y-114247648D01*
X133373477Y-114045466D01*
X133310220Y-113850781D01*
X133310218Y-113850778D01*
X133310218Y-113850776D01*
X133276503Y-113784607D01*
X133217287Y-113668390D01*
X133209556Y-113657749D01*
X133096971Y-113502786D01*
X132952213Y-113358028D01*
X132786614Y-113237715D01*
X132780006Y-113234348D01*
X132693917Y-113190483D01*
X132643123Y-113142511D01*
X132626328Y-113074690D01*
X132648865Y-113008555D01*
X132693917Y-112969516D01*
X132786610Y-112922287D01*
X132807770Y-112906913D01*
X132952213Y-112801971D01*
X132952215Y-112801968D01*
X132952219Y-112801966D01*
X133096966Y-112657219D01*
X133096968Y-112657215D01*
X133096971Y-112657213D01*
X133149732Y-112584590D01*
X133217287Y-112491610D01*
X133310220Y-112309219D01*
X133373477Y-112114534D01*
X133405500Y-111912352D01*
X133405500Y-111707648D01*
X133383778Y-111570500D01*
X133373477Y-111505465D01*
X133344127Y-111415137D01*
X133310220Y-111310781D01*
X133310218Y-111310778D01*
X133310218Y-111310776D01*
X133217419Y-111128650D01*
X133217287Y-111128390D01*
X133209167Y-111117213D01*
X133096971Y-110962786D01*
X132952213Y-110818028D01*
X132786614Y-110697715D01*
X132780006Y-110694348D01*
X132693917Y-110650483D01*
X132643123Y-110602511D01*
X132626328Y-110534690D01*
X132648865Y-110468555D01*
X132693917Y-110429516D01*
X132786610Y-110382287D01*
X132807770Y-110366913D01*
X132952213Y-110261971D01*
X132952215Y-110261968D01*
X132952219Y-110261966D01*
X133096966Y-110117219D01*
X133096968Y-110117215D01*
X133096971Y-110117213D01*
X133149732Y-110044590D01*
X133217287Y-109951610D01*
X133310220Y-109769219D01*
X133373477Y-109574534D01*
X133405500Y-109372352D01*
X133405500Y-109167648D01*
X133392284Y-109084209D01*
X133373477Y-108965465D01*
X133344127Y-108875137D01*
X133310220Y-108770781D01*
X133310218Y-108770778D01*
X133310218Y-108770776D01*
X133276503Y-108704607D01*
X133217287Y-108588390D01*
X133209556Y-108577749D01*
X133096971Y-108422786D01*
X132952213Y-108278028D01*
X132786614Y-108157715D01*
X132772781Y-108150667D01*
X132693917Y-108110483D01*
X132643123Y-108062511D01*
X132626328Y-107994690D01*
X132648865Y-107928555D01*
X132693917Y-107889516D01*
X132786610Y-107842287D01*
X132856651Y-107791400D01*
X132952213Y-107721971D01*
X132952215Y-107721968D01*
X132952219Y-107721966D01*
X133096966Y-107577219D01*
X133096968Y-107577215D01*
X133096971Y-107577213D01*
X133149732Y-107504590D01*
X133217287Y-107411610D01*
X133310220Y-107229219D01*
X133373477Y-107034534D01*
X133405500Y-106832352D01*
X133405500Y-106627648D01*
X133373477Y-106425466D01*
X133310220Y-106230781D01*
X133310218Y-106230778D01*
X133310218Y-106230776D01*
X133247526Y-106107738D01*
X133217287Y-106048390D01*
X133165663Y-105977335D01*
X133096971Y-105882786D01*
X132952213Y-105738028D01*
X132786614Y-105617715D01*
X132780006Y-105614348D01*
X132693917Y-105570483D01*
X132643123Y-105522511D01*
X132626328Y-105454690D01*
X132648865Y-105388555D01*
X132693917Y-105349516D01*
X132786610Y-105302287D01*
X132807770Y-105286913D01*
X132952213Y-105181971D01*
X132952215Y-105181968D01*
X132952219Y-105181966D01*
X133096966Y-105037219D01*
X133096968Y-105037215D01*
X133096971Y-105037213D01*
X133207365Y-104885266D01*
X133217287Y-104871610D01*
X133310220Y-104689219D01*
X133373477Y-104494534D01*
X133405500Y-104292352D01*
X133405500Y-104087648D01*
X133394722Y-104019597D01*
X133373477Y-103885465D01*
X133335823Y-103769580D01*
X133310220Y-103690781D01*
X133310218Y-103690778D01*
X133310218Y-103690776D01*
X133246868Y-103566446D01*
X133217287Y-103508390D01*
X133181380Y-103458968D01*
X133096971Y-103342786D01*
X132952213Y-103198028D01*
X132786614Y-103077715D01*
X132780006Y-103074348D01*
X132693917Y-103030483D01*
X132643123Y-102982511D01*
X132626328Y-102914690D01*
X132648865Y-102848555D01*
X132693917Y-102809516D01*
X132786610Y-102762287D01*
X132854239Y-102713152D01*
X132952213Y-102641971D01*
X132952215Y-102641968D01*
X132952219Y-102641966D01*
X133096966Y-102497219D01*
X133096968Y-102497215D01*
X133096971Y-102497213D01*
X133163806Y-102405221D01*
X133217287Y-102331610D01*
X133310220Y-102149219D01*
X133373477Y-101954534D01*
X133405500Y-101752352D01*
X133405500Y-101547648D01*
X133373477Y-101345466D01*
X133310220Y-101150781D01*
X133310218Y-101150778D01*
X133310218Y-101150776D01*
X133265889Y-101063777D01*
X133217287Y-100968390D01*
X133188658Y-100928985D01*
X133096971Y-100802786D01*
X132952213Y-100658028D01*
X132786614Y-100537715D01*
X132780006Y-100534348D01*
X132693917Y-100490483D01*
X132643123Y-100442511D01*
X132626328Y-100374690D01*
X132648865Y-100308555D01*
X132693917Y-100269516D01*
X132786610Y-100222287D01*
X132832850Y-100188692D01*
X132952213Y-100101971D01*
X132952215Y-100101968D01*
X132952219Y-100101966D01*
X133096966Y-99957219D01*
X133096968Y-99957215D01*
X133096971Y-99957213D01*
X133153810Y-99878979D01*
X133217287Y-99791610D01*
X133310220Y-99609219D01*
X133373477Y-99414534D01*
X133405500Y-99212352D01*
X133405500Y-99007648D01*
X133373477Y-98805466D01*
X133369360Y-98792796D01*
X133310218Y-98610776D01*
X133276503Y-98544607D01*
X133217287Y-98428390D01*
X133209556Y-98417749D01*
X133096971Y-98262786D01*
X133065736Y-98231551D01*
X133032251Y-98170228D01*
X133037235Y-98100536D01*
X133079107Y-98044603D01*
X133110080Y-98027689D01*
X133147331Y-98013796D01*
X133262546Y-97927546D01*
X133348796Y-97812331D01*
X133399091Y-97677483D01*
X133405500Y-97617873D01*
X133405499Y-95522128D01*
X133399091Y-95462517D01*
X133397300Y-95457715D01*
X133352401Y-95337333D01*
X133347417Y-95267641D01*
X133380902Y-95206318D01*
X133442226Y-95172834D01*
X133468583Y-95170000D01*
X153931561Y-95170000D01*
X153998600Y-95189685D01*
X154044355Y-95242489D01*
X154054299Y-95311647D01*
X154025274Y-95375203D01*
X153987856Y-95404485D01*
X153883385Y-95457715D01*
X153717786Y-95578028D01*
X153573028Y-95722786D01*
X153452715Y-95888386D01*
X153359781Y-96070776D01*
X153296522Y-96265465D01*
X153264500Y-96467648D01*
X153264500Y-96672351D01*
X153296522Y-96874534D01*
X153359781Y-97069223D01*
X153452715Y-97251613D01*
X153573028Y-97417213D01*
X153717786Y-97561971D01*
X153872749Y-97674556D01*
X153883390Y-97682287D01*
X153974840Y-97728883D01*
X153976080Y-97729515D01*
X154026876Y-97777490D01*
X154043671Y-97845311D01*
X154021134Y-97911446D01*
X153976080Y-97950485D01*
X153883386Y-97997715D01*
X153717786Y-98118028D01*
X153573028Y-98262786D01*
X153452715Y-98428386D01*
X153359781Y-98610776D01*
X153296522Y-98805465D01*
X153264500Y-99007648D01*
X153264500Y-99212351D01*
X153296522Y-99414534D01*
X153359781Y-99609223D01*
X153452715Y-99791613D01*
X153573028Y-99957213D01*
X153717786Y-100101971D01*
X153837150Y-100188692D01*
X153883390Y-100222287D01*
X153967521Y-100265154D01*
X153976080Y-100269515D01*
X154026876Y-100317490D01*
X154043671Y-100385311D01*
X154021134Y-100451446D01*
X153976080Y-100490485D01*
X153883386Y-100537715D01*
X153717786Y-100658028D01*
X153573028Y-100802786D01*
X153452715Y-100968386D01*
X153359781Y-101150776D01*
X153296522Y-101345465D01*
X153264500Y-101547648D01*
X153264500Y-101752352D01*
X153265299Y-101757394D01*
X153296522Y-101954534D01*
X153359781Y-102149223D01*
X153452715Y-102331613D01*
X153573028Y-102497213D01*
X153717786Y-102641971D01*
X153862642Y-102747213D01*
X153883390Y-102762287D01*
X153952525Y-102797513D01*
X153976080Y-102809515D01*
X154026876Y-102857490D01*
X154043671Y-102925311D01*
X154021134Y-102991446D01*
X153976080Y-103030485D01*
X153883386Y-103077715D01*
X153717786Y-103198028D01*
X153573028Y-103342786D01*
X153452715Y-103508386D01*
X153359781Y-103690776D01*
X153296522Y-103885465D01*
X153264500Y-104087648D01*
X153264500Y-104292351D01*
X153296522Y-104494534D01*
X153359781Y-104689223D01*
X153423691Y-104814653D01*
X153452172Y-104870549D01*
X153452715Y-104871613D01*
X153573028Y-105037213D01*
X153717786Y-105181971D01*
X153872749Y-105294556D01*
X153883390Y-105302287D01*
X153974840Y-105348883D01*
X153976080Y-105349515D01*
X154026876Y-105397490D01*
X154043671Y-105465311D01*
X154021134Y-105531446D01*
X153976080Y-105570485D01*
X153883386Y-105617715D01*
X153717786Y-105738028D01*
X153573028Y-105882786D01*
X153452715Y-106048386D01*
X153359781Y-106230776D01*
X153296522Y-106425465D01*
X153264500Y-106627648D01*
X153264500Y-106832351D01*
X153296522Y-107034534D01*
X153359781Y-107229223D01*
X153452715Y-107411613D01*
X153573028Y-107577213D01*
X153717786Y-107721971D01*
X153813349Y-107791400D01*
X153883390Y-107842287D01*
X153974840Y-107888883D01*
X153976080Y-107889515D01*
X154026876Y-107937490D01*
X154043671Y-108005311D01*
X154021134Y-108071446D01*
X153976080Y-108110485D01*
X153883386Y-108157715D01*
X153717786Y-108278028D01*
X153573028Y-108422786D01*
X153452715Y-108588386D01*
X153359781Y-108770776D01*
X153296522Y-108965465D01*
X153264500Y-109167648D01*
X153264500Y-109372351D01*
X153296522Y-109574534D01*
X153359781Y-109769223D01*
X153452715Y-109951613D01*
X153573028Y-110117213D01*
X153717786Y-110261971D01*
X153872749Y-110374556D01*
X153883390Y-110382287D01*
X153955424Y-110418990D01*
X153976629Y-110429795D01*
X154027425Y-110477770D01*
X154044220Y-110545591D01*
X154021682Y-110611726D01*
X153976629Y-110650765D01*
X153883650Y-110698140D01*
X153718105Y-110818417D01*
X153718104Y-110818417D01*
X153573417Y-110963104D01*
X153573417Y-110963105D01*
X153453140Y-111128650D01*
X153360244Y-111310970D01*
X153297009Y-111505586D01*
X153288391Y-111560000D01*
X154389722Y-111560000D01*
X154345667Y-111636306D01*
X154315000Y-111750756D01*
X154315000Y-111869244D01*
X154345667Y-111983694D01*
X154389722Y-112060000D01*
X153288391Y-112060000D01*
X153297009Y-112114413D01*
X153360244Y-112309029D01*
X153453140Y-112491349D01*
X153573417Y-112656894D01*
X153573417Y-112656895D01*
X153718104Y-112801582D01*
X153883652Y-112921861D01*
X153976628Y-112969234D01*
X154027425Y-113017208D01*
X154044220Y-113085029D01*
X154021683Y-113151164D01*
X153976630Y-113190203D01*
X153883388Y-113237713D01*
X153717786Y-113358028D01*
X153573028Y-113502786D01*
X153452715Y-113668386D01*
X153359781Y-113850776D01*
X153296522Y-114045465D01*
X153264500Y-114247648D01*
X153264500Y-114452351D01*
X153296522Y-114654534D01*
X153359781Y-114849223D01*
X153452715Y-115031613D01*
X153573028Y-115197213D01*
X153717786Y-115341971D01*
X153872749Y-115454556D01*
X153883390Y-115462287D01*
X153964499Y-115503614D01*
X154065776Y-115555218D01*
X154065778Y-115555218D01*
X154065781Y-115555220D01*
X154140818Y-115579601D01*
X154260465Y-115618477D01*
X154361557Y-115634488D01*
X154462648Y-115650500D01*
X154462649Y-115650500D01*
X155067351Y-115650500D01*
X155067352Y-115650500D01*
X155269534Y-115618477D01*
X155464219Y-115555220D01*
X155646610Y-115462287D01*
X155739590Y-115394732D01*
X155812213Y-115341971D01*
X155812215Y-115341968D01*
X155812219Y-115341966D01*
X155956966Y-115197219D01*
X155956968Y-115197215D01*
X155956971Y-115197213D01*
X156009732Y-115124590D01*
X156077287Y-115031610D01*
X156170220Y-114849219D01*
X156233477Y-114654534D01*
X156265500Y-114452352D01*
X156265500Y-114247648D01*
X156233477Y-114045466D01*
X156170220Y-113850781D01*
X156170218Y-113850778D01*
X156170218Y-113850776D01*
X156136503Y-113784607D01*
X156077287Y-113668390D01*
X156069556Y-113657749D01*
X155956971Y-113502786D01*
X155812213Y-113358028D01*
X155646611Y-113237713D01*
X155553369Y-113190203D01*
X155502574Y-113142229D01*
X155485779Y-113074407D01*
X155508317Y-113008273D01*
X155553371Y-112969234D01*
X155646347Y-112921861D01*
X155811894Y-112801582D01*
X155811895Y-112801582D01*
X155956582Y-112656895D01*
X155956582Y-112656894D01*
X156076859Y-112491349D01*
X156169755Y-112309029D01*
X156232990Y-112114413D01*
X156241609Y-112060000D01*
X155140278Y-112060000D01*
X155184333Y-111983694D01*
X155215000Y-111869244D01*
X155215000Y-111750756D01*
X155184333Y-111636306D01*
X155140278Y-111560000D01*
X156241609Y-111560000D01*
X156232990Y-111505586D01*
X156169755Y-111310970D01*
X156076859Y-111128650D01*
X155956582Y-110963105D01*
X155956582Y-110963104D01*
X155811895Y-110818417D01*
X155646349Y-110698140D01*
X155553370Y-110650765D01*
X155502574Y-110602790D01*
X155485779Y-110534969D01*
X155508316Y-110468835D01*
X155553370Y-110429795D01*
X155553920Y-110429515D01*
X155646610Y-110382287D01*
X155667770Y-110366913D01*
X155812213Y-110261971D01*
X155812215Y-110261968D01*
X155812219Y-110261966D01*
X155956966Y-110117219D01*
X155956968Y-110117215D01*
X155956971Y-110117213D01*
X156009732Y-110044590D01*
X156077287Y-109951610D01*
X156170220Y-109769219D01*
X156233477Y-109574534D01*
X156265500Y-109372352D01*
X156265500Y-109167648D01*
X156252284Y-109084209D01*
X156233477Y-108965465D01*
X156204127Y-108875137D01*
X156170220Y-108770781D01*
X156170218Y-108770778D01*
X156170218Y-108770776D01*
X156136503Y-108704607D01*
X156077287Y-108588390D01*
X156069556Y-108577749D01*
X155956971Y-108422786D01*
X155812213Y-108278028D01*
X155646614Y-108157715D01*
X155632781Y-108150667D01*
X155553917Y-108110483D01*
X155503123Y-108062511D01*
X155486328Y-107994690D01*
X155508865Y-107928555D01*
X155553917Y-107889516D01*
X155646610Y-107842287D01*
X155716651Y-107791400D01*
X155812213Y-107721971D01*
X155812215Y-107721968D01*
X155812219Y-107721966D01*
X155956966Y-107577219D01*
X155956968Y-107577215D01*
X155956971Y-107577213D01*
X156009732Y-107504590D01*
X156077287Y-107411610D01*
X156170220Y-107229219D01*
X156233477Y-107034534D01*
X156265500Y-106832352D01*
X156265500Y-106627648D01*
X156233477Y-106425466D01*
X156170220Y-106230781D01*
X156170218Y-106230778D01*
X156170218Y-106230776D01*
X156107526Y-106107738D01*
X156077287Y-106048390D01*
X156025663Y-105977335D01*
X155956971Y-105882786D01*
X155812213Y-105738028D01*
X155646614Y-105617715D01*
X155640006Y-105614348D01*
X155553917Y-105570483D01*
X155503123Y-105522511D01*
X155486328Y-105454690D01*
X155508865Y-105388555D01*
X155553917Y-105349516D01*
X155646610Y-105302287D01*
X155667770Y-105286913D01*
X155812213Y-105181971D01*
X155812215Y-105181968D01*
X155812219Y-105181966D01*
X155956966Y-105037219D01*
X155956968Y-105037215D01*
X155956971Y-105037213D01*
X156067365Y-104885266D01*
X156077287Y-104871610D01*
X156170220Y-104689219D01*
X156233477Y-104494534D01*
X156265500Y-104292352D01*
X156265500Y-104087648D01*
X156254722Y-104019597D01*
X156233477Y-103885465D01*
X156195823Y-103769580D01*
X156170220Y-103690781D01*
X156170218Y-103690778D01*
X156170218Y-103690776D01*
X156106868Y-103566446D01*
X156077287Y-103508390D01*
X156041380Y-103458968D01*
X155956971Y-103342786D01*
X155812213Y-103198028D01*
X155646614Y-103077715D01*
X155640006Y-103074348D01*
X155553917Y-103030483D01*
X155503123Y-102982511D01*
X155486328Y-102914690D01*
X155508865Y-102848555D01*
X155553917Y-102809516D01*
X155646610Y-102762287D01*
X155714239Y-102713152D01*
X155812213Y-102641971D01*
X155812215Y-102641968D01*
X155812219Y-102641966D01*
X155956966Y-102497219D01*
X155956968Y-102497215D01*
X155956971Y-102497213D01*
X156023806Y-102405221D01*
X156077287Y-102331610D01*
X156170220Y-102149219D01*
X156233477Y-101954534D01*
X156265500Y-101752352D01*
X156265500Y-101547648D01*
X156233477Y-101345466D01*
X156170220Y-101150781D01*
X156170218Y-101150778D01*
X156170218Y-101150776D01*
X156125889Y-101063777D01*
X156077287Y-100968390D01*
X156048658Y-100928985D01*
X155956971Y-100802786D01*
X155812213Y-100658028D01*
X155646614Y-100537715D01*
X155640006Y-100534348D01*
X155553917Y-100490483D01*
X155503123Y-100442511D01*
X155486328Y-100374690D01*
X155508865Y-100308555D01*
X155553917Y-100269516D01*
X155646610Y-100222287D01*
X155692850Y-100188692D01*
X155812213Y-100101971D01*
X155812215Y-100101968D01*
X155812219Y-100101966D01*
X155956966Y-99957219D01*
X155956968Y-99957215D01*
X155956971Y-99957213D01*
X156013810Y-99878979D01*
X156077287Y-99791610D01*
X156170220Y-99609219D01*
X156233477Y-99414534D01*
X156265500Y-99212352D01*
X156265500Y-99007648D01*
X156233477Y-98805466D01*
X156229360Y-98792796D01*
X156170218Y-98610776D01*
X156136503Y-98544607D01*
X156077287Y-98428390D01*
X156069556Y-98417749D01*
X155956971Y-98262786D01*
X155812213Y-98118028D01*
X155646614Y-97997715D01*
X155640006Y-97994348D01*
X155553917Y-97950483D01*
X155503123Y-97902511D01*
X155486328Y-97834690D01*
X155508865Y-97768555D01*
X155553917Y-97729516D01*
X155646610Y-97682287D01*
X155667770Y-97666913D01*
X155812213Y-97561971D01*
X155812215Y-97561968D01*
X155812219Y-97561966D01*
X155956966Y-97417219D01*
X155956968Y-97417215D01*
X155956971Y-97417213D01*
X156009732Y-97344590D01*
X156077287Y-97251610D01*
X156170220Y-97069219D01*
X156233477Y-96874534D01*
X156265500Y-96672352D01*
X156265500Y-96467648D01*
X156246437Y-96347288D01*
X156233477Y-96265465D01*
X156170218Y-96070776D01*
X156136503Y-96004607D01*
X156077287Y-95888390D01*
X156069556Y-95877749D01*
X155956971Y-95722786D01*
X155812213Y-95578028D01*
X155646614Y-95457715D01*
X155542144Y-95404485D01*
X155491348Y-95356510D01*
X155474553Y-95288689D01*
X155497090Y-95222555D01*
X155551805Y-95179103D01*
X155598439Y-95170000D01*
X156155000Y-95170000D01*
X156155000Y-88370000D01*
X130555000Y-88370000D01*
X130555000Y-95161102D01*
X130535315Y-95228141D01*
X130530267Y-95235413D01*
X130461203Y-95327669D01*
X130461202Y-95327671D01*
X130410908Y-95462517D01*
X130404501Y-95522116D01*
X130404501Y-95522123D01*
X130404500Y-95522135D01*
X130404500Y-97617870D01*
X130404501Y-97617876D01*
X130410908Y-97677483D01*
X130461202Y-97812328D01*
X130461206Y-97812335D01*
X130547452Y-97927544D01*
X130547455Y-97927547D01*
X130662664Y-98013793D01*
X130662673Y-98013798D01*
X130699914Y-98027688D01*
X130755848Y-98069559D01*
X130780266Y-98135023D01*
X130765415Y-98203296D01*
X130744265Y-98231550D01*
X130713027Y-98262787D01*
X130592715Y-98428386D01*
X130499781Y-98610776D01*
X130436522Y-98805465D01*
X130404500Y-99007648D01*
X130404500Y-99212351D01*
X130436522Y-99414534D01*
X130499781Y-99609223D01*
X130592715Y-99791613D01*
X130713028Y-99957213D01*
X130857786Y-100101971D01*
X130977150Y-100188692D01*
X131023390Y-100222287D01*
X131107521Y-100265154D01*
X131116080Y-100269515D01*
X131166876Y-100317490D01*
X131183671Y-100385311D01*
X131161134Y-100451446D01*
X131116080Y-100490485D01*
X131023386Y-100537715D01*
X130857786Y-100658028D01*
X130713028Y-100802786D01*
X130592715Y-100968386D01*
X130499781Y-101150776D01*
X130436522Y-101345465D01*
X130404500Y-101547648D01*
X130404500Y-101752352D01*
X130405299Y-101757394D01*
X130436522Y-101954534D01*
X130499781Y-102149223D01*
X130592715Y-102331613D01*
X130713028Y-102497213D01*
X130857786Y-102641971D01*
X131002642Y-102747213D01*
X131023390Y-102762287D01*
X131092525Y-102797513D01*
X131116080Y-102809515D01*
X131166876Y-102857490D01*
X131183671Y-102925311D01*
X131161134Y-102991446D01*
X131116080Y-103030485D01*
X131023386Y-103077715D01*
X130857786Y-103198028D01*
X130713028Y-103342786D01*
X130592715Y-103508386D01*
X130499781Y-103690776D01*
X130436522Y-103885465D01*
X130404500Y-104087648D01*
X130404500Y-104292351D01*
X130436522Y-104494534D01*
X130499781Y-104689223D01*
X130563691Y-104814653D01*
X130592172Y-104870549D01*
X130592715Y-104871613D01*
X130713028Y-105037213D01*
X130857786Y-105181971D01*
X131012749Y-105294556D01*
X131023390Y-105302287D01*
X131114840Y-105348883D01*
X131116080Y-105349515D01*
X131166876Y-105397490D01*
X131183671Y-105465311D01*
X131161134Y-105531446D01*
X131116080Y-105570485D01*
X131023386Y-105617715D01*
X130857786Y-105738028D01*
X130713028Y-105882786D01*
X130592715Y-106048386D01*
X130499781Y-106230776D01*
X130436522Y-106425465D01*
X130404500Y-106627648D01*
X130404500Y-106832351D01*
X130436522Y-107034534D01*
X130499781Y-107229223D01*
X130592715Y-107411613D01*
X130713028Y-107577213D01*
X130857786Y-107721971D01*
X130953349Y-107791400D01*
X131023390Y-107842287D01*
X131114840Y-107888883D01*
X131116080Y-107889515D01*
X131166876Y-107937490D01*
X131183671Y-108005311D01*
X131161134Y-108071446D01*
X131116080Y-108110485D01*
X131023386Y-108157715D01*
X130857786Y-108278028D01*
X130713028Y-108422786D01*
X130592715Y-108588386D01*
X130499781Y-108770776D01*
X130436522Y-108965465D01*
X130404500Y-109167648D01*
X130404500Y-109372351D01*
X130436522Y-109574534D01*
X130499781Y-109769223D01*
X130592715Y-109951613D01*
X130713028Y-110117213D01*
X130857786Y-110261971D01*
X131012749Y-110374556D01*
X131023390Y-110382287D01*
X131114840Y-110428883D01*
X131116080Y-110429515D01*
X131166876Y-110477490D01*
X131183671Y-110545311D01*
X131161134Y-110611446D01*
X131116080Y-110650485D01*
X131023386Y-110697715D01*
X130857786Y-110818028D01*
X130713028Y-110962786D01*
X130592715Y-111128386D01*
X130499781Y-111310776D01*
X130436522Y-111505465D01*
X130404500Y-111707648D01*
X130404500Y-111912351D01*
X130436522Y-112114534D01*
X130499781Y-112309223D01*
X130592715Y-112491613D01*
X130713028Y-112657213D01*
X130857786Y-112801971D01*
X131012749Y-112914556D01*
X131023390Y-112922287D01*
X131114840Y-112968883D01*
X131116080Y-112969515D01*
X131166876Y-113017490D01*
X131183671Y-113085311D01*
X131161134Y-113151446D01*
X131116080Y-113190485D01*
X131023386Y-113237715D01*
X130857786Y-113358028D01*
X130713028Y-113502786D01*
X130592715Y-113668386D01*
X130499781Y-113850776D01*
X130436522Y-114045465D01*
X130404500Y-114247648D01*
X130404500Y-114452351D01*
X130436522Y-114654534D01*
X130499781Y-114849223D01*
X130592715Y-115031613D01*
X130713028Y-115197213D01*
X130713034Y-115197219D01*
X130857781Y-115341966D01*
X131023390Y-115462287D01*
X131036793Y-115469116D01*
X131087589Y-115517088D01*
X131104500Y-115579601D01*
X131104500Y-116843846D01*
X131135261Y-116998489D01*
X131135264Y-116998501D01*
X131195602Y-117144172D01*
X131195609Y-117144185D01*
X131283210Y-117275288D01*
X131283213Y-117275292D01*
X132398211Y-118390289D01*
X132465070Y-118457148D01*
X132509712Y-118501790D01*
X132640814Y-118589390D01*
X132640827Y-118589397D01*
X132765774Y-118641151D01*
X132765784Y-118641155D01*
X132786503Y-118649737D01*
X132786506Y-118649737D01*
X132786511Y-118649739D01*
X132941153Y-118680499D01*
X132941156Y-118680500D01*
X132941158Y-118680500D01*
X155928844Y-118680500D01*
X155928845Y-118680499D01*
X156083497Y-118649737D01*
X156229179Y-118589394D01*
X156360289Y-118501789D01*
X156750948Y-118111130D01*
X157074431Y-117787648D01*
X158029500Y-117787648D01*
X158029500Y-117992351D01*
X158061522Y-118194534D01*
X158124781Y-118389223D01*
X158182136Y-118501786D01*
X158209229Y-118554960D01*
X158217715Y-118571613D01*
X158338028Y-118737213D01*
X158482786Y-118881971D01*
X158637749Y-118994556D01*
X158648390Y-119002287D01*
X158764607Y-119061503D01*
X158830776Y-119095218D01*
X158830778Y-119095218D01*
X158830781Y-119095220D01*
X158935137Y-119129127D01*
X159025465Y-119158477D01*
X159126557Y-119174488D01*
X159227648Y-119190500D01*
X159227649Y-119190500D01*
X159432351Y-119190500D01*
X159432352Y-119190500D01*
X159634534Y-119158477D01*
X159829219Y-119095220D01*
X160011610Y-119002287D01*
X160104590Y-118934732D01*
X160177213Y-118881971D01*
X160177215Y-118881968D01*
X160177219Y-118881966D01*
X160321966Y-118737219D01*
X160321968Y-118737215D01*
X160321971Y-118737213D01*
X160385525Y-118649737D01*
X160442287Y-118571610D01*
X160535220Y-118389219D01*
X160598477Y-118194534D01*
X160630500Y-117992352D01*
X160630500Y-117787648D01*
X160598477Y-117585466D01*
X160535220Y-117390781D01*
X160535218Y-117390778D01*
X160535218Y-117390776D01*
X160476375Y-117275292D01*
X160442287Y-117208390D01*
X160395640Y-117144185D01*
X160321971Y-117042786D01*
X160177213Y-116898028D01*
X160011613Y-116777715D01*
X160011612Y-116777714D01*
X160011610Y-116777713D01*
X159954653Y-116748691D01*
X159829223Y-116684781D01*
X159634534Y-116621522D01*
X159459995Y-116593878D01*
X159432352Y-116589500D01*
X159227648Y-116589500D01*
X159203329Y-116593351D01*
X159025465Y-116621522D01*
X158830776Y-116684781D01*
X158648386Y-116777715D01*
X158482786Y-116898028D01*
X158338028Y-117042786D01*
X158217715Y-117208386D01*
X158124781Y-117390776D01*
X158061522Y-117585465D01*
X158029500Y-117787648D01*
X157074431Y-117787648D01*
X157166984Y-117695095D01*
X158651786Y-116210292D01*
X158651789Y-116210289D01*
X158739394Y-116079179D01*
X158799738Y-115933497D01*
X158830500Y-115778842D01*
X158830500Y-115621157D01*
X158830500Y-111645800D01*
X158850185Y-111578761D01*
X158902989Y-111533006D01*
X158972147Y-111523062D01*
X158992820Y-111527870D01*
X159025458Y-111538475D01*
X159025461Y-111538475D01*
X159025466Y-111538477D01*
X159227648Y-111570500D01*
X159227649Y-111570500D01*
X159432351Y-111570500D01*
X159432352Y-111570500D01*
X159634534Y-111538477D01*
X159829219Y-111475220D01*
X160011610Y-111382287D01*
X160110037Y-111310776D01*
X160177213Y-111261971D01*
X160177215Y-111261968D01*
X160177219Y-111261966D01*
X160321966Y-111117219D01*
X160321968Y-111117215D01*
X160321971Y-111117213D01*
X160433935Y-110963105D01*
X160442287Y-110951610D01*
X160535220Y-110769219D01*
X160598477Y-110574534D01*
X160630500Y-110372352D01*
X160630500Y-110167648D01*
X160598477Y-109965466D01*
X160535220Y-109770781D01*
X160535218Y-109770778D01*
X160535218Y-109770776D01*
X160501503Y-109704607D01*
X160442287Y-109588390D01*
X160432220Y-109574534D01*
X160321971Y-109422786D01*
X160177213Y-109278028D01*
X160007669Y-109154849D01*
X160008884Y-109153176D01*
X159967831Y-109107792D01*
X159955500Y-109053885D01*
X159955500Y-106565039D01*
X161099500Y-106565039D01*
X161099500Y-108054960D01*
X161114630Y-108189249D01*
X161114631Y-108189254D01*
X161174211Y-108359523D01*
X161213959Y-108422781D01*
X161270184Y-108512262D01*
X161397738Y-108639816D01*
X161550478Y-108735789D01*
X161550480Y-108735790D01*
X161713857Y-108792959D01*
X161770633Y-108833680D01*
X161796380Y-108898633D01*
X161782924Y-108967195D01*
X161734536Y-109017597D01*
X161713857Y-109027041D01*
X161550480Y-109084209D01*
X161397737Y-109180184D01*
X161270184Y-109307737D01*
X161174211Y-109460476D01*
X161114631Y-109630745D01*
X161114630Y-109630750D01*
X161099500Y-109765039D01*
X161099500Y-111254960D01*
X161114630Y-111389249D01*
X161114631Y-111389254D01*
X161174211Y-111559523D01*
X161228423Y-111645800D01*
X161270184Y-111712262D01*
X161397738Y-111839816D01*
X161550478Y-111935789D01*
X161687383Y-111983694D01*
X161720745Y-111995368D01*
X161720750Y-111995369D01*
X161811246Y-112005565D01*
X161855040Y-112010499D01*
X161855043Y-112010500D01*
X161855046Y-112010500D01*
X163344957Y-112010500D01*
X163344958Y-112010499D01*
X163412104Y-112002934D01*
X163479249Y-111995369D01*
X163479252Y-111995368D01*
X163479255Y-111995368D01*
X163649522Y-111935789D01*
X163802262Y-111839816D01*
X163929816Y-111712262D01*
X164025789Y-111559522D01*
X164085368Y-111389255D01*
X164086154Y-111382284D01*
X164092934Y-111322104D01*
X164100500Y-111254954D01*
X164100500Y-109765046D01*
X164085368Y-109630745D01*
X164025789Y-109460478D01*
X163929816Y-109307738D01*
X163802262Y-109180184D01*
X163720999Y-109129123D01*
X163649523Y-109084211D01*
X163486142Y-109027042D01*
X163429366Y-108986320D01*
X163403619Y-108921367D01*
X163417075Y-108852806D01*
X163465462Y-108802403D01*
X163486142Y-108792958D01*
X163649522Y-108735789D01*
X163802262Y-108639816D01*
X163929816Y-108512262D01*
X164025789Y-108359522D01*
X164085368Y-108189255D01*
X164100500Y-108054954D01*
X164100500Y-106565046D01*
X164085368Y-106430745D01*
X164025789Y-106260478D01*
X163929816Y-106107738D01*
X163802262Y-105980184D01*
X163797728Y-105977335D01*
X163649523Y-105884211D01*
X163479254Y-105824631D01*
X163479249Y-105824630D01*
X163344960Y-105809500D01*
X163344954Y-105809500D01*
X161855046Y-105809500D01*
X161855039Y-105809500D01*
X161720750Y-105824630D01*
X161720745Y-105824631D01*
X161550476Y-105884211D01*
X161397737Y-105980184D01*
X161270184Y-106107737D01*
X161174211Y-106260476D01*
X161114631Y-106430745D01*
X161114630Y-106430750D01*
X161099500Y-106565039D01*
X159955500Y-106565039D01*
X159955500Y-105183132D01*
X159975185Y-105116093D01*
X160027989Y-105070338D01*
X160097147Y-105060394D01*
X160135797Y-105072648D01*
X160174406Y-105092321D01*
X160363777Y-105153852D01*
X160560437Y-105185000D01*
X160759563Y-105185000D01*
X160956222Y-105153852D01*
X161145594Y-105092320D01*
X161323005Y-105001924D01*
X161360863Y-104974418D01*
X161360863Y-104974417D01*
X160789408Y-104402962D01*
X160852993Y-104385925D01*
X160967007Y-104320099D01*
X161060099Y-104227007D01*
X161125925Y-104112993D01*
X161142962Y-104049408D01*
X161714417Y-104620863D01*
X161714418Y-104620863D01*
X161741924Y-104583005D01*
X161819234Y-104431277D01*
X161867208Y-104380481D01*
X161935029Y-104363686D01*
X162001164Y-104386223D01*
X162040204Y-104431277D01*
X162117514Y-104583005D01*
X162117647Y-104583266D01*
X162234731Y-104744418D01*
X162375582Y-104885269D01*
X162536734Y-105002353D01*
X162650646Y-105060394D01*
X162714219Y-105092786D01*
X162903657Y-105154338D01*
X162903658Y-105154338D01*
X162903661Y-105154339D01*
X163100403Y-105185500D01*
X163100404Y-105185500D01*
X163299596Y-105185500D01*
X163299597Y-105185500D01*
X163496339Y-105154339D01*
X163496342Y-105154338D01*
X163496343Y-105154338D01*
X163685780Y-105092786D01*
X163685780Y-105092785D01*
X163685783Y-105092785D01*
X163863266Y-105002353D01*
X164024418Y-104885269D01*
X164165269Y-104744418D01*
X164282353Y-104583266D01*
X164359515Y-104431827D01*
X164407490Y-104381031D01*
X164475311Y-104364236D01*
X164541446Y-104386773D01*
X164580485Y-104431827D01*
X164657647Y-104583266D01*
X164774731Y-104744418D01*
X164915582Y-104885269D01*
X165076734Y-105002353D01*
X165190646Y-105060394D01*
X165254219Y-105092786D01*
X165443657Y-105154338D01*
X165443658Y-105154338D01*
X165443661Y-105154339D01*
X165640403Y-105185500D01*
X165640404Y-105185500D01*
X165839596Y-105185500D01*
X165839597Y-105185500D01*
X166036339Y-105154339D01*
X166036342Y-105154338D01*
X166036343Y-105154338D01*
X166225780Y-105092786D01*
X166225780Y-105092785D01*
X166225783Y-105092785D01*
X166403266Y-105002353D01*
X166564418Y-104885269D01*
X166705269Y-104744418D01*
X166822353Y-104583266D01*
X166899795Y-104431276D01*
X166947769Y-104380481D01*
X167015590Y-104363686D01*
X167081725Y-104386223D01*
X167120765Y-104431277D01*
X167198077Y-104583008D01*
X167225580Y-104620863D01*
X167225581Y-104620864D01*
X167797037Y-104049408D01*
X167814075Y-104112993D01*
X167879901Y-104227007D01*
X167972993Y-104320099D01*
X168087007Y-104385925D01*
X168150590Y-104402962D01*
X167579134Y-104974417D01*
X167616994Y-105001924D01*
X167794405Y-105092320D01*
X167983777Y-105153852D01*
X168180437Y-105185000D01*
X168379563Y-105185000D01*
X168576222Y-105153852D01*
X168765594Y-105092320D01*
X168943005Y-105001924D01*
X168980863Y-104974418D01*
X168980863Y-104974417D01*
X168409409Y-104402962D01*
X168472993Y-104385925D01*
X168587007Y-104320099D01*
X168680099Y-104227007D01*
X168745925Y-104112993D01*
X168762962Y-104049408D01*
X169334417Y-104620863D01*
X169334418Y-104620863D01*
X169361924Y-104583005D01*
X169439234Y-104431277D01*
X169487208Y-104380481D01*
X169555029Y-104363686D01*
X169621164Y-104386223D01*
X169660204Y-104431277D01*
X169737514Y-104583005D01*
X169737647Y-104583266D01*
X169854731Y-104744418D01*
X169995582Y-104885269D01*
X170156734Y-105002353D01*
X170270646Y-105060394D01*
X170334219Y-105092786D01*
X170523657Y-105154338D01*
X170523658Y-105154338D01*
X170523661Y-105154339D01*
X170720403Y-105185500D01*
X170720404Y-105185500D01*
X170919596Y-105185500D01*
X170919597Y-105185500D01*
X171116339Y-105154339D01*
X171116342Y-105154338D01*
X171116343Y-105154338D01*
X171305780Y-105092786D01*
X171305780Y-105092785D01*
X171305783Y-105092785D01*
X171483266Y-105002353D01*
X171644418Y-104885269D01*
X171785269Y-104744418D01*
X171902353Y-104583266D01*
X171979515Y-104431827D01*
X172027490Y-104381031D01*
X172095311Y-104364236D01*
X172161446Y-104386773D01*
X172200485Y-104431827D01*
X172277647Y-104583266D01*
X172394731Y-104744418D01*
X172535582Y-104885269D01*
X172696734Y-105002353D01*
X172810646Y-105060394D01*
X172874219Y-105092786D01*
X173063657Y-105154338D01*
X173063658Y-105154338D01*
X173063661Y-105154339D01*
X173260403Y-105185500D01*
X173260404Y-105185500D01*
X173459596Y-105185500D01*
X173459597Y-105185500D01*
X173656339Y-105154339D01*
X173656342Y-105154338D01*
X173656343Y-105154338D01*
X173845780Y-105092786D01*
X173845780Y-105092785D01*
X173845783Y-105092785D01*
X174023266Y-105002353D01*
X174184418Y-104885269D01*
X174325269Y-104744418D01*
X174442353Y-104583266D01*
X174519515Y-104431827D01*
X174567490Y-104381031D01*
X174635311Y-104364236D01*
X174701446Y-104386773D01*
X174740485Y-104431827D01*
X174817647Y-104583266D01*
X174934731Y-104744418D01*
X175075582Y-104885269D01*
X175236734Y-105002353D01*
X175350646Y-105060394D01*
X175414219Y-105092786D01*
X175603657Y-105154338D01*
X175603658Y-105154338D01*
X175603661Y-105154339D01*
X175800403Y-105185500D01*
X175800404Y-105185500D01*
X175999596Y-105185500D01*
X175999597Y-105185500D01*
X176196339Y-105154339D01*
X176196342Y-105154338D01*
X176196343Y-105154338D01*
X176385780Y-105092786D01*
X176385780Y-105092785D01*
X176385783Y-105092785D01*
X176563266Y-105002353D01*
X176724418Y-104885269D01*
X176865269Y-104744418D01*
X176982353Y-104583266D01*
X177059515Y-104431827D01*
X177107490Y-104381031D01*
X177175311Y-104364236D01*
X177241446Y-104386773D01*
X177280485Y-104431827D01*
X177357647Y-104583266D01*
X177474731Y-104744418D01*
X177615582Y-104885269D01*
X177776734Y-105002353D01*
X177890646Y-105060394D01*
X177954219Y-105092786D01*
X178143657Y-105154338D01*
X178143658Y-105154338D01*
X178143661Y-105154339D01*
X178340403Y-105185500D01*
X178340404Y-105185500D01*
X178539596Y-105185500D01*
X178539597Y-105185500D01*
X178736339Y-105154339D01*
X178736342Y-105154338D01*
X178736343Y-105154338D01*
X178925780Y-105092786D01*
X178925780Y-105092785D01*
X178925783Y-105092785D01*
X179103266Y-105002353D01*
X179264418Y-104885269D01*
X179405269Y-104744418D01*
X179522353Y-104583266D01*
X179599515Y-104431827D01*
X179647490Y-104381031D01*
X179715311Y-104364236D01*
X179781446Y-104386773D01*
X179820485Y-104431827D01*
X179897647Y-104583266D01*
X180014731Y-104744418D01*
X180155582Y-104885269D01*
X180316734Y-105002353D01*
X180430646Y-105060394D01*
X180494219Y-105092786D01*
X180683657Y-105154338D01*
X180683658Y-105154338D01*
X180683661Y-105154339D01*
X180880403Y-105185500D01*
X180880404Y-105185500D01*
X181079596Y-105185500D01*
X181079597Y-105185500D01*
X181276339Y-105154339D01*
X181276342Y-105154338D01*
X181276343Y-105154338D01*
X181465780Y-105092786D01*
X181465780Y-105092785D01*
X181465783Y-105092785D01*
X181643266Y-105002353D01*
X181804418Y-104885269D01*
X181945269Y-104744418D01*
X182062353Y-104583266D01*
X182152785Y-104405783D01*
X182161006Y-104380481D01*
X182214338Y-104216343D01*
X182214338Y-104216342D01*
X182214339Y-104216339D01*
X182245500Y-104019597D01*
X182245500Y-103820403D01*
X182214339Y-103623661D01*
X182214338Y-103623657D01*
X182214338Y-103623656D01*
X182152786Y-103434219D01*
X182139514Y-103408172D01*
X182062353Y-103256734D01*
X181945269Y-103095582D01*
X181804418Y-102954731D01*
X181643266Y-102837647D01*
X181465780Y-102747213D01*
X181276342Y-102685661D01*
X181128782Y-102662290D01*
X181079597Y-102654500D01*
X180880403Y-102654500D01*
X180814822Y-102664887D01*
X180683659Y-102685661D01*
X180683656Y-102685661D01*
X180494219Y-102747213D01*
X180316733Y-102837647D01*
X180224790Y-102904447D01*
X180155582Y-102954731D01*
X180155580Y-102954733D01*
X180155579Y-102954733D01*
X180014733Y-103095579D01*
X180014733Y-103095580D01*
X180014731Y-103095582D01*
X179964447Y-103164790D01*
X179897647Y-103256733D01*
X179820485Y-103408172D01*
X179772510Y-103458968D01*
X179704689Y-103475763D01*
X179638554Y-103453225D01*
X179599515Y-103408172D01*
X179522761Y-103257535D01*
X179522353Y-103256734D01*
X179405269Y-103095582D01*
X179264418Y-102954731D01*
X179103266Y-102837647D01*
X178925780Y-102747213D01*
X178736342Y-102685661D01*
X178588782Y-102662290D01*
X178539597Y-102654500D01*
X178340403Y-102654500D01*
X178274822Y-102664887D01*
X178143659Y-102685661D01*
X178143656Y-102685661D01*
X177954219Y-102747213D01*
X177776733Y-102837647D01*
X177684790Y-102904447D01*
X177615582Y-102954731D01*
X177615580Y-102954733D01*
X177615579Y-102954733D01*
X177474733Y-103095579D01*
X177474733Y-103095580D01*
X177474731Y-103095582D01*
X177424447Y-103164790D01*
X177357647Y-103256733D01*
X177280485Y-103408172D01*
X177232510Y-103458968D01*
X177164689Y-103475763D01*
X177098554Y-103453225D01*
X177059515Y-103408172D01*
X176982761Y-103257535D01*
X176982353Y-103256734D01*
X176865269Y-103095582D01*
X176724418Y-102954731D01*
X176563266Y-102837647D01*
X176385780Y-102747213D01*
X176196342Y-102685661D01*
X176048782Y-102662290D01*
X175999597Y-102654500D01*
X175800403Y-102654500D01*
X175734822Y-102664887D01*
X175603659Y-102685661D01*
X175603656Y-102685661D01*
X175414219Y-102747213D01*
X175236733Y-102837647D01*
X175144790Y-102904447D01*
X175075582Y-102954731D01*
X175075580Y-102954733D01*
X175075579Y-102954733D01*
X174934733Y-103095579D01*
X174934733Y-103095580D01*
X174934731Y-103095582D01*
X174884447Y-103164790D01*
X174817647Y-103256733D01*
X174740485Y-103408172D01*
X174692510Y-103458968D01*
X174624689Y-103475763D01*
X174558554Y-103453225D01*
X174519515Y-103408172D01*
X174442761Y-103257535D01*
X174442353Y-103256734D01*
X174325269Y-103095582D01*
X174184418Y-102954731D01*
X174023266Y-102837647D01*
X173845780Y-102747213D01*
X173656342Y-102685661D01*
X173508782Y-102662290D01*
X173459597Y-102654500D01*
X173260403Y-102654500D01*
X173194822Y-102664887D01*
X173063659Y-102685661D01*
X173063656Y-102685661D01*
X172874219Y-102747213D01*
X172696733Y-102837647D01*
X172604790Y-102904447D01*
X172535582Y-102954731D01*
X172535580Y-102954733D01*
X172535579Y-102954733D01*
X172394733Y-103095579D01*
X172394733Y-103095580D01*
X172394731Y-103095582D01*
X172344447Y-103164790D01*
X172277647Y-103256733D01*
X172200485Y-103408172D01*
X172152510Y-103458968D01*
X172084689Y-103475763D01*
X172018554Y-103453225D01*
X171979515Y-103408172D01*
X171902761Y-103257535D01*
X171902353Y-103256734D01*
X171785269Y-103095582D01*
X171644418Y-102954731D01*
X171483266Y-102837647D01*
X171305780Y-102747213D01*
X171116342Y-102685661D01*
X170968782Y-102662290D01*
X170919597Y-102654500D01*
X170720403Y-102654500D01*
X170654822Y-102664887D01*
X170523659Y-102685661D01*
X170523656Y-102685661D01*
X170334219Y-102747213D01*
X170156733Y-102837647D01*
X170064790Y-102904447D01*
X169995582Y-102954731D01*
X169995580Y-102954733D01*
X169995579Y-102954733D01*
X169854733Y-103095579D01*
X169854733Y-103095580D01*
X169854731Y-103095582D01*
X169819555Y-103143997D01*
X169737645Y-103256735D01*
X169660203Y-103408723D01*
X169612229Y-103459518D01*
X169544408Y-103476313D01*
X169478273Y-103453775D01*
X169439234Y-103408722D01*
X169361924Y-103256994D01*
X169334417Y-103219135D01*
X169334417Y-103219134D01*
X168762962Y-103790590D01*
X168745925Y-103727007D01*
X168680099Y-103612993D01*
X168587007Y-103519901D01*
X168472993Y-103454075D01*
X168409409Y-103437037D01*
X168980864Y-102865581D01*
X168980863Y-102865580D01*
X168943008Y-102838077D01*
X168765594Y-102747679D01*
X168576222Y-102686147D01*
X168379563Y-102655000D01*
X168180437Y-102655000D01*
X167983777Y-102686147D01*
X167794405Y-102747679D01*
X167616990Y-102838077D01*
X167579135Y-102865580D01*
X167579135Y-102865581D01*
X168150591Y-103437037D01*
X168087007Y-103454075D01*
X167972993Y-103519901D01*
X167879901Y-103612993D01*
X167814075Y-103727007D01*
X167797037Y-103790591D01*
X167225581Y-103219135D01*
X167225580Y-103219135D01*
X167198075Y-103256993D01*
X167120764Y-103408723D01*
X167072790Y-103459518D01*
X167004969Y-103476313D01*
X166938834Y-103453775D01*
X166899795Y-103408722D01*
X166822761Y-103257535D01*
X166822353Y-103256734D01*
X166705269Y-103095582D01*
X166564418Y-102954731D01*
X166403266Y-102837647D01*
X166225780Y-102747213D01*
X166036342Y-102685661D01*
X165888782Y-102662290D01*
X165839597Y-102654500D01*
X165640403Y-102654500D01*
X165574822Y-102664887D01*
X165443659Y-102685661D01*
X165443656Y-102685661D01*
X165254219Y-102747213D01*
X165076733Y-102837647D01*
X164984790Y-102904447D01*
X164915582Y-102954731D01*
X164915580Y-102954733D01*
X164915579Y-102954733D01*
X164774733Y-103095579D01*
X164774733Y-103095580D01*
X164774731Y-103095582D01*
X164724447Y-103164790D01*
X164657647Y-103256733D01*
X164580485Y-103408172D01*
X164532510Y-103458968D01*
X164464689Y-103475763D01*
X164398554Y-103453225D01*
X164359515Y-103408172D01*
X164282761Y-103257535D01*
X164282353Y-103256734D01*
X164165269Y-103095582D01*
X164024418Y-102954731D01*
X163863266Y-102837647D01*
X163685780Y-102747213D01*
X163496342Y-102685661D01*
X163348782Y-102662290D01*
X163299597Y-102654500D01*
X163100403Y-102654500D01*
X163034822Y-102664887D01*
X162903659Y-102685661D01*
X162903656Y-102685661D01*
X162714219Y-102747213D01*
X162536733Y-102837647D01*
X162444790Y-102904447D01*
X162375582Y-102954731D01*
X162375580Y-102954733D01*
X162375579Y-102954733D01*
X162234733Y-103095579D01*
X162234733Y-103095580D01*
X162234731Y-103095582D01*
X162199555Y-103143997D01*
X162117645Y-103256735D01*
X162040203Y-103408723D01*
X161992229Y-103459518D01*
X161924408Y-103476313D01*
X161858273Y-103453775D01*
X161819234Y-103408722D01*
X161741924Y-103256994D01*
X161714417Y-103219135D01*
X161714417Y-103219134D01*
X161142962Y-103790590D01*
X161125925Y-103727007D01*
X161060099Y-103612993D01*
X160967007Y-103519901D01*
X160852993Y-103454075D01*
X160789407Y-103437036D01*
X161360864Y-102865580D01*
X161323008Y-102838077D01*
X161145594Y-102747679D01*
X160956222Y-102686147D01*
X160759563Y-102655000D01*
X160560437Y-102655000D01*
X160363777Y-102686147D01*
X160174405Y-102747679D01*
X160135795Y-102767352D01*
X160067125Y-102780248D01*
X160002385Y-102753971D01*
X159962128Y-102696865D01*
X159955500Y-102656867D01*
X159955500Y-89128393D01*
X159955499Y-89128389D01*
X159944881Y-89075009D01*
X159931463Y-89007548D01*
X159884311Y-88893714D01*
X159884310Y-88893713D01*
X159884307Y-88893707D01*
X159815858Y-88791267D01*
X159815855Y-88791263D01*
X159725637Y-88701045D01*
X159725606Y-88701016D01*
X158303668Y-87279078D01*
X158270183Y-87217755D01*
X158275167Y-87148063D01*
X158317039Y-87092130D01*
X158335045Y-87080917D01*
X158371610Y-87062287D01*
X158444822Y-87009096D01*
X158537213Y-86941971D01*
X158537215Y-86941968D01*
X158537219Y-86941966D01*
X158681966Y-86797219D01*
X158681968Y-86797215D01*
X158681971Y-86797213D01*
X158734732Y-86724590D01*
X158802287Y-86631610D01*
X158895220Y-86449219D01*
X158958477Y-86254534D01*
X158990500Y-86052352D01*
X158990500Y-85847648D01*
X158977856Y-85767818D01*
X158958477Y-85645465D01*
X158895218Y-85450776D01*
X158861503Y-85384607D01*
X158802287Y-85268390D01*
X158794556Y-85257749D01*
X158681971Y-85102786D01*
X158537219Y-84958034D01*
X158484181Y-84919500D01*
X158395153Y-84854818D01*
X158352488Y-84799489D01*
X158346509Y-84729875D01*
X158379114Y-84668080D01*
X158439953Y-84633723D01*
X158468039Y-84630500D01*
X164531961Y-84630500D01*
X164599000Y-84650185D01*
G37*
%TD.AperFunction*%
%TD*%
M02*
