M48
; DRILL file {KiCad 9.0.2} date 2025-06-21T17:18:10-0400
; FORMAT={-:-/ absolute / metric / decimal}
; #@! TF.CreationDate,2025-06-21T17:18:10-04:00
; #@! TF.GenerationSoftware,Kicad,Pcbnew,9.0.2
; #@! TF.FileFunction,Plated,1,2,PTH
FMAT,2
METRIC
; #@! TA.AperFunction,Plated,PTH,ViaDrill
T1C0.350
; #@! TA.AperFunction,Plated,PTH,ComponentDrill
T2C0.800
; #@! TA.AperFunction,Plated,PTH,ComponentDrill
T3C0.900
; #@! TA.AperFunction,Plated,PTH,ViaDrill
T4C1.000
; #@! TA.AperFunction,Plated,PTH,ComponentDrill
T5C1.000
; #@! TA.AperFunction,Plated,PTH,ComponentDrill
T6C1.100
; #@! TA.AperFunction,Plated,PTH,ComponentDrill
T7C1.470
%
G90
G05
T1
X165.26Y-100.27
X186.49Y-91.04
T2
X157.69Y-85.95
X159.33Y-110.27
X159.33Y-117.89
X165.31Y-85.95
X185.22Y-93.83
X185.22Y-101.45
T3
X126.59Y-102.295
X126.59Y-104.835
X131.905Y-96.57
X131.905Y-99.11
X131.905Y-101.65
X131.905Y-104.19
X131.905Y-106.73
X131.905Y-109.27
X131.905Y-111.81
X131.905Y-114.35
X154.765Y-96.57
X154.765Y-99.11
X154.765Y-101.65
X154.765Y-104.19
X154.765Y-106.73
X154.765Y-109.27
X154.765Y-111.81
X154.765Y-114.35
T4
X162.6Y-107.31
X162.6Y-110.51
X183.99Y-91.04
X185.3Y-107.31
X185.3Y-121.01
T5
X158.12Y-103.92
X160.66Y-103.92
X163.2Y-103.92
X165.74Y-103.92
X168.28Y-103.92
X170.8Y-86.92
X170.82Y-103.92
X172.8Y-86.92
X173.36Y-103.92
X174.8Y-86.92
X175.9Y-103.92
X178.44Y-103.92
X180.98Y-103.92
T6
X124.95Y-87.63
X124.95Y-97.79
X125.0Y-109.32
X125.0Y-119.48
X128.2Y-87.63
X128.2Y-97.79
X128.25Y-109.32
X128.25Y-119.48
T7
G00X168.65Y-87.42
M15
G01X168.65Y-86.42
M16
G05
G00X176.95Y-87.42
M15
G01X176.95Y-86.42
M16
G05
M30
