%TF.GenerationSoftware,KiCad,Pcbnew,9.0.2*%
%TF.CreationDate,2025-06-21T17:34:22-04:00*%
%TF.ProjectId,CVISS_IMU_Tracker_Board,43564953-535f-4494-9d55-5f547261636b,rev?*%
%TF.SameCoordinates,Original*%
%TF.FileFunction,Legend,Bot*%
%TF.FilePolarity,Positive*%
%FSLAX46Y46*%
G04 Gerber Fmt 4.6, Leading zero omitted, Abs format (unit mm)*
G04 Created by KiCad (PCBNEW 9.0.2) date 2025-06-21 17:34:22*
%MOMM*%
%LPD*%
G01*
G04 APERTURE LIST*
%ADD10C,0.821038*%
%ADD11C,0.431182*%
%ADD12C,0.300000*%
%ADD13C,2.000000*%
%ADD14C,0.200000*%
%ADD15C,0.100000*%
G04 APERTURE END LIST*
D10*
X181250519Y-92186038D02*
G75*
G02*
X180429481Y-92186038I-410519J0D01*
G01*
X180429481Y-92186038D02*
G75*
G02*
X181250519Y-92186038I410519J0D01*
G01*
D11*
X179775591Y-94675000D02*
G75*
G02*
X179344409Y-94675000I-215591J0D01*
G01*
X179344409Y-94675000D02*
G75*
G02*
X179775591Y-94675000I215591J0D01*
G01*
X183075591Y-101085000D02*
G75*
G02*
X182644409Y-101085000I-215591J0D01*
G01*
X182644409Y-101085000D02*
G75*
G02*
X183075591Y-101085000I215591J0D01*
G01*
D12*
X182380000Y-94515000D02*
X183150000Y-95575000D01*
D11*
X180675591Y-101125000D02*
G75*
G02*
X180244409Y-101125000I-215591J0D01*
G01*
X180244409Y-101125000D02*
G75*
G02*
X180675591Y-101125000I215591J0D01*
G01*
D12*
X182470000Y-99450000D02*
X182860000Y-101085000D01*
X180860000Y-94135000D02*
X179520000Y-94725000D01*
D11*
X180954099Y-96605000D02*
G75*
G02*
X180522917Y-96605000I-215591J0D01*
G01*
X180522917Y-96605000D02*
G75*
G02*
X180954099Y-96605000I215591J0D01*
G01*
D12*
X181800000Y-97310000D02*
X182450000Y-99545000D01*
X180140000Y-99725000D02*
X180460000Y-101125000D01*
X180900000Y-92565000D02*
X180860000Y-94135000D01*
D11*
X178975591Y-95795000D02*
G75*
G02*
X178544409Y-95795000I-215591J0D01*
G01*
X178544409Y-95795000D02*
G75*
G02*
X178975591Y-95795000I215591J0D01*
G01*
X181075591Y-94135000D02*
G75*
G02*
X180644409Y-94135000I-215591J0D01*
G01*
X180644409Y-94135000D02*
G75*
G02*
X181075591Y-94135000I215591J0D01*
G01*
X180395591Y-99795000D02*
G75*
G02*
X179964409Y-99795000I-215591J0D01*
G01*
X179964409Y-99795000D02*
G75*
G02*
X180395591Y-99795000I215591J0D01*
G01*
X180165591Y-97725000D02*
G75*
G02*
X179734409Y-97725000I-215591J0D01*
G01*
X179734409Y-97725000D02*
G75*
G02*
X180165591Y-97725000I215591J0D01*
G01*
X183365591Y-95575000D02*
G75*
G02*
X182934409Y-95575000I-215591J0D01*
G01*
X182934409Y-95575000D02*
G75*
G02*
X183365591Y-95575000I215591J0D01*
G01*
D12*
X180860000Y-94135000D02*
X180738508Y-96485000D01*
X180640000Y-96510000D02*
X179950000Y-97725000D01*
X182280000Y-94560000D02*
X180940000Y-94175000D01*
D11*
X182665591Y-99545000D02*
G75*
G02*
X182234409Y-99545000I-215591J0D01*
G01*
X182234409Y-99545000D02*
G75*
G02*
X182665591Y-99545000I215591J0D01*
G01*
D12*
X179590000Y-94645000D02*
X178760000Y-95795000D01*
D11*
X181995591Y-97295000D02*
G75*
G02*
X181564409Y-97295000I-215591J0D01*
G01*
X181564409Y-97295000D02*
G75*
G02*
X181995591Y-97295000I215591J0D01*
G01*
X182475591Y-94565000D02*
G75*
G02*
X182044409Y-94565000I-215591J0D01*
G01*
X182044409Y-94565000D02*
G75*
G02*
X182475591Y-94565000I215591J0D01*
G01*
D12*
X179930000Y-97795000D02*
X180180000Y-99795000D01*
X180880000Y-96685000D02*
X181780000Y-97295000D01*
D13*
G36*
X177249951Y-101610000D02*
G01*
X175466978Y-101610000D01*
X174612128Y-99304347D01*
X171098084Y-99304347D01*
X170230411Y-101610000D01*
X168460872Y-101610000D01*
X169934118Y-97897508D01*
X171628091Y-97897508D01*
X174090059Y-97897508D01*
X173738349Y-97061587D01*
X172887773Y-94653963D01*
X172848695Y-94653963D01*
X171983464Y-97065251D01*
X171628091Y-97897508D01*
X169934118Y-97897508D01*
X172089710Y-92465547D01*
X173621113Y-92465547D01*
X177249951Y-101610000D01*
G37*
G36*
X167172491Y-101610000D02*
G01*
X167172491Y-92465547D01*
X165492100Y-92465547D01*
X165492100Y-101610000D01*
X167172491Y-101610000D01*
G37*
G36*
X160705551Y-97428562D02*
G01*
X157693426Y-97428562D01*
X157693426Y-98913558D01*
X160705551Y-98913558D01*
X160705551Y-97428562D01*
G37*
G36*
X148196043Y-99156580D02*
G01*
X147866836Y-98061281D01*
X147450491Y-96839937D01*
X145871461Y-92465547D01*
X143520013Y-92465547D01*
X143520013Y-101610000D01*
X145200404Y-101610000D01*
X145200404Y-96976713D01*
X145117972Y-94611831D01*
X145179644Y-94611831D01*
X145452585Y-95486831D01*
X145780481Y-96443653D01*
X147669699Y-101610000D01*
X148749253Y-101610000D01*
X150638471Y-96443653D01*
X150966367Y-95486831D01*
X151239309Y-94611831D01*
X151300369Y-94611831D01*
X151238224Y-95856151D01*
X151218548Y-96969385D01*
X151218548Y-101610000D01*
X152898939Y-101610000D01*
X152898939Y-92465547D01*
X150560924Y-92465547D01*
X148981894Y-96819176D01*
X148603202Y-97929149D01*
X148236953Y-99156580D01*
X148196043Y-99156580D01*
G37*
G36*
X137551939Y-101766315D02*
G01*
X138251028Y-101729592D01*
X138846427Y-101626486D01*
X139396726Y-101452266D01*
X139860034Y-101224096D01*
X140268020Y-100930280D01*
X140606807Y-100582348D01*
X140882428Y-100181544D01*
X141099567Y-99726277D01*
X141227226Y-99330561D01*
X141315722Y-98879975D01*
X141363389Y-98402430D01*
X141380446Y-97842554D01*
X141380446Y-92465547D01*
X139700055Y-92465547D01*
X139700055Y-97696008D01*
X139669419Y-98344314D01*
X139587645Y-98839844D01*
X139467414Y-99212145D01*
X139260568Y-99589900D01*
X139008131Y-99878198D01*
X138707819Y-100090198D01*
X138176946Y-100289138D01*
X137531179Y-100359476D01*
X136885412Y-100289138D01*
X136354539Y-100090198D01*
X136054227Y-99878198D01*
X135801790Y-99589900D01*
X135594944Y-99212145D01*
X135474713Y-98839844D01*
X135392939Y-98344314D01*
X135362302Y-97696008D01*
X135362302Y-92465547D01*
X133681912Y-92465547D01*
X133681912Y-97842554D01*
X133699129Y-98402418D01*
X133747247Y-98879975D01*
X133835277Y-99330549D01*
X133962791Y-99726277D01*
X134180844Y-100181257D01*
X134459825Y-100582348D01*
X134802838Y-100929754D01*
X135220031Y-101224096D01*
X135692629Y-101452380D01*
X136250736Y-101626486D01*
X136851594Y-101729681D01*
X137551939Y-101766315D01*
G37*
D14*
X133663183Y-119197219D02*
X133329850Y-120197219D01*
X133329850Y-120197219D02*
X132996517Y-119197219D01*
X132758421Y-119197219D02*
X132139374Y-119197219D01*
X132139374Y-119197219D02*
X132472707Y-119578171D01*
X132472707Y-119578171D02*
X132329850Y-119578171D01*
X132329850Y-119578171D02*
X132234612Y-119625790D01*
X132234612Y-119625790D02*
X132186993Y-119673409D01*
X132186993Y-119673409D02*
X132139374Y-119768647D01*
X132139374Y-119768647D02*
X132139374Y-120006742D01*
X132139374Y-120006742D02*
X132186993Y-120101980D01*
X132186993Y-120101980D02*
X132234612Y-120149600D01*
X132234612Y-120149600D02*
X132329850Y-120197219D01*
X132329850Y-120197219D02*
X132615564Y-120197219D01*
X132615564Y-120197219D02*
X132710802Y-120149600D01*
X132710802Y-120149600D02*
X132758421Y-120101980D01*
X131710802Y-120101980D02*
X131663183Y-120149600D01*
X131663183Y-120149600D02*
X131710802Y-120197219D01*
X131710802Y-120197219D02*
X131758421Y-120149600D01*
X131758421Y-120149600D02*
X131710802Y-120101980D01*
X131710802Y-120101980D02*
X131710802Y-120197219D01*
X131044136Y-119197219D02*
X130948898Y-119197219D01*
X130948898Y-119197219D02*
X130853660Y-119244838D01*
X130853660Y-119244838D02*
X130806041Y-119292457D01*
X130806041Y-119292457D02*
X130758422Y-119387695D01*
X130758422Y-119387695D02*
X130710803Y-119578171D01*
X130710803Y-119578171D02*
X130710803Y-119816266D01*
X130710803Y-119816266D02*
X130758422Y-120006742D01*
X130758422Y-120006742D02*
X130806041Y-120101980D01*
X130806041Y-120101980D02*
X130853660Y-120149600D01*
X130853660Y-120149600D02*
X130948898Y-120197219D01*
X130948898Y-120197219D02*
X131044136Y-120197219D01*
X131044136Y-120197219D02*
X131139374Y-120149600D01*
X131139374Y-120149600D02*
X131186993Y-120101980D01*
X131186993Y-120101980D02*
X131234612Y-120006742D01*
X131234612Y-120006742D02*
X131282231Y-119816266D01*
X131282231Y-119816266D02*
X131282231Y-119578171D01*
X131282231Y-119578171D02*
X131234612Y-119387695D01*
X131234612Y-119387695D02*
X131186993Y-119292457D01*
X131186993Y-119292457D02*
X131139374Y-119244838D01*
X131139374Y-119244838D02*
X131044136Y-119197219D01*
D15*
X183586115Y-120252419D02*
X183586115Y-119252419D01*
X183586115Y-119252419D02*
X183014687Y-120252419D01*
X183014687Y-120252419D02*
X183014687Y-119252419D01*
X182395639Y-120252419D02*
X182490877Y-120204800D01*
X182490877Y-120204800D02*
X182538496Y-120157180D01*
X182538496Y-120157180D02*
X182586115Y-120061942D01*
X182586115Y-120061942D02*
X182586115Y-119776228D01*
X182586115Y-119776228D02*
X182538496Y-119680990D01*
X182538496Y-119680990D02*
X182490877Y-119633371D01*
X182490877Y-119633371D02*
X182395639Y-119585752D01*
X182395639Y-119585752D02*
X182252782Y-119585752D01*
X182252782Y-119585752D02*
X182157544Y-119633371D01*
X182157544Y-119633371D02*
X182109925Y-119680990D01*
X182109925Y-119680990D02*
X182062306Y-119776228D01*
X182062306Y-119776228D02*
X182062306Y-120061942D01*
X182062306Y-120061942D02*
X182109925Y-120157180D01*
X182109925Y-120157180D02*
X182157544Y-120204800D01*
X182157544Y-120204800D02*
X182252782Y-120252419D01*
X182252782Y-120252419D02*
X182395639Y-120252419D01*
X181205163Y-120252419D02*
X181205163Y-119728609D01*
X181205163Y-119728609D02*
X181252782Y-119633371D01*
X181252782Y-119633371D02*
X181348020Y-119585752D01*
X181348020Y-119585752D02*
X181538496Y-119585752D01*
X181538496Y-119585752D02*
X181633734Y-119633371D01*
X181205163Y-120204800D02*
X181300401Y-120252419D01*
X181300401Y-120252419D02*
X181538496Y-120252419D01*
X181538496Y-120252419D02*
X181633734Y-120204800D01*
X181633734Y-120204800D02*
X181681353Y-120109561D01*
X181681353Y-120109561D02*
X181681353Y-120014323D01*
X181681353Y-120014323D02*
X181633734Y-119919085D01*
X181633734Y-119919085D02*
X181538496Y-119871466D01*
X181538496Y-119871466D02*
X181300401Y-119871466D01*
X181300401Y-119871466D02*
X181205163Y-119823847D01*
X180728972Y-120252419D02*
X180728972Y-119252419D01*
X180300401Y-120252419D02*
X180300401Y-119728609D01*
X180300401Y-119728609D02*
X180348020Y-119633371D01*
X180348020Y-119633371D02*
X180443258Y-119585752D01*
X180443258Y-119585752D02*
X180586115Y-119585752D01*
X180586115Y-119585752D02*
X180681353Y-119633371D01*
X180681353Y-119633371D02*
X180728972Y-119680990D01*
X178871829Y-119776228D02*
X178871829Y-120252419D01*
X179205162Y-119252419D02*
X178871829Y-119776228D01*
X178871829Y-119776228D02*
X178538496Y-119252419D01*
X177776591Y-120252419D02*
X177776591Y-119728609D01*
X177776591Y-119728609D02*
X177824210Y-119633371D01*
X177824210Y-119633371D02*
X177919448Y-119585752D01*
X177919448Y-119585752D02*
X178109924Y-119585752D01*
X178109924Y-119585752D02*
X178205162Y-119633371D01*
X177776591Y-120204800D02*
X177871829Y-120252419D01*
X177871829Y-120252419D02*
X178109924Y-120252419D01*
X178109924Y-120252419D02*
X178205162Y-120204800D01*
X178205162Y-120204800D02*
X178252781Y-120109561D01*
X178252781Y-120109561D02*
X178252781Y-120014323D01*
X178252781Y-120014323D02*
X178205162Y-119919085D01*
X178205162Y-119919085D02*
X178109924Y-119871466D01*
X178109924Y-119871466D02*
X177871829Y-119871466D01*
X177871829Y-119871466D02*
X177776591Y-119823847D01*
X176871829Y-120204800D02*
X176967067Y-120252419D01*
X176967067Y-120252419D02*
X177157543Y-120252419D01*
X177157543Y-120252419D02*
X177252781Y-120204800D01*
X177252781Y-120204800D02*
X177300400Y-120157180D01*
X177300400Y-120157180D02*
X177348019Y-120061942D01*
X177348019Y-120061942D02*
X177348019Y-119776228D01*
X177348019Y-119776228D02*
X177300400Y-119680990D01*
X177300400Y-119680990D02*
X177252781Y-119633371D01*
X177252781Y-119633371D02*
X177157543Y-119585752D01*
X177157543Y-119585752D02*
X176967067Y-119585752D01*
X176967067Y-119585752D02*
X176871829Y-119633371D01*
X176300400Y-120252419D02*
X176395638Y-120204800D01*
X176395638Y-120204800D02*
X176443257Y-120157180D01*
X176443257Y-120157180D02*
X176490876Y-120061942D01*
X176490876Y-120061942D02*
X176490876Y-119776228D01*
X176490876Y-119776228D02*
X176443257Y-119680990D01*
X176443257Y-119680990D02*
X176395638Y-119633371D01*
X176395638Y-119633371D02*
X176300400Y-119585752D01*
X176300400Y-119585752D02*
X176157543Y-119585752D01*
X176157543Y-119585752D02*
X176062305Y-119633371D01*
X176062305Y-119633371D02*
X176014686Y-119680990D01*
X176014686Y-119680990D02*
X175967067Y-119776228D01*
X175967067Y-119776228D02*
X175967067Y-120061942D01*
X175967067Y-120061942D02*
X176014686Y-120157180D01*
X176014686Y-120157180D02*
X176062305Y-120204800D01*
X176062305Y-120204800D02*
X176157543Y-120252419D01*
X176157543Y-120252419D02*
X176300400Y-120252419D01*
X175633733Y-119585752D02*
X175443257Y-120252419D01*
X175443257Y-120252419D02*
X175252781Y-119776228D01*
X175252781Y-119776228D02*
X175062305Y-120252419D01*
X175062305Y-120252419D02*
X174871829Y-119585752D01*
X174062305Y-120252419D02*
X174062305Y-119728609D01*
X174062305Y-119728609D02*
X174109924Y-119633371D01*
X174109924Y-119633371D02*
X174205162Y-119585752D01*
X174205162Y-119585752D02*
X174395638Y-119585752D01*
X174395638Y-119585752D02*
X174490876Y-119633371D01*
X174062305Y-120204800D02*
X174157543Y-120252419D01*
X174157543Y-120252419D02*
X174395638Y-120252419D01*
X174395638Y-120252419D02*
X174490876Y-120204800D01*
X174490876Y-120204800D02*
X174538495Y-120109561D01*
X174538495Y-120109561D02*
X174538495Y-120014323D01*
X174538495Y-120014323D02*
X174490876Y-119919085D01*
X174490876Y-119919085D02*
X174395638Y-119871466D01*
X174395638Y-119871466D02*
X174157543Y-119871466D01*
X174157543Y-119871466D02*
X174062305Y-119823847D01*
X173586114Y-120252419D02*
X173586114Y-119585752D01*
X173586114Y-119776228D02*
X173538495Y-119680990D01*
X173538495Y-119680990D02*
X173490876Y-119633371D01*
X173490876Y-119633371D02*
X173395638Y-119585752D01*
X173395638Y-119585752D02*
X173300400Y-119585752D01*
X172205161Y-119871466D02*
X171443257Y-119871466D01*
X170348018Y-119252419D02*
X169776590Y-119252419D01*
X170062304Y-120252419D02*
X170062304Y-119252419D01*
X169443256Y-120252419D02*
X169443256Y-119252419D01*
X169014685Y-120252419D02*
X169014685Y-119728609D01*
X169014685Y-119728609D02*
X169062304Y-119633371D01*
X169062304Y-119633371D02*
X169157542Y-119585752D01*
X169157542Y-119585752D02*
X169300399Y-119585752D01*
X169300399Y-119585752D02*
X169395637Y-119633371D01*
X169395637Y-119633371D02*
X169443256Y-119680990D01*
X168157542Y-120204800D02*
X168252780Y-120252419D01*
X168252780Y-120252419D02*
X168443256Y-120252419D01*
X168443256Y-120252419D02*
X168538494Y-120204800D01*
X168538494Y-120204800D02*
X168586113Y-120109561D01*
X168586113Y-120109561D02*
X168586113Y-119728609D01*
X168586113Y-119728609D02*
X168538494Y-119633371D01*
X168538494Y-119633371D02*
X168443256Y-119585752D01*
X168443256Y-119585752D02*
X168252780Y-119585752D01*
X168252780Y-119585752D02*
X168157542Y-119633371D01*
X168157542Y-119633371D02*
X168109923Y-119728609D01*
X168109923Y-119728609D02*
X168109923Y-119823847D01*
X168109923Y-119823847D02*
X168586113Y-119919085D01*
X166490875Y-119585752D02*
X166490875Y-120395276D01*
X166490875Y-120395276D02*
X166538494Y-120490514D01*
X166538494Y-120490514D02*
X166586113Y-120538133D01*
X166586113Y-120538133D02*
X166681351Y-120585752D01*
X166681351Y-120585752D02*
X166824208Y-120585752D01*
X166824208Y-120585752D02*
X166919446Y-120538133D01*
X166490875Y-120204800D02*
X166586113Y-120252419D01*
X166586113Y-120252419D02*
X166776589Y-120252419D01*
X166776589Y-120252419D02*
X166871827Y-120204800D01*
X166871827Y-120204800D02*
X166919446Y-120157180D01*
X166919446Y-120157180D02*
X166967065Y-120061942D01*
X166967065Y-120061942D02*
X166967065Y-119776228D01*
X166967065Y-119776228D02*
X166919446Y-119680990D01*
X166919446Y-119680990D02*
X166871827Y-119633371D01*
X166871827Y-119633371D02*
X166776589Y-119585752D01*
X166776589Y-119585752D02*
X166586113Y-119585752D01*
X166586113Y-119585752D02*
X166490875Y-119633371D01*
X165586113Y-119585752D02*
X165586113Y-120252419D01*
X166014684Y-119585752D02*
X166014684Y-120109561D01*
X166014684Y-120109561D02*
X165967065Y-120204800D01*
X165967065Y-120204800D02*
X165871827Y-120252419D01*
X165871827Y-120252419D02*
X165728970Y-120252419D01*
X165728970Y-120252419D02*
X165633732Y-120204800D01*
X165633732Y-120204800D02*
X165586113Y-120157180D01*
X165205160Y-119585752D02*
X164967065Y-120252419D01*
X164728970Y-119585752D02*
X164967065Y-120252419D01*
X164967065Y-120252419D02*
X165062303Y-120490514D01*
X165062303Y-120490514D02*
X165109922Y-120538133D01*
X165109922Y-120538133D02*
X165205160Y-120585752D01*
X163443255Y-120252419D02*
X163538493Y-120204800D01*
X163538493Y-120204800D02*
X163586112Y-120157180D01*
X163586112Y-120157180D02*
X163633731Y-120061942D01*
X163633731Y-120061942D02*
X163633731Y-119776228D01*
X163633731Y-119776228D02*
X163586112Y-119680990D01*
X163586112Y-119680990D02*
X163538493Y-119633371D01*
X163538493Y-119633371D02*
X163443255Y-119585752D01*
X163443255Y-119585752D02*
X163300398Y-119585752D01*
X163300398Y-119585752D02*
X163205160Y-119633371D01*
X163205160Y-119633371D02*
X163157541Y-119680990D01*
X163157541Y-119680990D02*
X163109922Y-119776228D01*
X163109922Y-119776228D02*
X163109922Y-120061942D01*
X163109922Y-120061942D02*
X163157541Y-120157180D01*
X163157541Y-120157180D02*
X163205160Y-120204800D01*
X163205160Y-120204800D02*
X163300398Y-120252419D01*
X163300398Y-120252419D02*
X163443255Y-120252419D01*
X162824207Y-119585752D02*
X162443255Y-119585752D01*
X162681350Y-120252419D02*
X162681350Y-119395276D01*
X162681350Y-119395276D02*
X162633731Y-119300038D01*
X162633731Y-119300038D02*
X162538493Y-119252419D01*
X162538493Y-119252419D02*
X162443255Y-119252419D01*
X160919445Y-120252419D02*
X160919445Y-119728609D01*
X160919445Y-119728609D02*
X160967064Y-119633371D01*
X160967064Y-119633371D02*
X161062302Y-119585752D01*
X161062302Y-119585752D02*
X161252778Y-119585752D01*
X161252778Y-119585752D02*
X161348016Y-119633371D01*
X160919445Y-120204800D02*
X161014683Y-120252419D01*
X161014683Y-120252419D02*
X161252778Y-120252419D01*
X161252778Y-120252419D02*
X161348016Y-120204800D01*
X161348016Y-120204800D02*
X161395635Y-120109561D01*
X161395635Y-120109561D02*
X161395635Y-120014323D01*
X161395635Y-120014323D02*
X161348016Y-119919085D01*
X161348016Y-119919085D02*
X161252778Y-119871466D01*
X161252778Y-119871466D02*
X161014683Y-119871466D01*
X161014683Y-119871466D02*
X160919445Y-119823847D01*
X160300397Y-120252419D02*
X160395635Y-120204800D01*
X160395635Y-120204800D02*
X160443254Y-120109561D01*
X160443254Y-120109561D02*
X160443254Y-119252419D01*
X159776587Y-120252419D02*
X159871825Y-120204800D01*
X159871825Y-120204800D02*
X159919444Y-120109561D01*
X159919444Y-120109561D02*
X159919444Y-119252419D01*
X158776586Y-119585752D02*
X158395634Y-119585752D01*
X158633729Y-119252419D02*
X158633729Y-120109561D01*
X158633729Y-120109561D02*
X158586110Y-120204800D01*
X158586110Y-120204800D02*
X158490872Y-120252419D01*
X158490872Y-120252419D02*
X158395634Y-120252419D01*
X158062300Y-120252419D02*
X158062300Y-119585752D01*
X158062300Y-119252419D02*
X158109919Y-119300038D01*
X158109919Y-119300038D02*
X158062300Y-119347657D01*
X158062300Y-119347657D02*
X158014681Y-119300038D01*
X158014681Y-119300038D02*
X158062300Y-119252419D01*
X158062300Y-119252419D02*
X158062300Y-119347657D01*
X157586110Y-120252419D02*
X157586110Y-119585752D01*
X157586110Y-119680990D02*
X157538491Y-119633371D01*
X157538491Y-119633371D02*
X157443253Y-119585752D01*
X157443253Y-119585752D02*
X157300396Y-119585752D01*
X157300396Y-119585752D02*
X157205158Y-119633371D01*
X157205158Y-119633371D02*
X157157539Y-119728609D01*
X157157539Y-119728609D02*
X157157539Y-120252419D01*
X157157539Y-119728609D02*
X157109920Y-119633371D01*
X157109920Y-119633371D02*
X157014682Y-119585752D01*
X157014682Y-119585752D02*
X156871825Y-119585752D01*
X156871825Y-119585752D02*
X156776586Y-119633371D01*
X156776586Y-119633371D02*
X156728967Y-119728609D01*
X156728967Y-119728609D02*
X156728967Y-120252419D01*
X155871825Y-120204800D02*
X155967063Y-120252419D01*
X155967063Y-120252419D02*
X156157539Y-120252419D01*
X156157539Y-120252419D02*
X156252777Y-120204800D01*
X156252777Y-120204800D02*
X156300396Y-120109561D01*
X156300396Y-120109561D02*
X156300396Y-119728609D01*
X156300396Y-119728609D02*
X156252777Y-119633371D01*
X156252777Y-119633371D02*
X156157539Y-119585752D01*
X156157539Y-119585752D02*
X155967063Y-119585752D01*
X155967063Y-119585752D02*
X155871825Y-119633371D01*
X155871825Y-119633371D02*
X155824206Y-119728609D01*
X155824206Y-119728609D02*
X155824206Y-119823847D01*
X155824206Y-119823847D02*
X156300396Y-119919085D01*
X139561353Y-106697657D02*
X140989925Y-106697657D01*
X140989925Y-106697657D02*
X140989925Y-103697657D01*
X138704211Y-105840514D02*
X137275640Y-105840514D01*
X138989925Y-106697657D02*
X137989925Y-103697657D01*
X137989925Y-103697657D02*
X136989925Y-106697657D01*
X134989925Y-105126228D02*
X134561353Y-105269085D01*
X134561353Y-105269085D02*
X134418496Y-105411942D01*
X134418496Y-105411942D02*
X134275639Y-105697657D01*
X134275639Y-105697657D02*
X134275639Y-106126228D01*
X134275639Y-106126228D02*
X134418496Y-106411942D01*
X134418496Y-106411942D02*
X134561353Y-106554800D01*
X134561353Y-106554800D02*
X134847068Y-106697657D01*
X134847068Y-106697657D02*
X135989925Y-106697657D01*
X135989925Y-106697657D02*
X135989925Y-103697657D01*
X135989925Y-103697657D02*
X134989925Y-103697657D01*
X134989925Y-103697657D02*
X134704211Y-103840514D01*
X134704211Y-103840514D02*
X134561353Y-103983371D01*
X134561353Y-103983371D02*
X134418496Y-104269085D01*
X134418496Y-104269085D02*
X134418496Y-104554800D01*
X134418496Y-104554800D02*
X134561353Y-104840514D01*
X134561353Y-104840514D02*
X134704211Y-104983371D01*
X134704211Y-104983371D02*
X134989925Y-105126228D01*
X134989925Y-105126228D02*
X135989925Y-105126228D01*
M02*
